%TF.GenerationSoftware,KiCad,Pcbnew,9.0.3*%
%TF.CreationDate,2025-09-02T10:47:08-04:00*%
%TF.ProjectId,simon,73696d6f-6e2e-46b6-9963-61645f706362,rev?*%
%TF.SameCoordinates,Original*%
%TF.FileFunction,Copper,L3,Inr*%
%TF.FilePolarity,Positive*%
%FSLAX46Y46*%
G04 Gerber Fmt 4.6, Leading zero omitted, Abs format (unit mm)*
G04 Created by KiCad (PCBNEW 9.0.3) date 2025-09-02 10:47:08*
%MOMM*%
%LPD*%
G01*
G04 APERTURE LIST*
%TA.AperFunction,ComponentPad*%
%ADD10C,2.600000*%
%TD*%
%TA.AperFunction,ComponentPad*%
%ADD11C,1.950000*%
%TD*%
%TA.AperFunction,ComponentPad*%
%ADD12R,1.700000X1.700000*%
%TD*%
%TA.AperFunction,ComponentPad*%
%ADD13C,1.700000*%
%TD*%
%TA.AperFunction,ViaPad*%
%ADD14C,0.504800*%
%TD*%
%TA.AperFunction,ViaPad*%
%ADD15C,0.604800*%
%TD*%
%TA.AperFunction,ViaPad*%
%ADD16C,0.704800*%
%TD*%
G04 APERTURE END LIST*
D10*
%TO.N,N/C*%
%TO.C,N301*%
X135080000Y-75000000D03*
X135080000Y-106800000D03*
X159380000Y-75000000D03*
X159380000Y-106800000D03*
%TD*%
D11*
%TO.N,*%
%TO.C,J201*%
X151265000Y-108295000D03*
X151265000Y-105295000D03*
X141475000Y-108295000D03*
X141475000Y-105295000D03*
%TD*%
D12*
%TO.N,3V3*%
%TO.C,J301*%
X133390000Y-82420000D03*
D13*
%TO.N,GND*%
X133390000Y-84960000D03*
%TO.N,/IO/display_mosi*%
X133390000Y-87500000D03*
%TO.N,/IO/display_sclk*%
X133390000Y-90040000D03*
%TO.N,/IO/display_cs_n*%
X133390000Y-92580000D03*
%TO.N,/IO/display_dc*%
X133390000Y-95120000D03*
%TO.N,/IO/display_nrst*%
X133390000Y-97660000D03*
%TO.N,/IO/display_bl*%
X133390000Y-100200000D03*
%TD*%
D12*
%TO.N,3V3*%
%TO.C,J401*%
X160960000Y-80000000D03*
D13*
%TO.N,/mcu/SWDIO*%
X160960000Y-82540000D03*
%TO.N,/mcu/SWCLK*%
X160960000Y-85080000D03*
%TO.N,/mcu/NRST*%
X160960000Y-87620000D03*
%TO.N,GND*%
X160960000Y-90160000D03*
%TD*%
D14*
%TO.N,GND*%
X145655000Y-76165000D03*
X139100000Y-101820000D03*
X144530000Y-84550000D03*
X157200000Y-88000000D03*
X156990000Y-77160000D03*
X144020000Y-81630000D03*
X144650000Y-99810000D03*
X151070000Y-84730000D03*
X140360000Y-82570000D03*
X145712158Y-88477842D03*
X151550000Y-88314400D03*
X156402377Y-88101000D03*
X141140000Y-81269400D03*
X152640000Y-77180000D03*
%TO.N,3V3*%
X143990000Y-76200000D03*
X146160000Y-84530000D03*
X139811358Y-81041358D03*
X158530000Y-85080000D03*
X152480000Y-84680000D03*
X153610000Y-88850000D03*
X154630000Y-99520000D03*
X153600000Y-86490000D03*
X144270000Y-83350000D03*
X155880000Y-75880000D03*
X157490000Y-89620000D03*
D15*
X159700000Y-95630000D03*
X161500000Y-97480000D03*
D14*
X156520000Y-87000000D03*
D16*
%TO.N,/power/5V*%
X136940000Y-99570000D03*
%TO.N,/power/3V7_LIPO_EXT*%
X143630000Y-97690000D03*
D15*
%TO.N,/mcu/SWCLK*%
X153620000Y-74620000D03*
%TO.N,/IO/display_dc*%
X136000000Y-92910000D03*
%TO.N,/IO/display_nrst*%
X137230000Y-93442762D03*
%TO.N,/IO/accel_sda*%
X155670000Y-79440000D03*
X154240000Y-87700000D03*
%TO.N,/IO/buzzer_pwm*%
X156795000Y-91605000D03*
X140870000Y-83740000D03*
%TO.N,/IO/display_bl*%
X138770000Y-92410000D03*
%TO.N,/mcu/NRST*%
X155080000Y-91830000D03*
X138040000Y-81670000D03*
%TO.N,/IO/display_mosi*%
X137320000Y-83530000D03*
%TD*%
%TA.AperFunction,Conductor*%
%TO.N,3V3*%
G36*
X158967201Y-71503139D02*
G01*
X159179000Y-71547548D01*
X159185622Y-71549128D01*
X159254576Y-71567604D01*
X159257787Y-71568512D01*
X159583169Y-71665383D01*
X159590157Y-71667692D01*
X159644056Y-71687310D01*
X159646678Y-71688299D01*
X159976425Y-71816967D01*
X159983729Y-71820089D01*
X160014837Y-71834595D01*
X160016641Y-71835458D01*
X160354902Y-72000823D01*
X160363883Y-72005683D01*
X160710070Y-72211966D01*
X160718638Y-72217564D01*
X161046593Y-72451719D01*
X161054668Y-72458005D01*
X161362155Y-72718433D01*
X161369695Y-72725374D01*
X161654625Y-73010304D01*
X161661566Y-73017844D01*
X161815421Y-73199501D01*
X161921989Y-73325325D01*
X161928282Y-73333410D01*
X162041400Y-73491841D01*
X162162431Y-73661355D01*
X162168037Y-73669935D01*
X162374309Y-74016105D01*
X162379186Y-74025119D01*
X162544467Y-74363206D01*
X162545450Y-74365262D01*
X162559902Y-74396255D01*
X162563036Y-74403584D01*
X162691691Y-74733300D01*
X162692696Y-74735964D01*
X162712299Y-74789822D01*
X162714622Y-74796851D01*
X162811475Y-75122173D01*
X162812405Y-75125462D01*
X162830866Y-75194361D01*
X162832452Y-75201007D01*
X162876861Y-75412798D01*
X162879500Y-75438245D01*
X162879500Y-103518132D01*
X162859815Y-103585171D01*
X162807011Y-103630926D01*
X162756681Y-103642126D01*
X141745631Y-103842232D01*
X141725052Y-103840711D01*
X141591128Y-103819500D01*
X141591124Y-103819500D01*
X141358876Y-103819500D01*
X141358870Y-103819500D01*
X141190466Y-103846172D01*
X141172250Y-103847693D01*
X131705681Y-103937850D01*
X131638457Y-103918805D01*
X131592201Y-103866439D01*
X131580500Y-103813856D01*
X131580500Y-101745841D01*
X138347100Y-101745841D01*
X138347100Y-101894158D01*
X138376031Y-102039605D01*
X138376033Y-102039613D01*
X138432789Y-102176633D01*
X138515182Y-102299944D01*
X138515188Y-102299951D01*
X138620048Y-102404811D01*
X138620055Y-102404817D01*
X138743366Y-102487210D01*
X138743367Y-102487210D01*
X138743368Y-102487211D01*
X138880387Y-102543967D01*
X139025841Y-102572899D01*
X139025845Y-102572900D01*
X139025846Y-102572900D01*
X139174155Y-102572900D01*
X139174156Y-102572899D01*
X139319613Y-102543967D01*
X139456632Y-102487211D01*
X139579946Y-102404816D01*
X139684816Y-102299946D01*
X139767211Y-102176632D01*
X139823967Y-102039613D01*
X139852900Y-101894154D01*
X139852900Y-101745846D01*
X139823967Y-101600387D01*
X139767211Y-101463368D01*
X139759319Y-101451557D01*
X139684817Y-101340055D01*
X139684811Y-101340048D01*
X139579951Y-101235188D01*
X139579944Y-101235182D01*
X139456633Y-101152789D01*
X139319613Y-101096033D01*
X139319605Y-101096031D01*
X139174158Y-101067100D01*
X139174154Y-101067100D01*
X139025846Y-101067100D01*
X139025841Y-101067100D01*
X138880394Y-101096031D01*
X138880386Y-101096033D01*
X138743366Y-101152789D01*
X138620055Y-101235182D01*
X138620048Y-101235188D01*
X138515188Y-101340048D01*
X138515182Y-101340055D01*
X138432789Y-101463366D01*
X138376033Y-101600386D01*
X138376031Y-101600394D01*
X138347100Y-101745841D01*
X131580500Y-101745841D01*
X131580500Y-84853713D01*
X132039500Y-84853713D01*
X132039500Y-85066286D01*
X132072393Y-85273968D01*
X132072754Y-85276243D01*
X132130500Y-85453967D01*
X132138444Y-85478414D01*
X132234951Y-85667820D01*
X132359890Y-85839786D01*
X132510213Y-85990109D01*
X132682182Y-86115050D01*
X132690946Y-86119516D01*
X132741742Y-86167491D01*
X132758536Y-86235312D01*
X132735998Y-86301447D01*
X132690946Y-86340484D01*
X132682182Y-86344949D01*
X132510213Y-86469890D01*
X132359890Y-86620213D01*
X132234951Y-86792179D01*
X132138444Y-86981585D01*
X132072753Y-87183760D01*
X132039500Y-87393713D01*
X132039500Y-87606286D01*
X132067074Y-87780386D01*
X132072754Y-87816243D01*
X132131777Y-87997897D01*
X132138444Y-88018414D01*
X132234951Y-88207820D01*
X132359890Y-88379786D01*
X132510213Y-88530109D01*
X132682182Y-88655050D01*
X132690946Y-88659516D01*
X132741742Y-88707491D01*
X132758536Y-88775312D01*
X132735998Y-88841447D01*
X132690946Y-88880484D01*
X132682182Y-88884949D01*
X132510213Y-89009890D01*
X132359890Y-89160213D01*
X132234951Y-89332179D01*
X132138444Y-89521585D01*
X132072753Y-89723760D01*
X132053748Y-89843757D01*
X132039500Y-89933713D01*
X132039500Y-90146287D01*
X132072754Y-90356243D01*
X132111743Y-90476239D01*
X132138444Y-90558414D01*
X132234951Y-90747820D01*
X132359890Y-90919786D01*
X132510213Y-91070109D01*
X132682182Y-91195050D01*
X132690946Y-91199516D01*
X132741742Y-91247491D01*
X132758536Y-91315312D01*
X132735998Y-91381447D01*
X132690946Y-91420484D01*
X132682182Y-91424949D01*
X132510213Y-91549890D01*
X132359890Y-91700213D01*
X132234951Y-91872179D01*
X132138444Y-92061585D01*
X132072753Y-92263760D01*
X132039500Y-92473713D01*
X132039500Y-92686286D01*
X132055975Y-92790309D01*
X132072754Y-92896243D01*
X132117401Y-93033653D01*
X132138444Y-93098414D01*
X132234951Y-93287820D01*
X132359890Y-93459786D01*
X132510213Y-93610109D01*
X132682182Y-93735050D01*
X132690946Y-93739516D01*
X132741742Y-93787491D01*
X132758536Y-93855312D01*
X132735998Y-93921447D01*
X132690946Y-93960484D01*
X132682182Y-93964949D01*
X132510213Y-94089890D01*
X132359890Y-94240213D01*
X132234951Y-94412179D01*
X132138444Y-94601585D01*
X132072753Y-94803760D01*
X132039500Y-95013713D01*
X132039500Y-95226286D01*
X132072753Y-95436239D01*
X132138444Y-95638414D01*
X132234951Y-95827820D01*
X132359890Y-95999786D01*
X132510213Y-96150109D01*
X132682182Y-96275050D01*
X132690946Y-96279516D01*
X132741742Y-96327491D01*
X132758536Y-96395312D01*
X132735998Y-96461447D01*
X132690946Y-96500484D01*
X132682182Y-96504949D01*
X132510213Y-96629890D01*
X132359890Y-96780213D01*
X132234951Y-96952179D01*
X132138444Y-97141585D01*
X132072753Y-97343760D01*
X132039500Y-97553713D01*
X132039500Y-97766286D01*
X132066820Y-97938782D01*
X132072754Y-97976243D01*
X132111014Y-98093996D01*
X132138444Y-98178414D01*
X132234951Y-98367820D01*
X132359890Y-98539786D01*
X132510213Y-98690109D01*
X132682182Y-98815050D01*
X132690946Y-98819516D01*
X132741742Y-98867491D01*
X132758536Y-98935312D01*
X132735998Y-99001447D01*
X132690946Y-99040484D01*
X132682182Y-99044949D01*
X132510213Y-99169890D01*
X132359890Y-99320213D01*
X132234951Y-99492179D01*
X132138444Y-99681585D01*
X132072753Y-99883760D01*
X132039500Y-100093713D01*
X132039500Y-100306287D01*
X132049534Y-100369644D01*
X132066571Y-100477210D01*
X132072754Y-100516243D01*
X132078513Y-100533968D01*
X132138444Y-100718414D01*
X132234951Y-100907820D01*
X132359890Y-101079786D01*
X132510213Y-101230109D01*
X132682179Y-101355048D01*
X132682181Y-101355049D01*
X132682184Y-101355051D01*
X132871588Y-101451557D01*
X133073757Y-101517246D01*
X133283713Y-101550500D01*
X133283714Y-101550500D01*
X133496286Y-101550500D01*
X133496287Y-101550500D01*
X133706243Y-101517246D01*
X133908412Y-101451557D01*
X134097816Y-101355051D01*
X134119789Y-101339086D01*
X134269786Y-101230109D01*
X134269788Y-101230106D01*
X134269792Y-101230104D01*
X134420104Y-101079792D01*
X134420106Y-101079788D01*
X134420109Y-101079786D01*
X134545048Y-100907820D01*
X134545047Y-100907820D01*
X134545051Y-100907816D01*
X134641557Y-100718412D01*
X134707246Y-100516243D01*
X134740500Y-100306287D01*
X134740500Y-100093713D01*
X134707246Y-99883757D01*
X134641557Y-99681588D01*
X134545051Y-99492184D01*
X134545049Y-99492181D01*
X134545048Y-99492179D01*
X134540553Y-99485992D01*
X136087100Y-99485992D01*
X136087100Y-99654007D01*
X136119874Y-99818774D01*
X136119876Y-99818782D01*
X136184168Y-99973996D01*
X136184173Y-99974006D01*
X136277508Y-100113691D01*
X136277511Y-100113695D01*
X136396304Y-100232488D01*
X136396308Y-100232491D01*
X136535993Y-100325826D01*
X136535997Y-100325828D01*
X136536000Y-100325830D01*
X136691218Y-100390124D01*
X136855992Y-100422899D01*
X136855996Y-100422900D01*
X136855997Y-100422900D01*
X137024004Y-100422900D01*
X137024005Y-100422899D01*
X137188782Y-100390124D01*
X137344000Y-100325830D01*
X137483692Y-100232491D01*
X137602491Y-100113692D01*
X137695830Y-99974000D01*
X137760124Y-99818782D01*
X137776622Y-99735841D01*
X143897100Y-99735841D01*
X143897100Y-99884158D01*
X143926031Y-100029605D01*
X143926033Y-100029613D01*
X143982789Y-100166633D01*
X144065182Y-100289944D01*
X144065188Y-100289951D01*
X144170048Y-100394811D01*
X144170055Y-100394817D01*
X144293366Y-100477210D01*
X144293367Y-100477210D01*
X144293368Y-100477211D01*
X144430387Y-100533967D01*
X144575841Y-100562899D01*
X144575845Y-100562900D01*
X144575846Y-100562900D01*
X144724155Y-100562900D01*
X144724156Y-100562899D01*
X144869613Y-100533967D01*
X145006632Y-100477211D01*
X145129946Y-100394816D01*
X145234816Y-100289946D01*
X145317211Y-100166632D01*
X145373967Y-100029613D01*
X145402900Y-99884154D01*
X145402900Y-99735846D01*
X145373967Y-99590387D01*
X145317211Y-99453368D01*
X145234816Y-99330054D01*
X145234811Y-99330048D01*
X145129951Y-99225188D01*
X145129944Y-99225182D01*
X145006633Y-99142789D01*
X144869613Y-99086033D01*
X144869605Y-99086031D01*
X144724158Y-99057100D01*
X144724154Y-99057100D01*
X144575846Y-99057100D01*
X144575841Y-99057100D01*
X144430394Y-99086031D01*
X144430386Y-99086033D01*
X144293366Y-99142789D01*
X144170055Y-99225182D01*
X144170048Y-99225188D01*
X144065188Y-99330048D01*
X144065182Y-99330055D01*
X143982789Y-99453366D01*
X143926033Y-99590386D01*
X143926031Y-99590394D01*
X143897100Y-99735841D01*
X137776622Y-99735841D01*
X137782639Y-99705592D01*
X137782644Y-99705564D01*
X137787413Y-99681588D01*
X137792900Y-99654003D01*
X137792900Y-99485997D01*
X137760124Y-99321218D01*
X137695830Y-99166000D01*
X137695828Y-99165997D01*
X137695826Y-99165993D01*
X137602491Y-99026308D01*
X137602488Y-99026304D01*
X137483695Y-98907511D01*
X137483691Y-98907508D01*
X137344006Y-98814173D01*
X137343996Y-98814168D01*
X137188782Y-98749876D01*
X137188774Y-98749874D01*
X137024007Y-98717100D01*
X137024003Y-98717100D01*
X136855997Y-98717100D01*
X136855992Y-98717100D01*
X136691225Y-98749874D01*
X136691217Y-98749876D01*
X136536003Y-98814168D01*
X136535993Y-98814173D01*
X136396308Y-98907508D01*
X136396304Y-98907511D01*
X136277511Y-99026304D01*
X136277508Y-99026308D01*
X136184173Y-99165993D01*
X136184168Y-99166003D01*
X136119876Y-99321217D01*
X136119874Y-99321225D01*
X136087100Y-99485992D01*
X134540553Y-99485992D01*
X134420109Y-99320213D01*
X134269786Y-99169890D01*
X134097820Y-99044951D01*
X134097115Y-99044591D01*
X134089054Y-99040485D01*
X134038259Y-98992512D01*
X134021463Y-98924692D01*
X134043999Y-98858556D01*
X134089054Y-98819515D01*
X134097816Y-98815051D01*
X134119789Y-98799086D01*
X134269786Y-98690109D01*
X134269788Y-98690106D01*
X134269792Y-98690104D01*
X134420104Y-98539792D01*
X134420106Y-98539788D01*
X134420109Y-98539786D01*
X134545048Y-98367820D01*
X134545047Y-98367820D01*
X134545051Y-98367816D01*
X134641557Y-98178412D01*
X134707246Y-97976243D01*
X134740500Y-97766287D01*
X134740500Y-97605992D01*
X142777100Y-97605992D01*
X142777100Y-97774007D01*
X142809874Y-97938774D01*
X142809876Y-97938782D01*
X142874168Y-98093996D01*
X142874173Y-98094006D01*
X142967508Y-98233691D01*
X142967511Y-98233695D01*
X143086304Y-98352488D01*
X143086308Y-98352491D01*
X143225993Y-98445826D01*
X143225997Y-98445828D01*
X143226000Y-98445830D01*
X143381218Y-98510124D01*
X143530342Y-98539786D01*
X143545992Y-98542899D01*
X143545996Y-98542900D01*
X143545997Y-98542900D01*
X143714004Y-98542900D01*
X143714005Y-98542899D01*
X143878782Y-98510124D01*
X144034000Y-98445830D01*
X144173692Y-98352491D01*
X144292491Y-98233692D01*
X144385830Y-98094000D01*
X144450124Y-97938782D01*
X144482900Y-97774003D01*
X144482900Y-97605997D01*
X144450124Y-97441218D01*
X144385830Y-97286000D01*
X144385828Y-97285997D01*
X144385826Y-97285993D01*
X144292491Y-97146308D01*
X144292488Y-97146304D01*
X144173695Y-97027511D01*
X144173691Y-97027508D01*
X144034006Y-96934173D01*
X144033996Y-96934168D01*
X143878782Y-96869876D01*
X143878774Y-96869874D01*
X143714007Y-96837100D01*
X143714003Y-96837100D01*
X143545997Y-96837100D01*
X143545992Y-96837100D01*
X143381225Y-96869874D01*
X143381217Y-96869876D01*
X143226003Y-96934168D01*
X143225993Y-96934173D01*
X143086308Y-97027508D01*
X143086304Y-97027511D01*
X142967511Y-97146304D01*
X142967508Y-97146308D01*
X142874173Y-97285993D01*
X142874168Y-97286003D01*
X142809876Y-97441217D01*
X142809874Y-97441225D01*
X142777100Y-97605992D01*
X134740500Y-97605992D01*
X134740500Y-97553713D01*
X134707246Y-97343757D01*
X134641557Y-97141588D01*
X134545051Y-96952184D01*
X134545049Y-96952181D01*
X134545048Y-96952179D01*
X134420109Y-96780213D01*
X134269786Y-96629890D01*
X134097820Y-96504951D01*
X134097115Y-96504591D01*
X134089054Y-96500485D01*
X134038259Y-96452512D01*
X134021463Y-96384692D01*
X134043999Y-96318556D01*
X134089054Y-96279515D01*
X134097816Y-96275051D01*
X134119789Y-96259086D01*
X134269786Y-96150109D01*
X134269788Y-96150106D01*
X134269792Y-96150104D01*
X134420104Y-95999792D01*
X134420106Y-95999788D01*
X134420109Y-95999786D01*
X134545048Y-95827820D01*
X134545047Y-95827820D01*
X134545051Y-95827816D01*
X134641557Y-95638412D01*
X134707246Y-95436243D01*
X134740500Y-95226287D01*
X134740500Y-95013713D01*
X134707246Y-94803757D01*
X134641557Y-94601588D01*
X134545051Y-94412184D01*
X134545049Y-94412181D01*
X134545048Y-94412179D01*
X134420109Y-94240213D01*
X134269786Y-94089890D01*
X134097820Y-93964951D01*
X134097115Y-93964591D01*
X134089054Y-93960485D01*
X134038259Y-93912512D01*
X134021463Y-93844692D01*
X134043999Y-93778556D01*
X134089054Y-93739515D01*
X134097816Y-93735051D01*
X134123004Y-93716751D01*
X134269786Y-93610109D01*
X134269788Y-93610106D01*
X134269792Y-93610104D01*
X134420104Y-93459792D01*
X134420106Y-93459788D01*
X134420109Y-93459786D01*
X134545048Y-93287820D01*
X134545047Y-93287820D01*
X134545051Y-93287816D01*
X134641557Y-93098412D01*
X134707246Y-92896243D01*
X134717593Y-92830916D01*
X135197100Y-92830916D01*
X135197100Y-92989083D01*
X135227952Y-93144189D01*
X135227955Y-93144198D01*
X135288475Y-93290309D01*
X135288482Y-93290322D01*
X135376346Y-93421818D01*
X135376349Y-93421822D01*
X135488177Y-93533650D01*
X135488181Y-93533653D01*
X135619677Y-93621517D01*
X135619690Y-93621524D01*
X135729273Y-93666914D01*
X135765803Y-93682045D01*
X135765805Y-93682045D01*
X135765810Y-93682047D01*
X135920916Y-93712899D01*
X135920919Y-93712900D01*
X135920921Y-93712900D01*
X136079081Y-93712900D01*
X136079082Y-93712899D01*
X136130785Y-93702615D01*
X136234189Y-93682047D01*
X136234191Y-93682046D01*
X136234197Y-93682045D01*
X136312426Y-93649641D01*
X136381892Y-93642173D01*
X136444372Y-93673448D01*
X136474437Y-93716751D01*
X136518475Y-93823071D01*
X136518482Y-93823084D01*
X136606346Y-93954580D01*
X136606349Y-93954584D01*
X136718177Y-94066412D01*
X136718181Y-94066415D01*
X136849677Y-94154279D01*
X136849690Y-94154286D01*
X136959273Y-94199676D01*
X136995803Y-94214807D01*
X136995805Y-94214807D01*
X136995810Y-94214809D01*
X137150916Y-94245661D01*
X137150919Y-94245662D01*
X137150921Y-94245662D01*
X137309081Y-94245662D01*
X137309082Y-94245661D01*
X137360785Y-94235377D01*
X137464189Y-94214809D01*
X137464192Y-94214807D01*
X137464197Y-94214807D01*
X137610316Y-94154283D01*
X137741819Y-94066415D01*
X137853653Y-93954581D01*
X137941521Y-93823078D01*
X138002045Y-93676959D01*
X138002744Y-93673448D01*
X138032899Y-93521845D01*
X138032900Y-93521843D01*
X138032900Y-93363680D01*
X138032899Y-93363678D01*
X138002047Y-93208572D01*
X138002044Y-93208563D01*
X137941524Y-93062452D01*
X137941517Y-93062439D01*
X137853653Y-92930943D01*
X137853650Y-92930939D01*
X137741822Y-92819111D01*
X137741818Y-92819108D01*
X137610322Y-92731244D01*
X137610309Y-92731237D01*
X137464198Y-92670717D01*
X137464189Y-92670714D01*
X137309082Y-92639862D01*
X137309079Y-92639862D01*
X137150921Y-92639862D01*
X137150918Y-92639862D01*
X136995810Y-92670714D01*
X136995806Y-92670716D01*
X136995804Y-92670716D01*
X136995803Y-92670717D01*
X136975053Y-92679312D01*
X136917574Y-92703120D01*
X136848105Y-92710587D01*
X136785626Y-92679312D01*
X136755564Y-92636014D01*
X136711521Y-92529684D01*
X136711519Y-92529681D01*
X136711517Y-92529677D01*
X136623655Y-92398183D01*
X136623650Y-92398177D01*
X136556389Y-92330916D01*
X137967100Y-92330916D01*
X137967100Y-92489083D01*
X137997952Y-92644189D01*
X137997955Y-92644198D01*
X138058475Y-92790309D01*
X138058482Y-92790322D01*
X138146346Y-92921818D01*
X138146349Y-92921822D01*
X138258177Y-93033650D01*
X138258181Y-93033653D01*
X138389677Y-93121517D01*
X138389690Y-93121524D01*
X138499273Y-93166914D01*
X138535803Y-93182045D01*
X138535805Y-93182045D01*
X138535810Y-93182047D01*
X138690916Y-93212899D01*
X138690919Y-93212900D01*
X138690921Y-93212900D01*
X138849081Y-93212900D01*
X138849082Y-93212899D01*
X138900785Y-93202615D01*
X139004189Y-93182047D01*
X139004192Y-93182045D01*
X139004197Y-93182045D01*
X139150316Y-93121521D01*
X139281819Y-93033653D01*
X139393653Y-92921819D01*
X139481521Y-92790316D01*
X139542045Y-92644197D01*
X139542908Y-92639862D01*
X139564824Y-92529681D01*
X139572900Y-92489079D01*
X139572900Y-92330921D01*
X139572900Y-92330918D01*
X139572899Y-92330916D01*
X139542047Y-92175810D01*
X139542044Y-92175801D01*
X139481524Y-92029690D01*
X139481517Y-92029677D01*
X139393653Y-91898181D01*
X139393650Y-91898177D01*
X139281822Y-91786349D01*
X139281818Y-91786346D01*
X139228794Y-91750916D01*
X154277100Y-91750916D01*
X154277100Y-91909083D01*
X154307952Y-92064189D01*
X154307955Y-92064198D01*
X154368475Y-92210309D01*
X154368482Y-92210322D01*
X154456346Y-92341818D01*
X154456349Y-92341822D01*
X154568177Y-92453650D01*
X154568181Y-92453653D01*
X154699677Y-92541517D01*
X154699690Y-92541524D01*
X154809273Y-92586914D01*
X154845803Y-92602045D01*
X154845805Y-92602045D01*
X154845810Y-92602047D01*
X155000916Y-92632899D01*
X155000919Y-92632900D01*
X155000921Y-92632900D01*
X155159081Y-92632900D01*
X155159082Y-92632899D01*
X155210785Y-92622615D01*
X155314189Y-92602047D01*
X155314192Y-92602045D01*
X155314197Y-92602045D01*
X155460316Y-92541521D01*
X155591819Y-92453653D01*
X155703653Y-92341819D01*
X155791521Y-92210316D01*
X155852045Y-92064197D01*
X155858825Y-92030114D01*
X155891210Y-91968203D01*
X155951925Y-91933629D01*
X156021695Y-91937368D01*
X156078367Y-91978235D01*
X156083544Y-91985414D01*
X156171346Y-92116818D01*
X156171349Y-92116822D01*
X156283177Y-92228650D01*
X156283181Y-92228653D01*
X156414677Y-92316517D01*
X156414690Y-92316524D01*
X156475759Y-92341819D01*
X156560803Y-92377045D01*
X156560805Y-92377045D01*
X156560810Y-92377047D01*
X156715916Y-92407899D01*
X156715919Y-92407900D01*
X156715921Y-92407900D01*
X156874081Y-92407900D01*
X156874082Y-92407899D01*
X156925785Y-92397615D01*
X157029189Y-92377047D01*
X157029192Y-92377045D01*
X157029197Y-92377045D01*
X157175316Y-92316521D01*
X157306819Y-92228653D01*
X157418653Y-92116819D01*
X157506521Y-91985316D01*
X157567045Y-91839197D01*
X157597900Y-91684079D01*
X157597900Y-91525921D01*
X157597900Y-91525918D01*
X157597899Y-91525916D01*
X157567047Y-91370810D01*
X157567044Y-91370801D01*
X157506524Y-91224690D01*
X157506517Y-91224677D01*
X157418653Y-91093181D01*
X157418650Y-91093177D01*
X157306822Y-90981349D01*
X157306818Y-90981346D01*
X157175322Y-90893482D01*
X157175309Y-90893475D01*
X157029198Y-90832955D01*
X157029189Y-90832952D01*
X156874082Y-90802100D01*
X156874079Y-90802100D01*
X156715921Y-90802100D01*
X156715918Y-90802100D01*
X156560810Y-90832952D01*
X156560801Y-90832955D01*
X156414690Y-90893475D01*
X156414677Y-90893482D01*
X156283181Y-90981346D01*
X156283177Y-90981349D01*
X156171349Y-91093177D01*
X156171346Y-91093181D01*
X156083482Y-91224677D01*
X156083475Y-91224690D01*
X156022955Y-91370801D01*
X156022954Y-91370804D01*
X156016174Y-91404889D01*
X155983787Y-91466799D01*
X155923070Y-91501371D01*
X155853301Y-91497630D01*
X155796630Y-91456762D01*
X155791455Y-91449585D01*
X155703653Y-91318181D01*
X155703650Y-91318177D01*
X155591822Y-91206349D01*
X155591818Y-91206346D01*
X155460322Y-91118482D01*
X155460309Y-91118475D01*
X155314198Y-91057955D01*
X155314189Y-91057952D01*
X155159082Y-91027100D01*
X155159079Y-91027100D01*
X155000921Y-91027100D01*
X155000918Y-91027100D01*
X154845810Y-91057952D01*
X154845801Y-91057955D01*
X154699690Y-91118475D01*
X154699677Y-91118482D01*
X154568181Y-91206346D01*
X154568177Y-91206349D01*
X154456349Y-91318177D01*
X154456346Y-91318181D01*
X154368482Y-91449677D01*
X154368475Y-91449690D01*
X154307955Y-91595801D01*
X154307952Y-91595810D01*
X154277100Y-91750916D01*
X139228794Y-91750916D01*
X139150322Y-91698482D01*
X139150309Y-91698475D01*
X139004198Y-91637955D01*
X139004189Y-91637952D01*
X138849082Y-91607100D01*
X138849079Y-91607100D01*
X138690921Y-91607100D01*
X138690918Y-91607100D01*
X138535810Y-91637952D01*
X138535801Y-91637955D01*
X138389690Y-91698475D01*
X138389677Y-91698482D01*
X138258181Y-91786346D01*
X138258177Y-91786349D01*
X138146349Y-91898177D01*
X138146346Y-91898181D01*
X138058482Y-92029677D01*
X138058475Y-92029690D01*
X137997955Y-92175801D01*
X137997952Y-92175810D01*
X137967100Y-92330916D01*
X136556389Y-92330916D01*
X136511822Y-92286349D01*
X136511818Y-92286346D01*
X136380322Y-92198482D01*
X136380309Y-92198475D01*
X136234198Y-92137955D01*
X136234189Y-92137952D01*
X136079082Y-92107100D01*
X136079079Y-92107100D01*
X135920921Y-92107100D01*
X135920918Y-92107100D01*
X135765810Y-92137952D01*
X135765801Y-92137955D01*
X135619690Y-92198475D01*
X135619677Y-92198482D01*
X135488181Y-92286346D01*
X135488177Y-92286349D01*
X135376349Y-92398177D01*
X135376346Y-92398181D01*
X135288482Y-92529677D01*
X135288475Y-92529690D01*
X135227955Y-92675801D01*
X135227952Y-92675810D01*
X135197100Y-92830916D01*
X134717593Y-92830916D01*
X134740500Y-92686287D01*
X134740500Y-92473713D01*
X134707246Y-92263757D01*
X134641557Y-92061588D01*
X134545051Y-91872184D01*
X134545049Y-91872181D01*
X134545048Y-91872179D01*
X134420109Y-91700213D01*
X134269786Y-91549890D01*
X134097820Y-91424951D01*
X134097115Y-91424591D01*
X134089054Y-91420485D01*
X134038259Y-91372512D01*
X134021463Y-91304692D01*
X134043999Y-91238556D01*
X134089054Y-91199515D01*
X134097816Y-91195051D01*
X134203205Y-91118482D01*
X134269786Y-91070109D01*
X134269788Y-91070106D01*
X134269792Y-91070104D01*
X134420104Y-90919792D01*
X134420106Y-90919788D01*
X134420109Y-90919786D01*
X134545048Y-90747820D01*
X134545047Y-90747820D01*
X134545051Y-90747816D01*
X134641557Y-90558412D01*
X134707246Y-90356243D01*
X134740500Y-90146287D01*
X134740500Y-89933713D01*
X134707246Y-89723757D01*
X134641557Y-89521588D01*
X134545051Y-89332184D01*
X134545049Y-89332181D01*
X134545048Y-89332179D01*
X134420109Y-89160213D01*
X134269786Y-89009890D01*
X134097820Y-88884951D01*
X134097115Y-88884591D01*
X134089054Y-88880485D01*
X134038259Y-88832512D01*
X134021463Y-88764692D01*
X134043999Y-88698556D01*
X134089054Y-88659515D01*
X134097816Y-88655051D01*
X134119789Y-88639086D01*
X134269786Y-88530109D01*
X134269788Y-88530106D01*
X134269792Y-88530104D01*
X134396213Y-88403683D01*
X144959258Y-88403683D01*
X144959258Y-88552000D01*
X144988189Y-88697447D01*
X144988191Y-88697455D01*
X145044947Y-88834475D01*
X145127340Y-88957786D01*
X145127346Y-88957793D01*
X145232206Y-89062653D01*
X145232213Y-89062659D01*
X145355524Y-89145052D01*
X145355525Y-89145052D01*
X145355526Y-89145053D01*
X145492545Y-89201809D01*
X145637999Y-89230741D01*
X145638003Y-89230742D01*
X145638004Y-89230742D01*
X145786313Y-89230742D01*
X145786314Y-89230741D01*
X145931771Y-89201809D01*
X146068790Y-89145053D01*
X146192104Y-89062658D01*
X146296974Y-88957788D01*
X146379369Y-88834474D01*
X146436125Y-88697455D01*
X146465058Y-88551996D01*
X146465058Y-88403688D01*
X146436125Y-88258229D01*
X146428674Y-88240241D01*
X150797100Y-88240241D01*
X150797100Y-88388558D01*
X150826031Y-88534005D01*
X150826033Y-88534013D01*
X150882789Y-88671033D01*
X150965182Y-88794344D01*
X150965188Y-88794351D01*
X151070048Y-88899211D01*
X151070055Y-88899217D01*
X151193366Y-88981610D01*
X151193367Y-88981610D01*
X151193368Y-88981611D01*
X151330387Y-89038367D01*
X151452509Y-89062658D01*
X151475841Y-89067299D01*
X151475845Y-89067300D01*
X151475846Y-89067300D01*
X151624155Y-89067300D01*
X151624156Y-89067299D01*
X151769613Y-89038367D01*
X151906632Y-88981611D01*
X152029946Y-88899216D01*
X152134816Y-88794346D01*
X152217211Y-88671032D01*
X152273967Y-88534013D01*
X152302900Y-88388554D01*
X152302900Y-88240246D01*
X152273967Y-88094787D01*
X152217211Y-87957768D01*
X152201462Y-87934198D01*
X152134817Y-87834455D01*
X152134811Y-87834448D01*
X152029951Y-87729588D01*
X152029947Y-87729585D01*
X152029946Y-87729584D01*
X151906632Y-87647189D01*
X151906633Y-87647189D01*
X151906631Y-87647188D01*
X151843205Y-87620916D01*
X153437100Y-87620916D01*
X153437100Y-87779083D01*
X153467952Y-87934189D01*
X153467955Y-87934198D01*
X153528475Y-88080309D01*
X153528482Y-88080322D01*
X153616346Y-88211818D01*
X153616349Y-88211822D01*
X153728177Y-88323650D01*
X153728181Y-88323653D01*
X153859677Y-88411517D01*
X153859690Y-88411524D01*
X153969273Y-88456914D01*
X154005803Y-88472045D01*
X154005805Y-88472045D01*
X154005810Y-88472047D01*
X154160916Y-88502899D01*
X154160919Y-88502900D01*
X154160921Y-88502900D01*
X154319081Y-88502900D01*
X154319082Y-88502899D01*
X154370785Y-88492615D01*
X154474189Y-88472047D01*
X154474192Y-88472045D01*
X154474197Y-88472045D01*
X154620316Y-88411521D01*
X154751819Y-88323653D01*
X154863653Y-88211819D01*
X154951521Y-88080316D01*
X154973671Y-88026841D01*
X155649477Y-88026841D01*
X155649477Y-88175158D01*
X155678408Y-88320605D01*
X155678410Y-88320613D01*
X155735166Y-88457633D01*
X155817559Y-88580944D01*
X155817565Y-88580951D01*
X155922425Y-88685811D01*
X155922432Y-88685817D01*
X156045743Y-88768210D01*
X156045744Y-88768210D01*
X156045745Y-88768211D01*
X156182764Y-88824967D01*
X156328218Y-88853899D01*
X156328222Y-88853900D01*
X156328223Y-88853900D01*
X156476532Y-88853900D01*
X156476533Y-88853899D01*
X156621990Y-88824967D01*
X156759009Y-88768211D01*
X156829498Y-88721112D01*
X156896169Y-88700236D01*
X156945836Y-88709655D01*
X156980387Y-88723967D01*
X157119094Y-88751557D01*
X157125841Y-88752899D01*
X157125845Y-88752900D01*
X157125846Y-88752900D01*
X157274155Y-88752900D01*
X157274156Y-88752899D01*
X157419613Y-88723967D01*
X157556632Y-88667211D01*
X157679946Y-88584816D01*
X157784816Y-88479946D01*
X157867211Y-88356632D01*
X157923967Y-88219613D01*
X157952900Y-88074154D01*
X157952900Y-87925846D01*
X157923967Y-87780387D01*
X157867211Y-87643368D01*
X157852301Y-87621054D01*
X157784817Y-87520055D01*
X157784811Y-87520048D01*
X157679951Y-87415188D01*
X157679944Y-87415182D01*
X157556633Y-87332789D01*
X157419613Y-87276033D01*
X157419605Y-87276031D01*
X157274158Y-87247100D01*
X157274154Y-87247100D01*
X157125846Y-87247100D01*
X157125841Y-87247100D01*
X156980394Y-87276031D01*
X156980386Y-87276033D01*
X156843369Y-87332787D01*
X156772882Y-87379886D01*
X156706205Y-87400763D01*
X156656540Y-87391344D01*
X156621993Y-87377034D01*
X156621991Y-87377033D01*
X156621990Y-87377033D01*
X156621985Y-87377032D01*
X156621981Y-87377031D01*
X156476535Y-87348100D01*
X156476531Y-87348100D01*
X156328223Y-87348100D01*
X156328218Y-87348100D01*
X156182771Y-87377031D01*
X156182763Y-87377033D01*
X156045743Y-87433789D01*
X155922432Y-87516182D01*
X155922425Y-87516188D01*
X155817565Y-87621048D01*
X155817559Y-87621055D01*
X155735166Y-87744366D01*
X155678410Y-87881386D01*
X155678408Y-87881394D01*
X155649477Y-88026841D01*
X154973671Y-88026841D01*
X155012045Y-87934197D01*
X155013707Y-87925845D01*
X155042899Y-87779083D01*
X155042900Y-87779081D01*
X155042900Y-87620918D01*
X155042899Y-87620916D01*
X155012047Y-87465810D01*
X155012044Y-87465801D01*
X154951524Y-87319690D01*
X154951517Y-87319677D01*
X154863653Y-87188181D01*
X154863650Y-87188177D01*
X154751822Y-87076349D01*
X154751818Y-87076346D01*
X154620322Y-86988482D01*
X154620309Y-86988475D01*
X154474198Y-86927955D01*
X154474189Y-86927952D01*
X154319082Y-86897100D01*
X154319079Y-86897100D01*
X154160921Y-86897100D01*
X154160918Y-86897100D01*
X154005810Y-86927952D01*
X154005801Y-86927955D01*
X153859690Y-86988475D01*
X153859677Y-86988482D01*
X153728181Y-87076346D01*
X153728177Y-87076349D01*
X153616349Y-87188177D01*
X153616346Y-87188181D01*
X153528482Y-87319677D01*
X153528475Y-87319690D01*
X153467955Y-87465801D01*
X153467952Y-87465810D01*
X153437100Y-87620916D01*
X151843205Y-87620916D01*
X151769613Y-87590433D01*
X151769605Y-87590431D01*
X151624158Y-87561500D01*
X151624154Y-87561500D01*
X151475846Y-87561500D01*
X151475841Y-87561500D01*
X151330394Y-87590431D01*
X151330386Y-87590433D01*
X151193366Y-87647189D01*
X151070055Y-87729582D01*
X151070048Y-87729588D01*
X150965188Y-87834448D01*
X150965182Y-87834455D01*
X150882789Y-87957766D01*
X150826033Y-88094786D01*
X150826031Y-88094794D01*
X150797100Y-88240241D01*
X146428674Y-88240241D01*
X146379369Y-88121210D01*
X146361713Y-88094786D01*
X146296975Y-87997897D01*
X146296969Y-87997890D01*
X146192109Y-87893030D01*
X146192102Y-87893024D01*
X146068791Y-87810631D01*
X145931771Y-87753875D01*
X145931763Y-87753873D01*
X145786316Y-87724942D01*
X145786312Y-87724942D01*
X145638004Y-87724942D01*
X145637999Y-87724942D01*
X145492552Y-87753873D01*
X145492544Y-87753875D01*
X145355524Y-87810631D01*
X145232213Y-87893024D01*
X145232206Y-87893030D01*
X145127346Y-87997890D01*
X145127340Y-87997897D01*
X145044947Y-88121208D01*
X144988191Y-88258228D01*
X144988189Y-88258236D01*
X144959258Y-88403683D01*
X134396213Y-88403683D01*
X134420104Y-88379792D01*
X134545051Y-88207816D01*
X134641557Y-88018412D01*
X134707246Y-87816243D01*
X134740500Y-87606287D01*
X134740500Y-87393713D01*
X134707246Y-87183757D01*
X134641557Y-86981588D01*
X134545051Y-86792184D01*
X134545049Y-86792181D01*
X134545048Y-86792179D01*
X134420109Y-86620213D01*
X134269786Y-86469890D01*
X134097820Y-86344951D01*
X134097115Y-86344591D01*
X134089054Y-86340485D01*
X134038259Y-86292512D01*
X134021463Y-86224692D01*
X134043999Y-86158556D01*
X134089054Y-86119515D01*
X134097816Y-86115051D01*
X134119789Y-86099086D01*
X134269786Y-85990109D01*
X134269788Y-85990106D01*
X134269792Y-85990104D01*
X134420104Y-85839792D01*
X134420106Y-85839788D01*
X134420109Y-85839786D01*
X134545048Y-85667820D01*
X134545047Y-85667820D01*
X134545051Y-85667816D01*
X134641557Y-85478412D01*
X134707246Y-85276243D01*
X134740500Y-85066287D01*
X134740500Y-84853713D01*
X134707246Y-84643757D01*
X134641557Y-84441588D01*
X134545051Y-84252184D01*
X134545049Y-84252181D01*
X134545048Y-84252179D01*
X134420109Y-84080213D01*
X134306181Y-83966285D01*
X134272696Y-83904962D01*
X134277680Y-83835270D01*
X134319552Y-83779337D01*
X134350529Y-83762422D01*
X134482086Y-83713354D01*
X134482093Y-83713350D01*
X134597187Y-83627190D01*
X134597190Y-83627187D01*
X134683350Y-83512093D01*
X134683354Y-83512086D01*
X134706169Y-83450916D01*
X136517100Y-83450916D01*
X136517100Y-83609083D01*
X136547952Y-83764189D01*
X136547955Y-83764198D01*
X136608475Y-83910309D01*
X136608482Y-83910322D01*
X136696346Y-84041818D01*
X136696349Y-84041822D01*
X136808177Y-84153650D01*
X136808181Y-84153653D01*
X136939677Y-84241517D01*
X136939690Y-84241524D01*
X137049273Y-84286914D01*
X137085803Y-84302045D01*
X137085805Y-84302045D01*
X137085810Y-84302047D01*
X137240916Y-84332899D01*
X137240919Y-84332900D01*
X137240921Y-84332900D01*
X137399081Y-84332900D01*
X137399082Y-84332899D01*
X137450785Y-84322615D01*
X137554189Y-84302047D01*
X137554192Y-84302045D01*
X137554197Y-84302045D01*
X137700316Y-84241521D01*
X137831819Y-84153653D01*
X137943653Y-84041819D01*
X138031521Y-83910316D01*
X138092045Y-83764197D01*
X138097146Y-83738556D01*
X138122899Y-83609083D01*
X138122900Y-83609081D01*
X138122900Y-83450918D01*
X138122899Y-83450916D01*
X138092047Y-83295810D01*
X138092044Y-83295801D01*
X138091284Y-83293967D01*
X138064034Y-83228177D01*
X138031524Y-83149690D01*
X138031517Y-83149677D01*
X137943653Y-83018181D01*
X137943650Y-83018177D01*
X137831822Y-82906349D01*
X137831818Y-82906346D01*
X137700322Y-82818482D01*
X137700309Y-82818475D01*
X137554198Y-82757955D01*
X137554189Y-82757952D01*
X137399082Y-82727100D01*
X137399079Y-82727100D01*
X137240921Y-82727100D01*
X137240918Y-82727100D01*
X137085810Y-82757952D01*
X137085801Y-82757955D01*
X136939690Y-82818475D01*
X136939677Y-82818482D01*
X136808181Y-82906346D01*
X136808177Y-82906349D01*
X136696349Y-83018177D01*
X136696346Y-83018181D01*
X136608482Y-83149677D01*
X136608475Y-83149690D01*
X136547955Y-83295801D01*
X136547952Y-83295810D01*
X136517100Y-83450916D01*
X134706169Y-83450916D01*
X134724602Y-83401496D01*
X134733596Y-83377379D01*
X134733598Y-83377372D01*
X134739999Y-83317844D01*
X134740000Y-83317827D01*
X134740000Y-82670000D01*
X133823012Y-82670000D01*
X133855925Y-82612993D01*
X133887316Y-82495841D01*
X139607100Y-82495841D01*
X139607100Y-82644158D01*
X139636031Y-82789605D01*
X139636033Y-82789613D01*
X139692789Y-82926633D01*
X139775182Y-83049944D01*
X139775188Y-83049951D01*
X139880048Y-83154811D01*
X139880055Y-83154817D01*
X140003366Y-83237210D01*
X140003365Y-83237210D01*
X140028970Y-83247816D01*
X140064503Y-83262534D01*
X140118906Y-83306375D01*
X140140971Y-83372669D01*
X140131612Y-83424546D01*
X140097954Y-83505806D01*
X140097952Y-83505810D01*
X140067100Y-83660916D01*
X140067100Y-83819083D01*
X140097952Y-83974189D01*
X140097955Y-83974198D01*
X140158475Y-84120309D01*
X140158482Y-84120322D01*
X140246346Y-84251818D01*
X140246349Y-84251822D01*
X140358177Y-84363650D01*
X140358181Y-84363653D01*
X140489677Y-84451517D01*
X140489690Y-84451524D01*
X140548410Y-84475846D01*
X140635803Y-84512045D01*
X140635805Y-84512045D01*
X140635810Y-84512047D01*
X140790916Y-84542899D01*
X140790919Y-84542900D01*
X140790921Y-84542900D01*
X140949081Y-84542900D01*
X140949082Y-84542899D01*
X141000785Y-84532615D01*
X141104189Y-84512047D01*
X141104192Y-84512045D01*
X141104197Y-84512045D01*
X141191602Y-84475841D01*
X143777100Y-84475841D01*
X143777100Y-84624158D01*
X143806031Y-84769605D01*
X143806033Y-84769613D01*
X143862789Y-84906633D01*
X143945182Y-85029944D01*
X143945188Y-85029951D01*
X144050048Y-85134811D01*
X144050055Y-85134817D01*
X144173366Y-85217210D01*
X144173367Y-85217210D01*
X144173368Y-85217211D01*
X144310387Y-85273967D01*
X144455841Y-85302899D01*
X144455845Y-85302900D01*
X144455846Y-85302900D01*
X144604155Y-85302900D01*
X144604156Y-85302899D01*
X144749613Y-85273967D01*
X144886632Y-85217211D01*
X145009946Y-85134816D01*
X145114816Y-85029946D01*
X145197211Y-84906632D01*
X145253967Y-84769613D01*
X145276597Y-84655841D01*
X150317100Y-84655841D01*
X150317100Y-84804158D01*
X150346031Y-84949605D01*
X150346033Y-84949613D01*
X150402789Y-85086633D01*
X150485182Y-85209944D01*
X150485188Y-85209951D01*
X150590048Y-85314811D01*
X150590055Y-85314817D01*
X150713366Y-85397210D01*
X150713367Y-85397210D01*
X150713368Y-85397211D01*
X150850387Y-85453967D01*
X150973283Y-85478412D01*
X150995841Y-85482899D01*
X150995845Y-85482900D01*
X150995846Y-85482900D01*
X151144155Y-85482900D01*
X151144156Y-85482899D01*
X151289613Y-85453967D01*
X151426632Y-85397211D01*
X151549946Y-85314816D01*
X151654816Y-85209946D01*
X151737211Y-85086632D01*
X151793967Y-84949613D01*
X151822900Y-84804154D01*
X151822900Y-84655846D01*
X151793967Y-84510387D01*
X151737211Y-84373368D01*
X151730718Y-84363651D01*
X151654817Y-84250055D01*
X151654811Y-84250048D01*
X151549951Y-84145188D01*
X151549944Y-84145182D01*
X151426633Y-84062789D01*
X151289613Y-84006033D01*
X151289605Y-84006031D01*
X151144158Y-83977100D01*
X151144154Y-83977100D01*
X150995846Y-83977100D01*
X150995841Y-83977100D01*
X150850394Y-84006031D01*
X150850386Y-84006033D01*
X150713366Y-84062789D01*
X150590055Y-84145182D01*
X150590048Y-84145188D01*
X150485188Y-84250048D01*
X150485182Y-84250055D01*
X150402789Y-84373366D01*
X150346033Y-84510386D01*
X150346031Y-84510394D01*
X150317100Y-84655841D01*
X145276597Y-84655841D01*
X145282900Y-84624154D01*
X145282900Y-84475846D01*
X145253967Y-84330387D01*
X145197211Y-84193368D01*
X145165018Y-84145188D01*
X145114817Y-84070055D01*
X145114811Y-84070048D01*
X145009951Y-83965188D01*
X145009944Y-83965182D01*
X144886633Y-83882789D01*
X144749613Y-83826033D01*
X144749605Y-83826031D01*
X144604158Y-83797100D01*
X144604154Y-83797100D01*
X144455846Y-83797100D01*
X144455841Y-83797100D01*
X144310394Y-83826031D01*
X144310386Y-83826033D01*
X144173366Y-83882789D01*
X144050055Y-83965182D01*
X144050048Y-83965188D01*
X143945188Y-84070048D01*
X143945182Y-84070055D01*
X143862789Y-84193366D01*
X143806033Y-84330386D01*
X143806031Y-84330394D01*
X143777100Y-84475841D01*
X141191602Y-84475841D01*
X141250316Y-84451521D01*
X141381819Y-84363653D01*
X141493653Y-84251819D01*
X141581521Y-84120316D01*
X141642045Y-83974197D01*
X141643839Y-83965182D01*
X141672899Y-83819083D01*
X141672900Y-83819081D01*
X141672900Y-83660918D01*
X141672899Y-83660916D01*
X141642047Y-83505810D01*
X141642044Y-83505801D01*
X141581524Y-83359690D01*
X141581517Y-83359677D01*
X141493653Y-83228181D01*
X141493650Y-83228177D01*
X141381822Y-83116349D01*
X141381818Y-83116346D01*
X141250322Y-83028482D01*
X141250309Y-83028475D01*
X141138437Y-82982137D01*
X141084033Y-82938296D01*
X141061968Y-82872002D01*
X141071327Y-82820125D01*
X141083967Y-82789613D01*
X141112900Y-82644154D01*
X141112900Y-82495846D01*
X141100541Y-82433713D01*
X159609500Y-82433713D01*
X159609500Y-82646286D01*
X159637032Y-82820120D01*
X159642754Y-82856243D01*
X159705692Y-83049946D01*
X159708444Y-83058414D01*
X159804951Y-83247820D01*
X159929890Y-83419786D01*
X160080213Y-83570109D01*
X160252182Y-83695050D01*
X160260946Y-83699516D01*
X160311742Y-83747491D01*
X160328536Y-83815312D01*
X160305998Y-83881447D01*
X160260946Y-83920484D01*
X160252182Y-83924949D01*
X160080213Y-84049890D01*
X159929890Y-84200213D01*
X159804951Y-84372179D01*
X159708444Y-84561585D01*
X159642753Y-84763760D01*
X159613318Y-84949605D01*
X159609500Y-84973713D01*
X159609500Y-85186287D01*
X159642754Y-85396243D01*
X159670910Y-85482899D01*
X159708444Y-85598414D01*
X159804951Y-85787820D01*
X159929890Y-85959786D01*
X160080213Y-86110109D01*
X160252182Y-86235050D01*
X160260946Y-86239516D01*
X160311742Y-86287491D01*
X160328536Y-86355312D01*
X160305998Y-86421447D01*
X160260946Y-86460484D01*
X160252182Y-86464949D01*
X160080213Y-86589890D01*
X159929890Y-86740213D01*
X159804951Y-86912179D01*
X159708444Y-87101585D01*
X159642753Y-87303760D01*
X159617088Y-87465803D01*
X159609500Y-87513713D01*
X159609500Y-87726287D01*
X159617862Y-87779081D01*
X159642428Y-87934189D01*
X159642754Y-87936243D01*
X159694268Y-88094787D01*
X159708444Y-88138414D01*
X159804951Y-88327820D01*
X159929890Y-88499786D01*
X160080213Y-88650109D01*
X160252182Y-88775050D01*
X160260946Y-88779516D01*
X160311742Y-88827491D01*
X160328536Y-88895312D01*
X160305998Y-88961447D01*
X160260946Y-89000484D01*
X160252182Y-89004949D01*
X160080213Y-89129890D01*
X159929890Y-89280213D01*
X159804951Y-89452179D01*
X159708444Y-89641585D01*
X159642753Y-89843760D01*
X159628506Y-89933713D01*
X159609500Y-90053713D01*
X159609500Y-90266287D01*
X159642754Y-90476243D01*
X159669452Y-90558412D01*
X159708444Y-90678414D01*
X159804951Y-90867820D01*
X159929890Y-91039786D01*
X160080213Y-91190109D01*
X160252179Y-91315048D01*
X160252181Y-91315049D01*
X160252184Y-91315051D01*
X160441588Y-91411557D01*
X160643757Y-91477246D01*
X160853713Y-91510500D01*
X160853714Y-91510500D01*
X161066286Y-91510500D01*
X161066287Y-91510500D01*
X161276243Y-91477246D01*
X161478412Y-91411557D01*
X161667816Y-91315051D01*
X161760805Y-91247491D01*
X161839786Y-91190109D01*
X161839788Y-91190106D01*
X161839792Y-91190104D01*
X161990104Y-91039792D01*
X161990106Y-91039788D01*
X161990109Y-91039786D01*
X162115048Y-90867820D01*
X162115047Y-90867820D01*
X162115051Y-90867816D01*
X162211557Y-90678412D01*
X162277246Y-90476243D01*
X162310500Y-90266287D01*
X162310500Y-90053713D01*
X162277246Y-89843757D01*
X162211557Y-89641588D01*
X162115051Y-89452184D01*
X162115049Y-89452181D01*
X162115048Y-89452179D01*
X161990109Y-89280213D01*
X161839786Y-89129890D01*
X161667820Y-89004951D01*
X161667115Y-89004591D01*
X161659054Y-89000485D01*
X161608259Y-88952512D01*
X161591463Y-88884692D01*
X161613999Y-88818556D01*
X161659054Y-88779515D01*
X161667816Y-88775051D01*
X161689789Y-88759086D01*
X161839786Y-88650109D01*
X161839788Y-88650106D01*
X161839792Y-88650104D01*
X161990104Y-88499792D01*
X161990106Y-88499788D01*
X161990109Y-88499786D01*
X162115048Y-88327820D01*
X162115047Y-88327820D01*
X162115051Y-88327816D01*
X162211557Y-88138412D01*
X162277246Y-87936243D01*
X162310500Y-87726287D01*
X162310500Y-87513713D01*
X162277246Y-87303757D01*
X162211557Y-87101588D01*
X162115051Y-86912184D01*
X162115049Y-86912181D01*
X162115048Y-86912179D01*
X161990109Y-86740213D01*
X161839786Y-86589890D01*
X161667820Y-86464951D01*
X161667115Y-86464591D01*
X161659054Y-86460485D01*
X161608259Y-86412512D01*
X161591463Y-86344692D01*
X161613999Y-86278556D01*
X161659054Y-86239515D01*
X161667816Y-86235051D01*
X161760805Y-86167491D01*
X161839786Y-86110109D01*
X161839788Y-86110106D01*
X161839792Y-86110104D01*
X161990104Y-85959792D01*
X161990106Y-85959788D01*
X161990109Y-85959786D01*
X162115048Y-85787820D01*
X162115047Y-85787820D01*
X162115051Y-85787816D01*
X162211557Y-85598412D01*
X162277246Y-85396243D01*
X162310500Y-85186287D01*
X162310500Y-84973713D01*
X162277246Y-84763757D01*
X162211557Y-84561588D01*
X162115051Y-84372184D01*
X162115049Y-84372181D01*
X162115048Y-84372179D01*
X161990109Y-84200213D01*
X161839786Y-84049890D01*
X161667820Y-83924951D01*
X161667115Y-83924591D01*
X161659054Y-83920485D01*
X161608259Y-83872512D01*
X161591463Y-83804692D01*
X161613999Y-83738556D01*
X161659054Y-83699515D01*
X161667816Y-83695051D01*
X161714792Y-83660921D01*
X161839786Y-83570109D01*
X161839788Y-83570106D01*
X161839792Y-83570104D01*
X161990104Y-83419792D01*
X161990106Y-83419788D01*
X161990109Y-83419786D01*
X162115048Y-83247820D01*
X162115047Y-83247820D01*
X162115051Y-83247816D01*
X162211557Y-83058412D01*
X162277246Y-82856243D01*
X162310500Y-82646287D01*
X162310500Y-82433713D01*
X162277246Y-82223757D01*
X162211557Y-82021588D01*
X162115051Y-81832184D01*
X162115049Y-81832181D01*
X162115048Y-81832179D01*
X161990109Y-81660213D01*
X161876181Y-81546285D01*
X161842696Y-81484962D01*
X161847680Y-81415270D01*
X161889552Y-81359337D01*
X161920529Y-81342422D01*
X162052086Y-81293354D01*
X162052093Y-81293350D01*
X162167187Y-81207190D01*
X162167190Y-81207187D01*
X162253350Y-81092093D01*
X162253354Y-81092086D01*
X162303596Y-80957379D01*
X162303598Y-80957372D01*
X162309999Y-80897844D01*
X162310000Y-80897827D01*
X162310000Y-80250000D01*
X161393012Y-80250000D01*
X161425925Y-80192993D01*
X161460000Y-80065826D01*
X161460000Y-79934174D01*
X161425925Y-79807007D01*
X161393012Y-79750000D01*
X162310000Y-79750000D01*
X162310000Y-79102172D01*
X162309999Y-79102155D01*
X162303598Y-79042627D01*
X162303596Y-79042620D01*
X162253354Y-78907913D01*
X162253350Y-78907906D01*
X162167190Y-78792812D01*
X162167187Y-78792809D01*
X162052093Y-78706649D01*
X162052086Y-78706645D01*
X161917379Y-78656403D01*
X161917372Y-78656401D01*
X161857844Y-78650000D01*
X161210000Y-78650000D01*
X161210000Y-79566988D01*
X161152993Y-79534075D01*
X161025826Y-79500000D01*
X160894174Y-79500000D01*
X160767007Y-79534075D01*
X160710000Y-79566988D01*
X160710000Y-78650000D01*
X160062155Y-78650000D01*
X160002627Y-78656401D01*
X160002620Y-78656403D01*
X159867913Y-78706645D01*
X159867906Y-78706649D01*
X159752812Y-78792809D01*
X159752809Y-78792812D01*
X159666649Y-78907906D01*
X159666645Y-78907913D01*
X159616403Y-79042620D01*
X159616401Y-79042627D01*
X159610000Y-79102155D01*
X159610000Y-79750000D01*
X160526988Y-79750000D01*
X160494075Y-79807007D01*
X160460000Y-79934174D01*
X160460000Y-80065826D01*
X160494075Y-80192993D01*
X160526988Y-80250000D01*
X159610000Y-80250000D01*
X159610000Y-80897844D01*
X159616401Y-80957372D01*
X159616403Y-80957379D01*
X159666645Y-81092086D01*
X159666649Y-81092093D01*
X159752809Y-81207187D01*
X159752812Y-81207190D01*
X159867906Y-81293350D01*
X159867913Y-81293354D01*
X159999470Y-81342422D01*
X160055404Y-81384293D01*
X160079821Y-81449758D01*
X160064969Y-81518031D01*
X160043819Y-81546285D01*
X159929889Y-81660215D01*
X159804951Y-81832179D01*
X159708444Y-82021585D01*
X159642753Y-82223760D01*
X159609500Y-82433713D01*
X141100541Y-82433713D01*
X141083967Y-82350387D01*
X141027211Y-82213368D01*
X141027210Y-82213366D01*
X141024341Y-82207998D01*
X141025913Y-82207157D01*
X141007551Y-82148516D01*
X141026034Y-82081135D01*
X141078012Y-82034444D01*
X141131531Y-82022300D01*
X141214155Y-82022300D01*
X141214156Y-82022299D01*
X141359613Y-81993367D01*
X141496632Y-81936611D01*
X141619946Y-81854216D01*
X141724816Y-81749346D01*
X141807211Y-81626032D01*
X141836286Y-81555841D01*
X143267100Y-81555841D01*
X143267100Y-81704158D01*
X143296031Y-81849605D01*
X143296033Y-81849613D01*
X143352789Y-81986633D01*
X143435182Y-82109944D01*
X143435188Y-82109951D01*
X143540048Y-82214811D01*
X143540055Y-82214817D01*
X143663366Y-82297210D01*
X143663367Y-82297210D01*
X143663368Y-82297211D01*
X143800387Y-82353967D01*
X143938893Y-82381517D01*
X143945841Y-82382899D01*
X143945845Y-82382900D01*
X143945846Y-82382900D01*
X144094155Y-82382900D01*
X144094156Y-82382899D01*
X144239613Y-82353967D01*
X144316910Y-82321948D01*
X144335425Y-82314280D01*
X144347384Y-82309325D01*
X144376632Y-82297211D01*
X144499946Y-82214816D01*
X144604816Y-82109946D01*
X144687211Y-81986632D01*
X144743967Y-81849613D01*
X144772900Y-81704154D01*
X144772900Y-81555846D01*
X144743967Y-81410387D01*
X144687211Y-81273368D01*
X144635011Y-81195245D01*
X144604817Y-81150055D01*
X144604811Y-81150048D01*
X144499951Y-81045188D01*
X144499944Y-81045182D01*
X144376633Y-80962789D01*
X144239613Y-80906033D01*
X144239605Y-80906031D01*
X144094158Y-80877100D01*
X144094154Y-80877100D01*
X143945846Y-80877100D01*
X143945841Y-80877100D01*
X143800394Y-80906031D01*
X143800386Y-80906033D01*
X143663366Y-80962789D01*
X143540055Y-81045182D01*
X143540048Y-81045188D01*
X143435188Y-81150048D01*
X143435182Y-81150055D01*
X143352789Y-81273366D01*
X143296033Y-81410386D01*
X143296031Y-81410394D01*
X143267100Y-81555841D01*
X141836286Y-81555841D01*
X141863967Y-81489013D01*
X141892900Y-81343554D01*
X141892900Y-81195246D01*
X141863967Y-81049787D01*
X141807211Y-80912768D01*
X141797313Y-80897955D01*
X141724817Y-80789455D01*
X141724811Y-80789448D01*
X141619951Y-80684588D01*
X141619944Y-80684582D01*
X141496633Y-80602189D01*
X141359613Y-80545433D01*
X141359605Y-80545431D01*
X141214158Y-80516500D01*
X141214154Y-80516500D01*
X141065846Y-80516500D01*
X141065841Y-80516500D01*
X140920394Y-80545431D01*
X140920386Y-80545433D01*
X140783366Y-80602189D01*
X140660055Y-80684582D01*
X140660048Y-80684588D01*
X140555188Y-80789448D01*
X140555182Y-80789455D01*
X140472789Y-80912766D01*
X140416033Y-81049786D01*
X140416031Y-81049794D01*
X140387100Y-81195241D01*
X140387100Y-81343558D01*
X140416031Y-81489005D01*
X140416033Y-81489013D01*
X140472789Y-81626033D01*
X140475659Y-81631402D01*
X140474086Y-81632242D01*
X140492449Y-81690884D01*
X140473966Y-81758265D01*
X140421988Y-81804956D01*
X140368469Y-81817100D01*
X140285841Y-81817100D01*
X140140394Y-81846031D01*
X140140386Y-81846033D01*
X140003366Y-81902789D01*
X139880055Y-81985182D01*
X139880048Y-81985188D01*
X139775188Y-82090048D01*
X139775182Y-82090055D01*
X139692789Y-82213366D01*
X139636033Y-82350386D01*
X139636031Y-82350394D01*
X139607100Y-82495841D01*
X133887316Y-82495841D01*
X133890000Y-82485826D01*
X133890000Y-82354174D01*
X133855925Y-82227007D01*
X133823012Y-82170000D01*
X134740000Y-82170000D01*
X134740000Y-81590916D01*
X137237100Y-81590916D01*
X137237100Y-81749083D01*
X137267952Y-81904189D01*
X137267955Y-81904198D01*
X137328475Y-82050309D01*
X137328482Y-82050322D01*
X137416346Y-82181818D01*
X137416349Y-82181822D01*
X137528177Y-82293650D01*
X137528181Y-82293653D01*
X137659677Y-82381517D01*
X137659690Y-82381524D01*
X137769273Y-82426914D01*
X137805803Y-82442045D01*
X137805805Y-82442045D01*
X137805810Y-82442047D01*
X137960916Y-82472899D01*
X137960919Y-82472900D01*
X137960921Y-82472900D01*
X138119081Y-82472900D01*
X138119082Y-82472899D01*
X138170785Y-82462615D01*
X138274189Y-82442047D01*
X138274192Y-82442045D01*
X138274197Y-82442045D01*
X138420316Y-82381521D01*
X138551819Y-82293653D01*
X138663653Y-82181819D01*
X138751521Y-82050316D01*
X138812045Y-81904197D01*
X138822903Y-81849613D01*
X138842899Y-81749083D01*
X138842900Y-81749081D01*
X138842900Y-81590918D01*
X138842899Y-81590916D01*
X138812047Y-81435810D01*
X138812044Y-81435801D01*
X138751524Y-81289690D01*
X138751517Y-81289677D01*
X138663653Y-81158181D01*
X138663650Y-81158177D01*
X138551822Y-81046349D01*
X138551818Y-81046346D01*
X138420322Y-80958482D01*
X138420309Y-80958475D01*
X138274198Y-80897955D01*
X138274189Y-80897952D01*
X138119082Y-80867100D01*
X138119079Y-80867100D01*
X137960921Y-80867100D01*
X137960918Y-80867100D01*
X137805810Y-80897952D01*
X137805801Y-80897955D01*
X137659690Y-80958475D01*
X137659677Y-80958482D01*
X137528181Y-81046346D01*
X137528177Y-81046349D01*
X137416349Y-81158177D01*
X137416346Y-81158181D01*
X137328482Y-81289677D01*
X137328475Y-81289690D01*
X137267955Y-81435801D01*
X137267952Y-81435810D01*
X137237100Y-81590916D01*
X134740000Y-81590916D01*
X134740000Y-81522172D01*
X134739999Y-81522155D01*
X134733598Y-81462627D01*
X134733596Y-81462620D01*
X134683354Y-81327913D01*
X134683350Y-81327906D01*
X134597190Y-81212812D01*
X134597187Y-81212809D01*
X134482093Y-81126649D01*
X134482086Y-81126645D01*
X134347379Y-81076403D01*
X134347372Y-81076401D01*
X134287844Y-81070000D01*
X133640000Y-81070000D01*
X133640000Y-81986988D01*
X133582993Y-81954075D01*
X133455826Y-81920000D01*
X133324174Y-81920000D01*
X133197007Y-81954075D01*
X133140000Y-81986988D01*
X133140000Y-81070000D01*
X132492155Y-81070000D01*
X132432627Y-81076401D01*
X132432620Y-81076403D01*
X132297913Y-81126645D01*
X132297906Y-81126649D01*
X132182812Y-81212809D01*
X132182809Y-81212812D01*
X132096649Y-81327906D01*
X132096645Y-81327913D01*
X132046403Y-81462620D01*
X132046401Y-81462627D01*
X132040000Y-81522155D01*
X132040000Y-82170000D01*
X132956988Y-82170000D01*
X132924075Y-82227007D01*
X132890000Y-82354174D01*
X132890000Y-82485826D01*
X132924075Y-82612993D01*
X132956988Y-82670000D01*
X132040000Y-82670000D01*
X132040000Y-83317844D01*
X132046401Y-83377372D01*
X132046403Y-83377379D01*
X132096645Y-83512086D01*
X132096649Y-83512093D01*
X132182809Y-83627187D01*
X132182812Y-83627190D01*
X132297906Y-83713350D01*
X132297913Y-83713354D01*
X132429470Y-83762422D01*
X132485404Y-83804293D01*
X132509821Y-83869758D01*
X132494969Y-83938031D01*
X132473819Y-83966285D01*
X132359889Y-84080215D01*
X132234951Y-84252179D01*
X132138444Y-84441585D01*
X132072753Y-84643760D01*
X132039500Y-84853713D01*
X131580500Y-84853713D01*
X131580500Y-79360916D01*
X154867100Y-79360916D01*
X154867100Y-79519083D01*
X154897952Y-79674189D01*
X154897955Y-79674198D01*
X154958475Y-79820309D01*
X154958482Y-79820322D01*
X155046346Y-79951818D01*
X155046349Y-79951822D01*
X155158177Y-80063650D01*
X155158181Y-80063653D01*
X155289677Y-80151517D01*
X155289690Y-80151524D01*
X155389807Y-80192993D01*
X155435803Y-80212045D01*
X155435805Y-80212045D01*
X155435810Y-80212047D01*
X155590916Y-80242899D01*
X155590919Y-80242900D01*
X155590921Y-80242900D01*
X155749081Y-80242900D01*
X155749082Y-80242899D01*
X155800785Y-80232615D01*
X155904189Y-80212047D01*
X155904192Y-80212045D01*
X155904197Y-80212045D01*
X156050316Y-80151521D01*
X156181819Y-80063653D01*
X156293653Y-79951819D01*
X156381521Y-79820316D01*
X156442045Y-79674197D01*
X156456824Y-79599901D01*
X156472899Y-79519083D01*
X156472900Y-79519081D01*
X156472900Y-79360918D01*
X156472899Y-79360916D01*
X156442047Y-79205810D01*
X156442045Y-79205807D01*
X156442045Y-79205803D01*
X156399113Y-79102155D01*
X156381524Y-79059690D01*
X156381517Y-79059677D01*
X156293653Y-78928181D01*
X156293650Y-78928177D01*
X156181822Y-78816349D01*
X156181818Y-78816346D01*
X156050322Y-78728482D01*
X156050309Y-78728475D01*
X155904198Y-78667955D01*
X155904189Y-78667952D01*
X155749082Y-78637100D01*
X155749079Y-78637100D01*
X155590921Y-78637100D01*
X155590918Y-78637100D01*
X155435810Y-78667952D01*
X155435801Y-78667955D01*
X155289690Y-78728475D01*
X155289677Y-78728482D01*
X155158181Y-78816346D01*
X155158177Y-78816349D01*
X155046349Y-78928177D01*
X155046346Y-78928181D01*
X154958482Y-79059677D01*
X154958475Y-79059690D01*
X154897955Y-79205801D01*
X154897952Y-79205810D01*
X154867100Y-79360916D01*
X131580500Y-79360916D01*
X131580500Y-77105841D01*
X151887100Y-77105841D01*
X151887100Y-77254158D01*
X151916031Y-77399605D01*
X151916033Y-77399613D01*
X151972789Y-77536633D01*
X152055182Y-77659944D01*
X152055188Y-77659951D01*
X152160048Y-77764811D01*
X152160055Y-77764817D01*
X152283366Y-77847210D01*
X152283367Y-77847210D01*
X152283368Y-77847211D01*
X152420387Y-77903967D01*
X152565841Y-77932899D01*
X152565845Y-77932900D01*
X152565846Y-77932900D01*
X152714155Y-77932900D01*
X152714156Y-77932899D01*
X152859613Y-77903967D01*
X152996632Y-77847211D01*
X153119946Y-77764816D01*
X153224816Y-77659946D01*
X153307211Y-77536632D01*
X153363967Y-77399613D01*
X153392900Y-77254154D01*
X153392900Y-77105846D01*
X153388921Y-77085841D01*
X156237100Y-77085841D01*
X156237100Y-77234158D01*
X156266031Y-77379605D01*
X156266033Y-77379613D01*
X156322789Y-77516633D01*
X156405182Y-77639944D01*
X156405188Y-77639951D01*
X156510048Y-77744811D01*
X156510055Y-77744817D01*
X156633366Y-77827210D01*
X156633367Y-77827210D01*
X156633368Y-77827211D01*
X156770387Y-77883967D01*
X156915841Y-77912899D01*
X156915845Y-77912900D01*
X156915846Y-77912900D01*
X157064155Y-77912900D01*
X157064156Y-77912899D01*
X157209613Y-77883967D01*
X157346632Y-77827211D01*
X157469946Y-77744816D01*
X157574816Y-77639946D01*
X157657211Y-77516632D01*
X157713967Y-77379613D01*
X157742900Y-77234154D01*
X157742900Y-77085846D01*
X157713967Y-76940387D01*
X157657211Y-76803368D01*
X157655293Y-76800498D01*
X157574817Y-76680055D01*
X157574811Y-76680048D01*
X157469951Y-76575188D01*
X157469944Y-76575182D01*
X157346633Y-76492789D01*
X157209613Y-76436033D01*
X157209605Y-76436031D01*
X157064158Y-76407100D01*
X157064154Y-76407100D01*
X156915846Y-76407100D01*
X156915841Y-76407100D01*
X156770394Y-76436031D01*
X156770386Y-76436033D01*
X156633366Y-76492789D01*
X156510055Y-76575182D01*
X156510048Y-76575188D01*
X156405188Y-76680048D01*
X156405182Y-76680055D01*
X156322789Y-76803366D01*
X156266033Y-76940386D01*
X156266031Y-76940394D01*
X156237100Y-77085841D01*
X153388921Y-77085841D01*
X153363967Y-76960387D01*
X153307211Y-76823368D01*
X153293846Y-76803366D01*
X153224817Y-76700055D01*
X153224811Y-76700048D01*
X153119951Y-76595188D01*
X153119944Y-76595182D01*
X152996633Y-76512789D01*
X152859613Y-76456033D01*
X152859605Y-76456031D01*
X152714158Y-76427100D01*
X152714154Y-76427100D01*
X152565846Y-76427100D01*
X152565841Y-76427100D01*
X152420394Y-76456031D01*
X152420386Y-76456033D01*
X152283366Y-76512789D01*
X152160055Y-76595182D01*
X152160048Y-76595188D01*
X152055188Y-76700048D01*
X152055182Y-76700055D01*
X151972789Y-76823366D01*
X151916033Y-76960386D01*
X151916031Y-76960394D01*
X151887100Y-77105841D01*
X131580500Y-77105841D01*
X131580500Y-75438243D01*
X131583139Y-75412797D01*
X131587490Y-75392045D01*
X131627551Y-75200983D01*
X131629123Y-75194394D01*
X131647614Y-75125385D01*
X131648500Y-75122251D01*
X131720028Y-74881995D01*
X133279500Y-74881995D01*
X133279500Y-75118004D01*
X133279501Y-75118020D01*
X133310306Y-75352010D01*
X133371394Y-75579993D01*
X133461714Y-75798045D01*
X133461719Y-75798056D01*
X133532677Y-75920957D01*
X133579727Y-76002450D01*
X133579729Y-76002452D01*
X133579730Y-76002454D01*
X133723406Y-76189697D01*
X133723412Y-76189704D01*
X133890295Y-76356587D01*
X133890301Y-76356592D01*
X134077550Y-76500273D01*
X134207296Y-76575182D01*
X134281943Y-76618280D01*
X134281948Y-76618282D01*
X134281951Y-76618284D01*
X134500007Y-76708606D01*
X134727986Y-76769693D01*
X134961989Y-76800500D01*
X134961996Y-76800500D01*
X135198004Y-76800500D01*
X135198011Y-76800500D01*
X135432014Y-76769693D01*
X135659993Y-76708606D01*
X135878049Y-76618284D01*
X136082450Y-76500273D01*
X136269699Y-76356592D01*
X136436592Y-76189699D01*
X136500275Y-76106705D01*
X136512448Y-76090841D01*
X144902100Y-76090841D01*
X144902100Y-76239158D01*
X144931031Y-76384605D01*
X144931033Y-76384613D01*
X144987789Y-76521633D01*
X145070182Y-76644944D01*
X145070188Y-76644951D01*
X145175048Y-76749811D01*
X145175055Y-76749817D01*
X145298366Y-76832210D01*
X145298367Y-76832210D01*
X145298368Y-76832211D01*
X145435387Y-76888967D01*
X145580841Y-76917899D01*
X145580845Y-76917900D01*
X145580846Y-76917900D01*
X145729155Y-76917900D01*
X145729156Y-76917899D01*
X145874613Y-76888967D01*
X146011632Y-76832211D01*
X146134946Y-76749816D01*
X146239816Y-76644946D01*
X146322211Y-76521632D01*
X146378967Y-76384613D01*
X146407900Y-76239154D01*
X146407900Y-76090846D01*
X146378967Y-75945387D01*
X146322211Y-75808368D01*
X146315313Y-75798045D01*
X146239817Y-75685055D01*
X146239811Y-75685048D01*
X146134951Y-75580188D01*
X146134944Y-75580182D01*
X146011633Y-75497789D01*
X145874613Y-75441033D01*
X145874605Y-75441031D01*
X145729158Y-75412100D01*
X145729154Y-75412100D01*
X145580846Y-75412100D01*
X145580841Y-75412100D01*
X145435394Y-75441031D01*
X145435386Y-75441033D01*
X145298366Y-75497789D01*
X145175055Y-75580182D01*
X145175048Y-75580188D01*
X145070188Y-75685048D01*
X145070182Y-75685055D01*
X144987789Y-75808366D01*
X144931033Y-75945386D01*
X144931031Y-75945394D01*
X144902100Y-76090841D01*
X136512448Y-76090841D01*
X136575042Y-76009268D01*
X136576609Y-76007223D01*
X136580273Y-76002450D01*
X136698284Y-75798049D01*
X136788606Y-75579993D01*
X136849693Y-75352014D01*
X136880500Y-75118011D01*
X136880500Y-74881989D01*
X136849693Y-74647986D01*
X136821004Y-74540916D01*
X152817100Y-74540916D01*
X152817100Y-74699083D01*
X152847952Y-74854189D01*
X152847955Y-74854198D01*
X152908475Y-75000309D01*
X152908482Y-75000322D01*
X152996346Y-75131818D01*
X152996349Y-75131822D01*
X153108177Y-75243650D01*
X153108181Y-75243653D01*
X153239677Y-75331517D01*
X153239690Y-75331524D01*
X153339686Y-75372943D01*
X153385803Y-75392045D01*
X153385805Y-75392045D01*
X153385810Y-75392047D01*
X153540916Y-75422899D01*
X153540919Y-75422900D01*
X153540921Y-75422900D01*
X153699081Y-75422900D01*
X153699082Y-75422899D01*
X153753374Y-75412100D01*
X153854189Y-75392047D01*
X153854192Y-75392045D01*
X153854197Y-75392045D01*
X154000316Y-75331521D01*
X154131819Y-75243653D01*
X154243653Y-75131819D01*
X154331521Y-75000316D01*
X154380531Y-74881995D01*
X157579500Y-74881995D01*
X157579500Y-75118004D01*
X157579501Y-75118020D01*
X157610306Y-75352010D01*
X157671394Y-75579993D01*
X157761714Y-75798045D01*
X157761719Y-75798056D01*
X157832677Y-75920957D01*
X157879727Y-76002450D01*
X157879729Y-76002452D01*
X157879730Y-76002454D01*
X158023406Y-76189697D01*
X158023412Y-76189704D01*
X158190295Y-76356587D01*
X158190301Y-76356592D01*
X158377550Y-76500273D01*
X158507296Y-76575182D01*
X158581943Y-76618280D01*
X158581948Y-76618282D01*
X158581951Y-76618284D01*
X158800007Y-76708606D01*
X159027986Y-76769693D01*
X159261989Y-76800500D01*
X159261996Y-76800500D01*
X159498004Y-76800500D01*
X159498011Y-76800500D01*
X159732014Y-76769693D01*
X159959993Y-76708606D01*
X160178049Y-76618284D01*
X160382450Y-76500273D01*
X160569699Y-76356592D01*
X160736592Y-76189699D01*
X160880273Y-76002450D01*
X160998284Y-75798049D01*
X161088606Y-75579993D01*
X161149693Y-75352014D01*
X161180500Y-75118011D01*
X161180500Y-74881989D01*
X161149693Y-74647986D01*
X161088606Y-74420007D01*
X160998284Y-74201951D01*
X160998282Y-74201948D01*
X160998280Y-74201943D01*
X160944146Y-74108181D01*
X160880273Y-73997550D01*
X160736592Y-73810301D01*
X160736587Y-73810295D01*
X160569704Y-73643412D01*
X160569697Y-73643406D01*
X160382454Y-73499730D01*
X160382453Y-73499729D01*
X160382450Y-73499727D01*
X160300957Y-73452677D01*
X160178056Y-73381719D01*
X160178045Y-73381714D01*
X159959993Y-73291394D01*
X159732010Y-73230306D01*
X159498020Y-73199501D01*
X159498017Y-73199500D01*
X159498011Y-73199500D01*
X159261989Y-73199500D01*
X159261983Y-73199500D01*
X159261979Y-73199501D01*
X159027989Y-73230306D01*
X158800006Y-73291394D01*
X158581954Y-73381714D01*
X158581943Y-73381719D01*
X158377545Y-73499730D01*
X158190302Y-73643406D01*
X158190295Y-73643412D01*
X158023412Y-73810295D01*
X158023406Y-73810302D01*
X157879730Y-73997545D01*
X157761719Y-74201943D01*
X157761714Y-74201954D01*
X157671394Y-74420006D01*
X157610306Y-74647989D01*
X157579501Y-74881979D01*
X157579500Y-74881995D01*
X154380531Y-74881995D01*
X154392045Y-74854197D01*
X154392095Y-74853942D01*
X154392138Y-74853732D01*
X154392138Y-74853730D01*
X154415563Y-74735964D01*
X154422900Y-74699079D01*
X154422900Y-74540921D01*
X154422900Y-74540918D01*
X154422899Y-74540916D01*
X154392047Y-74385810D01*
X154392044Y-74385801D01*
X154331524Y-74239690D01*
X154331517Y-74239677D01*
X154243653Y-74108181D01*
X154243650Y-74108177D01*
X154131822Y-73996349D01*
X154131818Y-73996346D01*
X154000322Y-73908482D01*
X154000309Y-73908475D01*
X153854198Y-73847955D01*
X153854189Y-73847952D01*
X153699082Y-73817100D01*
X153699079Y-73817100D01*
X153540921Y-73817100D01*
X153540918Y-73817100D01*
X153385810Y-73847952D01*
X153385801Y-73847955D01*
X153239690Y-73908475D01*
X153239677Y-73908482D01*
X153108181Y-73996346D01*
X153108177Y-73996349D01*
X152996349Y-74108177D01*
X152996346Y-74108181D01*
X152908482Y-74239677D01*
X152908475Y-74239690D01*
X152847955Y-74385801D01*
X152847952Y-74385810D01*
X152817100Y-74540916D01*
X136821004Y-74540916D01*
X136788606Y-74420007D01*
X136698284Y-74201951D01*
X136698282Y-74201948D01*
X136698280Y-74201943D01*
X136644146Y-74108181D01*
X136580273Y-73997550D01*
X136436592Y-73810301D01*
X136436587Y-73810295D01*
X136269704Y-73643412D01*
X136269697Y-73643406D01*
X136082454Y-73499730D01*
X136082453Y-73499729D01*
X136082450Y-73499727D01*
X136000957Y-73452677D01*
X135878056Y-73381719D01*
X135878045Y-73381714D01*
X135659993Y-73291394D01*
X135432010Y-73230306D01*
X135198020Y-73199501D01*
X135198017Y-73199500D01*
X135198011Y-73199500D01*
X134961989Y-73199500D01*
X134961983Y-73199500D01*
X134961979Y-73199501D01*
X134727989Y-73230306D01*
X134500006Y-73291394D01*
X134281954Y-73381714D01*
X134281943Y-73381719D01*
X134077545Y-73499730D01*
X133890302Y-73643406D01*
X133890295Y-73643412D01*
X133723412Y-73810295D01*
X133723406Y-73810302D01*
X133579730Y-73997545D01*
X133461719Y-74201943D01*
X133461714Y-74201954D01*
X133371394Y-74420006D01*
X133310306Y-74647989D01*
X133279501Y-74881979D01*
X133279500Y-74881995D01*
X131720028Y-74881995D01*
X131745392Y-74796800D01*
X131747685Y-74789862D01*
X131767331Y-74735886D01*
X131768276Y-74733380D01*
X131896976Y-74403551D01*
X131900079Y-74396292D01*
X131914634Y-74365080D01*
X131915415Y-74363445D01*
X132080823Y-74025097D01*
X132085690Y-74016105D01*
X132291973Y-73669918D01*
X132297556Y-73661372D01*
X132531728Y-73333394D01*
X132537996Y-73325342D01*
X132798443Y-73017832D01*
X132805362Y-73010316D01*
X133090316Y-72725362D01*
X133097832Y-72718443D01*
X133405342Y-72457996D01*
X133413394Y-72451728D01*
X133741372Y-72217556D01*
X133749918Y-72211973D01*
X134096116Y-72005683D01*
X134105097Y-72000823D01*
X134443445Y-71835415D01*
X134445080Y-71834634D01*
X134476292Y-71820079D01*
X134483551Y-71816976D01*
X134813380Y-71688276D01*
X134815886Y-71687331D01*
X134869862Y-71667685D01*
X134876810Y-71665389D01*
X135202251Y-71568500D01*
X135205385Y-71567614D01*
X135274394Y-71549123D01*
X135280982Y-71547551D01*
X135492799Y-71503139D01*
X135518245Y-71500500D01*
X158941755Y-71500500D01*
X158967201Y-71503139D01*
G37*
%TD.AperFunction*%
%TD*%
M02*
