%TF.GenerationSoftware,KiCad,Pcbnew,9.0.3*%
%TF.CreationDate,2025-09-02T10:47:08-04:00*%
%TF.ProjectId,simon,73696d6f-6e2e-46b6-9963-61645f706362,rev?*%
%TF.SameCoordinates,Original*%
%TF.FileFunction,Soldermask,Top*%
%TF.FilePolarity,Negative*%
%FSLAX46Y46*%
G04 Gerber Fmt 4.6, Leading zero omitted, Abs format (unit mm)*
G04 Created by KiCad (PCBNEW 9.0.3) date 2025-09-02 10:47:08*
%MOMM*%
%LPD*%
G01*
G04 APERTURE LIST*
G04 Aperture macros list*
%AMRoundRect*
0 Rectangle with rounded corners*
0 $1 Rounding radius*
0 $2 $3 $4 $5 $6 $7 $8 $9 X,Y pos of 4 corners*
0 Add a 4 corners polygon primitive as box body*
4,1,4,$2,$3,$4,$5,$6,$7,$8,$9,$2,$3,0*
0 Add four circle primitives for the rounded corners*
1,1,$1+$1,$2,$3*
1,1,$1+$1,$4,$5*
1,1,$1+$1,$6,$7*
1,1,$1+$1,$8,$9*
0 Add four rect primitives between the rounded corners*
20,1,$1+$1,$2,$3,$4,$5,0*
20,1,$1+$1,$4,$5,$6,$7,0*
20,1,$1+$1,$6,$7,$8,$9,0*
20,1,$1+$1,$8,$9,$2,$3,0*%
G04 Aperture macros list end*
%ADD10R,0.350000X0.250000*%
%ADD11RoundRect,0.087500X-0.187500X-0.087500X0.187500X-0.087500X0.187500X0.087500X-0.187500X0.087500X0*%
%ADD12RoundRect,0.087500X-0.087500X-0.187500X0.087500X-0.187500X0.087500X0.187500X-0.087500X0.187500X0*%
%ADD13R,0.250000X0.350000*%
%ADD14R,0.508000X1.117600*%
%ADD15R,0.750000X0.600000*%
%ADD16R,0.600000X0.700000*%
%ADD17R,1.000000X0.599999*%
%ADD18R,0.700000X0.600000*%
%ADD19C,2.600000*%
%ADD20C,3.500000*%
%ADD21R,1.475000X0.300000*%
%ADD22R,0.300000X1.475000*%
%ADD23R,0.711200X0.279400*%
%ADD24R,0.990600X1.701800*%
%ADD25RoundRect,0.150000X-0.150000X-0.200000X0.150000X-0.200000X0.150000X0.200000X-0.150000X0.200000X0*%
%ADD26RoundRect,0.100000X-0.225000X-0.100000X0.225000X-0.100000X0.225000X0.100000X-0.225000X0.100000X0*%
%ADD27RoundRect,0.102000X1.125000X0.850000X-1.125000X0.850000X-1.125000X-0.850000X1.125000X-0.850000X0*%
%ADD28R,1.400000X0.680000*%
%ADD29C,1.950000*%
%ADD30C,1.020000*%
%ADD31R,1.700000X1.700000*%
%ADD32C,1.700000*%
G04 APERTURE END LIST*
D10*
%TO.C,R204*%
X146920000Y-99920000D03*
X146920000Y-100470000D03*
%TD*%
D11*
%TO.C,U301*%
X155737500Y-86505000D03*
X155737500Y-87005000D03*
X155737500Y-87505000D03*
X155737500Y-88005000D03*
X155737500Y-88505000D03*
D12*
X156462500Y-88730000D03*
X156962500Y-88730000D03*
X157462500Y-88730000D03*
D11*
X158187500Y-88505000D03*
X158187500Y-88005000D03*
X158187500Y-87505000D03*
X158187500Y-87005000D03*
X158187500Y-86505000D03*
D12*
X157462500Y-86280000D03*
X156962500Y-86280000D03*
X156462500Y-86280000D03*
%TD*%
D13*
%TO.C,C404*%
X137295000Y-78090000D03*
X137845000Y-78090000D03*
%TD*%
D10*
%TO.C,C410*%
X141130000Y-82200000D03*
X141130000Y-82750000D03*
%TD*%
D14*
%TO.C,Q301*%
X158050001Y-94492000D03*
X156149999Y-94492000D03*
X157100000Y-96270000D03*
%TD*%
D15*
%TO.C,Y402*%
X138855000Y-79075000D03*
X139905000Y-79075000D03*
X139905000Y-78275000D03*
X138855000Y-78275000D03*
%TD*%
D13*
%TO.C,C401*%
X138490000Y-76990000D03*
X139040000Y-76990000D03*
%TD*%
%TO.C,C409*%
X145205000Y-73200000D03*
X144655000Y-73200000D03*
%TD*%
%TO.C,C403*%
X137340000Y-79170000D03*
X137890000Y-79170000D03*
%TD*%
D16*
%TO.C,C202*%
X140795000Y-98470000D03*
X141795000Y-98470000D03*
%TD*%
D17*
%TO.C,U202*%
X149470000Y-99170001D03*
X149470000Y-100120002D03*
X149470000Y-101070000D03*
X152220000Y-101070000D03*
X152220000Y-99170001D03*
%TD*%
D13*
%TO.C,R301*%
X154295000Y-88840000D03*
X154845000Y-88840000D03*
%TD*%
D16*
%TO.C,C201*%
X139095000Y-98470000D03*
X138095000Y-98470000D03*
%TD*%
D18*
%TO.C,C203*%
X148020000Y-99270000D03*
X148020000Y-100270000D03*
%TD*%
%TO.C,C204*%
X153720000Y-100370000D03*
X153720000Y-99370000D03*
%TD*%
D19*
%TO.C,N301*%
X135080000Y-75000000D03*
D20*
X135080000Y-75000000D03*
D19*
X135080000Y-106800000D03*
D20*
X135080000Y-106800000D03*
D19*
X159380000Y-75000000D03*
D20*
X159380000Y-75000000D03*
D19*
X159380000Y-106800000D03*
D20*
X159380000Y-106800000D03*
%TD*%
D13*
%TO.C,C407*%
X151555000Y-87675000D03*
X152105000Y-87675000D03*
%TD*%
%TO.C,R401*%
X139705000Y-81725000D03*
X140255000Y-81725000D03*
%TD*%
D10*
%TO.C,R304*%
X158080000Y-93315000D03*
X158080000Y-92765000D03*
%TD*%
%TO.C,R203*%
X142295000Y-100270000D03*
X142295000Y-100820000D03*
%TD*%
%TO.C,C405*%
X141130000Y-80725000D03*
X141130000Y-80175000D03*
%TD*%
D21*
%TO.C,U401*%
X142642000Y-76687000D03*
X142642000Y-77187000D03*
X142642000Y-77687000D03*
X142642000Y-78187000D03*
X142642000Y-78687000D03*
X142642000Y-79187000D03*
X142642000Y-79687000D03*
X142642000Y-80187000D03*
X142642000Y-80687000D03*
X142642000Y-81187000D03*
X142642000Y-81687000D03*
X142642000Y-82187000D03*
X142642000Y-82687000D03*
X142642000Y-83187000D03*
X142642000Y-83687000D03*
X142642000Y-84187000D03*
D22*
X144630000Y-86175000D03*
X145130000Y-86175000D03*
X145630000Y-86175000D03*
X146130000Y-86175000D03*
X146630000Y-86175000D03*
X147130000Y-86175000D03*
X147630000Y-86175000D03*
X148130000Y-86175000D03*
X148630000Y-86175000D03*
X149130000Y-86175000D03*
X149630000Y-86175000D03*
X150130000Y-86175000D03*
X150630000Y-86175000D03*
X151130000Y-86175000D03*
X151630000Y-86175000D03*
X152130000Y-86175000D03*
D21*
X154118000Y-84187000D03*
X154118000Y-83687000D03*
X154118000Y-83187000D03*
X154118000Y-82687000D03*
X154118000Y-82187000D03*
X154118000Y-81687000D03*
X154118000Y-81187000D03*
X154118000Y-80687000D03*
X154118000Y-80187000D03*
X154118000Y-79687000D03*
X154118000Y-79187000D03*
X154118000Y-78687000D03*
X154118000Y-78187000D03*
X154118000Y-77687000D03*
X154118000Y-77187000D03*
X154118000Y-76687000D03*
D22*
X152130000Y-74699000D03*
X151630000Y-74699000D03*
X151130000Y-74699000D03*
X150630000Y-74699000D03*
X150130000Y-74699000D03*
X149630000Y-74699000D03*
X149130000Y-74699000D03*
X148630000Y-74699000D03*
X148130000Y-74699000D03*
X147630000Y-74699000D03*
X147130000Y-74699000D03*
X146630000Y-74699000D03*
X146130000Y-74699000D03*
X145630000Y-74699000D03*
X145130000Y-74699000D03*
X144630000Y-74699000D03*
%TD*%
D13*
%TO.C,C402*%
X138475000Y-75120000D03*
X139025000Y-75120000D03*
%TD*%
D23*
%TO.C,U201*%
X139091700Y-99719811D03*
X139091700Y-100219937D03*
X139091700Y-100720063D03*
X139091700Y-101220189D03*
X141098300Y-101220189D03*
X141098300Y-100720063D03*
X141098300Y-100219937D03*
X141098300Y-99719811D03*
D24*
X140095000Y-100470000D03*
%TD*%
D25*
%TO.C,D301*%
X159667500Y-97100000D03*
X158267500Y-97100000D03*
%TD*%
D10*
%TO.C,C408*%
X155730000Y-77150000D03*
X155730000Y-76600000D03*
%TD*%
%TO.C,R202*%
X137895000Y-100770000D03*
X137895000Y-101320000D03*
%TD*%
%TO.C,R201*%
X136995000Y-100770000D03*
X136995000Y-101320000D03*
%TD*%
%TO.C,R303*%
X157260000Y-93310000D03*
X157260000Y-92760000D03*
%TD*%
D26*
%TO.C,U203*%
X143620000Y-99745000D03*
X143620000Y-100395000D03*
X143620000Y-101045000D03*
X145520000Y-101045000D03*
X145520000Y-100395000D03*
X145520000Y-99745000D03*
%TD*%
D10*
%TO.C,R403*%
X150630000Y-87625000D03*
X150630000Y-88175000D03*
%TD*%
D16*
%TO.C,C301*%
X156437500Y-85080000D03*
X157437500Y-85080000D03*
%TD*%
D27*
%TO.C,LS301*%
X161020000Y-99120000D03*
X156770000Y-99120000D03*
X161020000Y-102620000D03*
%TD*%
D10*
%TO.C,R402*%
X138950000Y-80550000D03*
X138950000Y-80000000D03*
%TD*%
D13*
%TO.C,R302*%
X154255000Y-86510000D03*
X154805000Y-86510000D03*
%TD*%
D10*
%TO.C,R404*%
X140330000Y-80725000D03*
X140330000Y-80175000D03*
%TD*%
D28*
%TO.C,Y401*%
X140430000Y-76925000D03*
X140430000Y-75345000D03*
%TD*%
D13*
%TO.C,C406*%
X145155000Y-87675000D03*
X145705000Y-87675000D03*
%TD*%
D29*
%TO.C,J201*%
X151265000Y-108295000D03*
X151265000Y-105295000D03*
D30*
X149620000Y-105395000D03*
X143120000Y-105395000D03*
D29*
X141475000Y-108295000D03*
X141475000Y-105295000D03*
%TD*%
D31*
%TO.C,J301*%
X133390000Y-82420000D03*
D32*
X133390000Y-84960000D03*
X133390000Y-87500000D03*
X133390000Y-90040000D03*
X133390000Y-92580000D03*
X133390000Y-95120000D03*
X133390000Y-97660000D03*
X133390000Y-100200000D03*
%TD*%
D31*
%TO.C,J401*%
X160960000Y-80000000D03*
D32*
X160960000Y-82540000D03*
X160960000Y-85080000D03*
X160960000Y-87620000D03*
X160960000Y-90160000D03*
%TD*%
M02*
