%TF.GenerationSoftware,KiCad,Pcbnew,9.0.3*%
%TF.CreationDate,2025-09-02T10:47:08-04:00*%
%TF.ProjectId,simon,73696d6f-6e2e-46b6-9963-61645f706362,rev?*%
%TF.SameCoordinates,Original*%
%TF.FileFunction,Legend,Bot*%
%TF.FilePolarity,Positive*%
%FSLAX46Y46*%
G04 Gerber Fmt 4.6, Leading zero omitted, Abs format (unit mm)*
G04 Created by KiCad (PCBNEW 9.0.3) date 2025-09-02 10:47:08*
%MOMM*%
%LPD*%
G01*
G04 APERTURE LIST*
G04 Aperture macros list*
%AMRoundRect*
0 Rectangle with rounded corners*
0 $1 Rounding radius*
0 $2 $3 $4 $5 $6 $7 $8 $9 X,Y pos of 4 corners*
0 Add a 4 corners polygon primitive as box body*
4,1,4,$2,$3,$4,$5,$6,$7,$8,$9,$2,$3,0*
0 Add four circle primitives for the rounded corners*
1,1,$1+$1,$2,$3*
1,1,$1+$1,$4,$5*
1,1,$1+$1,$6,$7*
1,1,$1+$1,$8,$9*
0 Add four rect primitives between the rounded corners*
20,1,$1+$1,$2,$3,$4,$5,0*
20,1,$1+$1,$4,$5,$6,$7,0*
20,1,$1+$1,$6,$7,$8,$9,0*
20,1,$1+$1,$8,$9,$2,$3,0*%
G04 Aperture macros list end*
%ADD10C,0.158750*%
%ADD11C,0.150000*%
%ADD12C,0.100000*%
%ADD13C,0.200000*%
%ADD14C,0.120000*%
%ADD15C,2.600000*%
%ADD16C,3.500000*%
%ADD17C,1.950000*%
%ADD18C,1.020000*%
%ADD19R,0.600000X1.550000*%
%ADD20R,0.300000X1.550000*%
%ADD21R,1.700000X1.700000*%
%ADD22C,1.700000*%
%ADD23RoundRect,0.150000X0.150000X0.200000X-0.150000X0.200000X-0.150000X-0.200000X0.150000X-0.200000X0*%
%ADD24RoundRect,0.250000X-1.500000X0.250000X-1.500000X-0.250000X1.500000X-0.250000X1.500000X0.250000X0*%
%ADD25RoundRect,0.250001X-1.449999X0.499999X-1.449999X-0.499999X1.449999X-0.499999X1.449999X0.499999X0*%
G04 APERTURE END LIST*
D10*
X157751631Y-79509271D02*
X156965440Y-79509271D01*
X156965440Y-79509271D02*
X157388774Y-79993080D01*
X157388774Y-79993080D02*
X157207345Y-79993080D01*
X157207345Y-79993080D02*
X157086393Y-80053556D01*
X157086393Y-80053556D02*
X157025917Y-80114033D01*
X157025917Y-80114033D02*
X156965440Y-80234985D01*
X156965440Y-80234985D02*
X156965440Y-80537366D01*
X156965440Y-80537366D02*
X157025917Y-80658318D01*
X157025917Y-80658318D02*
X157086393Y-80718795D01*
X157086393Y-80718795D02*
X157207345Y-80779271D01*
X157207345Y-80779271D02*
X157570202Y-80779271D01*
X157570202Y-80779271D02*
X157691155Y-80718795D01*
X157691155Y-80718795D02*
X157751631Y-80658318D01*
X156602583Y-79509271D02*
X156179250Y-80779271D01*
X156179250Y-80779271D02*
X155755916Y-79509271D01*
X155453536Y-79509271D02*
X154667345Y-79509271D01*
X154667345Y-79509271D02*
X155090679Y-79993080D01*
X155090679Y-79993080D02*
X154909250Y-79993080D01*
X154909250Y-79993080D02*
X154788298Y-80053556D01*
X154788298Y-80053556D02*
X154727822Y-80114033D01*
X154727822Y-80114033D02*
X154667345Y-80234985D01*
X154667345Y-80234985D02*
X154667345Y-80537366D01*
X154667345Y-80537366D02*
X154727822Y-80658318D01*
X154727822Y-80658318D02*
X154788298Y-80718795D01*
X154788298Y-80718795D02*
X154909250Y-80779271D01*
X154909250Y-80779271D02*
X155272107Y-80779271D01*
X155272107Y-80779271D02*
X155393060Y-80718795D01*
X155393060Y-80718795D02*
X155453536Y-80658318D01*
D11*
X157696911Y-82934250D02*
X157515482Y-82994726D01*
X157515482Y-82994726D02*
X157213101Y-82994726D01*
X157213101Y-82994726D02*
X157092149Y-82934250D01*
X157092149Y-82934250D02*
X157031673Y-82873773D01*
X157031673Y-82873773D02*
X156971196Y-82752821D01*
X156971196Y-82752821D02*
X156971196Y-82631869D01*
X156971196Y-82631869D02*
X157031673Y-82510916D01*
X157031673Y-82510916D02*
X157092149Y-82450440D01*
X157092149Y-82450440D02*
X157213101Y-82389964D01*
X157213101Y-82389964D02*
X157455006Y-82329488D01*
X157455006Y-82329488D02*
X157575958Y-82269011D01*
X157575958Y-82269011D02*
X157636435Y-82208535D01*
X157636435Y-82208535D02*
X157696911Y-82087583D01*
X157696911Y-82087583D02*
X157696911Y-81966630D01*
X157696911Y-81966630D02*
X157636435Y-81845678D01*
X157636435Y-81845678D02*
X157575958Y-81785202D01*
X157575958Y-81785202D02*
X157455006Y-81724726D01*
X157455006Y-81724726D02*
X157152625Y-81724726D01*
X157152625Y-81724726D02*
X156971196Y-81785202D01*
X156547863Y-81724726D02*
X156245482Y-82994726D01*
X156245482Y-82994726D02*
X156003577Y-82087583D01*
X156003577Y-82087583D02*
X155761672Y-82994726D01*
X155761672Y-82994726D02*
X155459292Y-81724726D01*
X154975482Y-82994726D02*
X154975482Y-81724726D01*
X154975482Y-81724726D02*
X154673101Y-81724726D01*
X154673101Y-81724726D02*
X154491672Y-81785202D01*
X154491672Y-81785202D02*
X154370720Y-81906154D01*
X154370720Y-81906154D02*
X154310243Y-82027107D01*
X154310243Y-82027107D02*
X154249767Y-82269011D01*
X154249767Y-82269011D02*
X154249767Y-82450440D01*
X154249767Y-82450440D02*
X154310243Y-82692345D01*
X154310243Y-82692345D02*
X154370720Y-82813297D01*
X154370720Y-82813297D02*
X154491672Y-82934250D01*
X154491672Y-82934250D02*
X154673101Y-82994726D01*
X154673101Y-82994726D02*
X154975482Y-82994726D01*
X153705482Y-82994726D02*
X153705482Y-81724726D01*
X152858815Y-81724726D02*
X152616910Y-81724726D01*
X152616910Y-81724726D02*
X152495958Y-81785202D01*
X152495958Y-81785202D02*
X152375005Y-81906154D01*
X152375005Y-81906154D02*
X152314529Y-82148059D01*
X152314529Y-82148059D02*
X152314529Y-82571392D01*
X152314529Y-82571392D02*
X152375005Y-82813297D01*
X152375005Y-82813297D02*
X152495958Y-82934250D01*
X152495958Y-82934250D02*
X152616910Y-82994726D01*
X152616910Y-82994726D02*
X152858815Y-82994726D01*
X152858815Y-82994726D02*
X152979767Y-82934250D01*
X152979767Y-82934250D02*
X153100720Y-82813297D01*
X153100720Y-82813297D02*
X153161196Y-82571392D01*
X153161196Y-82571392D02*
X153161196Y-82148059D01*
X153161196Y-82148059D02*
X153100720Y-81906154D01*
X153100720Y-81906154D02*
X152979767Y-81785202D01*
X152979767Y-81785202D02*
X152858815Y-81724726D01*
D10*
X157691155Y-85438795D02*
X157509726Y-85499271D01*
X157509726Y-85499271D02*
X157207345Y-85499271D01*
X157207345Y-85499271D02*
X157086393Y-85438795D01*
X157086393Y-85438795D02*
X157025917Y-85378318D01*
X157025917Y-85378318D02*
X156965440Y-85257366D01*
X156965440Y-85257366D02*
X156965440Y-85136414D01*
X156965440Y-85136414D02*
X157025917Y-85015461D01*
X157025917Y-85015461D02*
X157086393Y-84954985D01*
X157086393Y-84954985D02*
X157207345Y-84894509D01*
X157207345Y-84894509D02*
X157449250Y-84834033D01*
X157449250Y-84834033D02*
X157570202Y-84773556D01*
X157570202Y-84773556D02*
X157630679Y-84713080D01*
X157630679Y-84713080D02*
X157691155Y-84592128D01*
X157691155Y-84592128D02*
X157691155Y-84471175D01*
X157691155Y-84471175D02*
X157630679Y-84350223D01*
X157630679Y-84350223D02*
X157570202Y-84289747D01*
X157570202Y-84289747D02*
X157449250Y-84229271D01*
X157449250Y-84229271D02*
X157146869Y-84229271D01*
X157146869Y-84229271D02*
X156965440Y-84289747D01*
X156542107Y-84229271D02*
X156239726Y-85499271D01*
X156239726Y-85499271D02*
X155997821Y-84592128D01*
X155997821Y-84592128D02*
X155755916Y-85499271D01*
X155755916Y-85499271D02*
X155453536Y-84229271D01*
X154244011Y-85378318D02*
X154304487Y-85438795D01*
X154304487Y-85438795D02*
X154485916Y-85499271D01*
X154485916Y-85499271D02*
X154606868Y-85499271D01*
X154606868Y-85499271D02*
X154788297Y-85438795D01*
X154788297Y-85438795D02*
X154909249Y-85317842D01*
X154909249Y-85317842D02*
X154969726Y-85196890D01*
X154969726Y-85196890D02*
X155030202Y-84954985D01*
X155030202Y-84954985D02*
X155030202Y-84773556D01*
X155030202Y-84773556D02*
X154969726Y-84531652D01*
X154969726Y-84531652D02*
X154909249Y-84410699D01*
X154909249Y-84410699D02*
X154788297Y-84289747D01*
X154788297Y-84289747D02*
X154606868Y-84229271D01*
X154606868Y-84229271D02*
X154485916Y-84229271D01*
X154485916Y-84229271D02*
X154304487Y-84289747D01*
X154304487Y-84289747D02*
X154244011Y-84350223D01*
X153094964Y-85499271D02*
X153699726Y-85499271D01*
X153699726Y-85499271D02*
X153699726Y-84229271D01*
X152671631Y-85499271D02*
X152671631Y-84229271D01*
X151945916Y-85499271D02*
X152490202Y-84773556D01*
X151945916Y-84229271D02*
X152671631Y-84954985D01*
X157630679Y-88174271D02*
X157630679Y-86904271D01*
X157630679Y-86904271D02*
X156904964Y-88174271D01*
X156904964Y-88174271D02*
X156904964Y-86904271D01*
X155574488Y-88174271D02*
X155997822Y-87569509D01*
X156300203Y-88174271D02*
X156300203Y-86904271D01*
X156300203Y-86904271D02*
X155816393Y-86904271D01*
X155816393Y-86904271D02*
X155695441Y-86964747D01*
X155695441Y-86964747D02*
X155634964Y-87025223D01*
X155634964Y-87025223D02*
X155574488Y-87146175D01*
X155574488Y-87146175D02*
X155574488Y-87327604D01*
X155574488Y-87327604D02*
X155634964Y-87448556D01*
X155634964Y-87448556D02*
X155695441Y-87509033D01*
X155695441Y-87509033D02*
X155816393Y-87569509D01*
X155816393Y-87569509D02*
X156300203Y-87569509D01*
X155090679Y-88113795D02*
X154909250Y-88174271D01*
X154909250Y-88174271D02*
X154606869Y-88174271D01*
X154606869Y-88174271D02*
X154485917Y-88113795D01*
X154485917Y-88113795D02*
X154425441Y-88053318D01*
X154425441Y-88053318D02*
X154364964Y-87932366D01*
X154364964Y-87932366D02*
X154364964Y-87811414D01*
X154364964Y-87811414D02*
X154425441Y-87690461D01*
X154425441Y-87690461D02*
X154485917Y-87629985D01*
X154485917Y-87629985D02*
X154606869Y-87569509D01*
X154606869Y-87569509D02*
X154848774Y-87509033D01*
X154848774Y-87509033D02*
X154969726Y-87448556D01*
X154969726Y-87448556D02*
X155030203Y-87388080D01*
X155030203Y-87388080D02*
X155090679Y-87267128D01*
X155090679Y-87267128D02*
X155090679Y-87146175D01*
X155090679Y-87146175D02*
X155030203Y-87025223D01*
X155030203Y-87025223D02*
X154969726Y-86964747D01*
X154969726Y-86964747D02*
X154848774Y-86904271D01*
X154848774Y-86904271D02*
X154546393Y-86904271D01*
X154546393Y-86904271D02*
X154364964Y-86964747D01*
X154002107Y-86904271D02*
X153276393Y-86904271D01*
X153639250Y-88174271D02*
X153639250Y-86904271D01*
X156965440Y-89584747D02*
X157086393Y-89524271D01*
X157086393Y-89524271D02*
X157267821Y-89524271D01*
X157267821Y-89524271D02*
X157449250Y-89584747D01*
X157449250Y-89584747D02*
X157570202Y-89705699D01*
X157570202Y-89705699D02*
X157630679Y-89826652D01*
X157630679Y-89826652D02*
X157691155Y-90068556D01*
X157691155Y-90068556D02*
X157691155Y-90249985D01*
X157691155Y-90249985D02*
X157630679Y-90491890D01*
X157630679Y-90491890D02*
X157570202Y-90612842D01*
X157570202Y-90612842D02*
X157449250Y-90733795D01*
X157449250Y-90733795D02*
X157267821Y-90794271D01*
X157267821Y-90794271D02*
X157146869Y-90794271D01*
X157146869Y-90794271D02*
X156965440Y-90733795D01*
X156965440Y-90733795D02*
X156904964Y-90673318D01*
X156904964Y-90673318D02*
X156904964Y-90249985D01*
X156904964Y-90249985D02*
X157146869Y-90249985D01*
X156360679Y-90794271D02*
X156360679Y-89524271D01*
X156360679Y-89524271D02*
X155634964Y-90794271D01*
X155634964Y-90794271D02*
X155634964Y-89524271D01*
X155030203Y-90794271D02*
X155030203Y-89524271D01*
X155030203Y-89524271D02*
X154727822Y-89524271D01*
X154727822Y-89524271D02*
X154546393Y-89584747D01*
X154546393Y-89584747D02*
X154425441Y-89705699D01*
X154425441Y-89705699D02*
X154364964Y-89826652D01*
X154364964Y-89826652D02*
X154304488Y-90068556D01*
X154304488Y-90068556D02*
X154304488Y-90249985D01*
X154304488Y-90249985D02*
X154364964Y-90491890D01*
X154364964Y-90491890D02*
X154425441Y-90612842D01*
X154425441Y-90612842D02*
X154546393Y-90733795D01*
X154546393Y-90733795D02*
X154727822Y-90794271D01*
X154727822Y-90794271D02*
X155030203Y-90794271D01*
D12*
X159040000Y-81260000D02*
X149550000Y-81260000D01*
X159040000Y-83570000D02*
X149550000Y-83570000D01*
X159040000Y-86270000D02*
X149550000Y-86270000D01*
X159040000Y-88920000D02*
X149550000Y-88920000D01*
X149550000Y-79140000D02*
X159040000Y-79140000D01*
X159040000Y-79140000D02*
X159040000Y-91510000D01*
X159040000Y-91510000D02*
X149550000Y-91510000D01*
X149550000Y-91510000D02*
X149550000Y-79140000D01*
D11*
X147655714Y-106249819D02*
X147655714Y-106964104D01*
X147655714Y-106964104D02*
X147703333Y-107106961D01*
X147703333Y-107106961D02*
X147798571Y-107202200D01*
X147798571Y-107202200D02*
X147941428Y-107249819D01*
X147941428Y-107249819D02*
X148036666Y-107249819D01*
X147227142Y-106345057D02*
X147179523Y-106297438D01*
X147179523Y-106297438D02*
X147084285Y-106249819D01*
X147084285Y-106249819D02*
X146846190Y-106249819D01*
X146846190Y-106249819D02*
X146750952Y-106297438D01*
X146750952Y-106297438D02*
X146703333Y-106345057D01*
X146703333Y-106345057D02*
X146655714Y-106440295D01*
X146655714Y-106440295D02*
X146655714Y-106535533D01*
X146655714Y-106535533D02*
X146703333Y-106678390D01*
X146703333Y-106678390D02*
X147274761Y-107249819D01*
X147274761Y-107249819D02*
X146655714Y-107249819D01*
X146036666Y-106249819D02*
X145941428Y-106249819D01*
X145941428Y-106249819D02*
X145846190Y-106297438D01*
X145846190Y-106297438D02*
X145798571Y-106345057D01*
X145798571Y-106345057D02*
X145750952Y-106440295D01*
X145750952Y-106440295D02*
X145703333Y-106630771D01*
X145703333Y-106630771D02*
X145703333Y-106868866D01*
X145703333Y-106868866D02*
X145750952Y-107059342D01*
X145750952Y-107059342D02*
X145798571Y-107154580D01*
X145798571Y-107154580D02*
X145846190Y-107202200D01*
X145846190Y-107202200D02*
X145941428Y-107249819D01*
X145941428Y-107249819D02*
X146036666Y-107249819D01*
X146036666Y-107249819D02*
X146131904Y-107202200D01*
X146131904Y-107202200D02*
X146179523Y-107154580D01*
X146179523Y-107154580D02*
X146227142Y-107059342D01*
X146227142Y-107059342D02*
X146274761Y-106868866D01*
X146274761Y-106868866D02*
X146274761Y-106630771D01*
X146274761Y-106630771D02*
X146227142Y-106440295D01*
X146227142Y-106440295D02*
X146179523Y-106345057D01*
X146179523Y-106345057D02*
X146131904Y-106297438D01*
X146131904Y-106297438D02*
X146036666Y-106249819D01*
X144750952Y-107249819D02*
X145322380Y-107249819D01*
X145036666Y-107249819D02*
X145036666Y-106249819D01*
X145036666Y-106249819D02*
X145131904Y-106392676D01*
X145131904Y-106392676D02*
X145227142Y-106487914D01*
X145227142Y-106487914D02*
X145322380Y-106535533D01*
X142570475Y-101084819D02*
X142570475Y-100084819D01*
X142570475Y-100084819D02*
X142332380Y-100084819D01*
X142332380Y-100084819D02*
X142189523Y-100132438D01*
X142189523Y-100132438D02*
X142094285Y-100227676D01*
X142094285Y-100227676D02*
X142046666Y-100322914D01*
X142046666Y-100322914D02*
X141999047Y-100513390D01*
X141999047Y-100513390D02*
X141999047Y-100656247D01*
X141999047Y-100656247D02*
X142046666Y-100846723D01*
X142046666Y-100846723D02*
X142094285Y-100941961D01*
X142094285Y-100941961D02*
X142189523Y-101037200D01*
X142189523Y-101037200D02*
X142332380Y-101084819D01*
X142332380Y-101084819D02*
X142570475Y-101084819D01*
X141618094Y-100180057D02*
X141570475Y-100132438D01*
X141570475Y-100132438D02*
X141475237Y-100084819D01*
X141475237Y-100084819D02*
X141237142Y-100084819D01*
X141237142Y-100084819D02*
X141141904Y-100132438D01*
X141141904Y-100132438D02*
X141094285Y-100180057D01*
X141094285Y-100180057D02*
X141046666Y-100275295D01*
X141046666Y-100275295D02*
X141046666Y-100370533D01*
X141046666Y-100370533D02*
X141094285Y-100513390D01*
X141094285Y-100513390D02*
X141665713Y-101084819D01*
X141665713Y-101084819D02*
X141046666Y-101084819D01*
X140427618Y-100084819D02*
X140332380Y-100084819D01*
X140332380Y-100084819D02*
X140237142Y-100132438D01*
X140237142Y-100132438D02*
X140189523Y-100180057D01*
X140189523Y-100180057D02*
X140141904Y-100275295D01*
X140141904Y-100275295D02*
X140094285Y-100465771D01*
X140094285Y-100465771D02*
X140094285Y-100703866D01*
X140094285Y-100703866D02*
X140141904Y-100894342D01*
X140141904Y-100894342D02*
X140189523Y-100989580D01*
X140189523Y-100989580D02*
X140237142Y-101037200D01*
X140237142Y-101037200D02*
X140332380Y-101084819D01*
X140332380Y-101084819D02*
X140427618Y-101084819D01*
X140427618Y-101084819D02*
X140522856Y-101037200D01*
X140522856Y-101037200D02*
X140570475Y-100989580D01*
X140570475Y-100989580D02*
X140618094Y-100894342D01*
X140618094Y-100894342D02*
X140665713Y-100703866D01*
X140665713Y-100703866D02*
X140665713Y-100465771D01*
X140665713Y-100465771D02*
X140618094Y-100275295D01*
X140618094Y-100275295D02*
X140570475Y-100180057D01*
X140570475Y-100180057D02*
X140522856Y-100132438D01*
X140522856Y-100132438D02*
X140427618Y-100084819D01*
X139141904Y-101084819D02*
X139713332Y-101084819D01*
X139427618Y-101084819D02*
X139427618Y-100084819D01*
X139427618Y-100084819D02*
X139522856Y-100227676D01*
X139522856Y-100227676D02*
X139618094Y-100322914D01*
X139618094Y-100322914D02*
X139713332Y-100370533D01*
D13*
%TO.C,J201*%
X141370000Y-103546000D02*
X141370000Y-103858000D01*
X141370000Y-109608000D02*
X141370000Y-110195000D01*
X142370000Y-103546000D02*
X141370000Y-103546000D01*
X150370000Y-103546000D02*
X151370000Y-103546000D01*
X151370000Y-103546000D02*
X151370000Y-103858000D01*
X151370000Y-110195000D02*
X151370000Y-109608000D01*
D14*
%TO.C,J301*%
X132010000Y-83690000D02*
X132010000Y-101580000D01*
X134770000Y-81040000D02*
X133390000Y-81040000D01*
X134770000Y-82420000D02*
X134770000Y-81040000D01*
X134770000Y-83690000D02*
X132010000Y-83690000D01*
X134770000Y-83690000D02*
X134770000Y-101580000D01*
X134770000Y-101580000D02*
X132010000Y-101580000D01*
%TO.C,D201*%
X142820000Y-101330000D02*
X142820000Y-100130000D01*
X144780000Y-100130000D02*
X142820000Y-100130000D01*
X144780000Y-101330000D02*
X142820000Y-101330000D01*
%TO.C,J401*%
X159580000Y-81270000D02*
X159580000Y-91540000D01*
X162340000Y-78620000D02*
X160960000Y-78620000D01*
X162340000Y-80000000D02*
X162340000Y-78620000D01*
X162340000Y-81270000D02*
X159580000Y-81270000D01*
X162340000Y-81270000D02*
X162340000Y-91540000D01*
X162340000Y-91540000D02*
X159580000Y-91540000D01*
%TO.C,J202*%
X153470000Y-92950000D02*
X153470000Y-93970000D01*
X153470000Y-93970000D02*
X155070000Y-93970000D01*
X153470000Y-100050000D02*
X155070000Y-100050000D01*
X153470000Y-101070000D02*
X153470000Y-100050000D01*
X155070000Y-93970000D02*
X155070000Y-95250000D01*
X155070000Y-95250000D02*
X152180000Y-95250000D01*
X155070000Y-100050000D02*
X155070000Y-98770000D01*
X157720000Y-92950000D02*
X153470000Y-92950000D01*
X157720000Y-101070000D02*
X153470000Y-101070000D01*
X161290000Y-94670000D02*
X161290000Y-99350000D01*
%TD*%
%LPC*%
D15*
%TO.C,N301*%
X135080000Y-75000000D03*
D16*
X135080000Y-75000000D03*
D15*
X135080000Y-106800000D03*
D16*
X135080000Y-106800000D03*
D15*
X159380000Y-75000000D03*
D16*
X159380000Y-75000000D03*
D15*
X159380000Y-106800000D03*
D16*
X159380000Y-106800000D03*
%TD*%
D17*
%TO.C,J201*%
X151265000Y-108295000D03*
X151265000Y-105295000D03*
D18*
X149620000Y-105395000D03*
X143120000Y-105395000D03*
D17*
X141475000Y-108295000D03*
X141475000Y-105295000D03*
D19*
X149570000Y-103321000D03*
X148770000Y-103321000D03*
D20*
X147620000Y-103321000D03*
X146620000Y-103321000D03*
X146120000Y-103321000D03*
X145120000Y-103321000D03*
D19*
X143970000Y-103321000D03*
X143170000Y-103321000D03*
D20*
X144620000Y-103321000D03*
X145620000Y-103321000D03*
X147120000Y-103321000D03*
X148120000Y-103321000D03*
%TD*%
D21*
%TO.C,J301*%
X133390000Y-82420000D03*
D22*
X133390000Y-84960000D03*
X133390000Y-87500000D03*
X133390000Y-90040000D03*
X133390000Y-92580000D03*
X133390000Y-95120000D03*
X133390000Y-97660000D03*
X133390000Y-100200000D03*
%TD*%
D23*
%TO.C,D201*%
X143380000Y-100730000D03*
X144780000Y-100730000D03*
%TD*%
D21*
%TO.C,J401*%
X160960000Y-80000000D03*
D22*
X160960000Y-82540000D03*
X160960000Y-85080000D03*
X160960000Y-87620000D03*
X160960000Y-90160000D03*
%TD*%
D24*
%TO.C,J202*%
X153930000Y-96010000D03*
X153930000Y-98010000D03*
D25*
X159680000Y-93660000D03*
X159680000Y-100360000D03*
%TD*%
%LPD*%
M02*
