%TF.GenerationSoftware,KiCad,Pcbnew,9.0.3*%
%TF.CreationDate,2025-09-02T10:47:08-04:00*%
%TF.ProjectId,simon,73696d6f-6e2e-46b6-9963-61645f706362,rev?*%
%TF.SameCoordinates,Original*%
%TF.FileFunction,Copper,L1,Top*%
%TF.FilePolarity,Positive*%
%FSLAX46Y46*%
G04 Gerber Fmt 4.6, Leading zero omitted, Abs format (unit mm)*
G04 Created by KiCad (PCBNEW 9.0.3) date 2025-09-02 10:47:08*
%MOMM*%
%LPD*%
G01*
G04 APERTURE LIST*
G04 Aperture macros list*
%AMRoundRect*
0 Rectangle with rounded corners*
0 $1 Rounding radius*
0 $2 $3 $4 $5 $6 $7 $8 $9 X,Y pos of 4 corners*
0 Add a 4 corners polygon primitive as box body*
4,1,4,$2,$3,$4,$5,$6,$7,$8,$9,$2,$3,0*
0 Add four circle primitives for the rounded corners*
1,1,$1+$1,$2,$3*
1,1,$1+$1,$4,$5*
1,1,$1+$1,$6,$7*
1,1,$1+$1,$8,$9*
0 Add four rect primitives between the rounded corners*
20,1,$1+$1,$2,$3,$4,$5,0*
20,1,$1+$1,$4,$5,$6,$7,0*
20,1,$1+$1,$6,$7,$8,$9,0*
20,1,$1+$1,$8,$9,$2,$3,0*%
G04 Aperture macros list end*
%TA.AperFunction,SMDPad,CuDef*%
%ADD10R,0.350000X0.250000*%
%TD*%
%TA.AperFunction,SMDPad,CuDef*%
%ADD11RoundRect,0.087500X-0.187500X-0.087500X0.187500X-0.087500X0.187500X0.087500X-0.187500X0.087500X0*%
%TD*%
%TA.AperFunction,SMDPad,CuDef*%
%ADD12RoundRect,0.087500X-0.087500X-0.187500X0.087500X-0.187500X0.087500X0.187500X-0.087500X0.187500X0*%
%TD*%
%TA.AperFunction,SMDPad,CuDef*%
%ADD13R,0.250000X0.350000*%
%TD*%
%TA.AperFunction,SMDPad,CuDef*%
%ADD14R,0.508000X1.117600*%
%TD*%
%TA.AperFunction,SMDPad,CuDef*%
%ADD15R,0.750000X0.600000*%
%TD*%
%TA.AperFunction,SMDPad,CuDef*%
%ADD16R,0.600000X0.700000*%
%TD*%
%TA.AperFunction,SMDPad,CuDef*%
%ADD17R,1.000000X0.599999*%
%TD*%
%TA.AperFunction,SMDPad,CuDef*%
%ADD18R,0.700000X0.600000*%
%TD*%
%TA.AperFunction,ComponentPad*%
%ADD19C,2.600000*%
%TD*%
%TA.AperFunction,ConnectorPad*%
%ADD20C,3.500000*%
%TD*%
%TA.AperFunction,SMDPad,CuDef*%
%ADD21R,1.475000X0.300000*%
%TD*%
%TA.AperFunction,SMDPad,CuDef*%
%ADD22R,0.300000X1.475000*%
%TD*%
%TA.AperFunction,SMDPad,CuDef*%
%ADD23R,0.711200X0.279400*%
%TD*%
%TA.AperFunction,SMDPad,CuDef*%
%ADD24R,0.990600X1.701800*%
%TD*%
%TA.AperFunction,SMDPad,CuDef*%
%ADD25RoundRect,0.150000X-0.150000X-0.200000X0.150000X-0.200000X0.150000X0.200000X-0.150000X0.200000X0*%
%TD*%
%TA.AperFunction,SMDPad,CuDef*%
%ADD26RoundRect,0.100000X-0.225000X-0.100000X0.225000X-0.100000X0.225000X0.100000X-0.225000X0.100000X0*%
%TD*%
%TA.AperFunction,SMDPad,CuDef*%
%ADD27R,2.250000X1.700000*%
%TD*%
%TA.AperFunction,SMDPad,CuDef*%
%ADD28R,1.400000X0.680000*%
%TD*%
%TA.AperFunction,ComponentPad*%
%ADD29C,1.950000*%
%TD*%
%TA.AperFunction,ComponentPad*%
%ADD30R,1.700000X1.700000*%
%TD*%
%TA.AperFunction,ComponentPad*%
%ADD31C,1.700000*%
%TD*%
%TA.AperFunction,ViaPad*%
%ADD32C,0.504800*%
%TD*%
%TA.AperFunction,ViaPad*%
%ADD33C,0.604800*%
%TD*%
%TA.AperFunction,ViaPad*%
%ADD34C,0.704800*%
%TD*%
%TA.AperFunction,Conductor*%
%ADD35C,0.152400*%
%TD*%
%TA.AperFunction,Conductor*%
%ADD36C,0.203200*%
%TD*%
%TA.AperFunction,Conductor*%
%ADD37C,0.304800*%
%TD*%
%TA.AperFunction,Conductor*%
%ADD38C,0.508000*%
%TD*%
%TA.AperFunction,Conductor*%
%ADD39C,0.762000*%
%TD*%
%TA.AperFunction,Conductor*%
%ADD40C,0.254000*%
%TD*%
G04 APERTURE END LIST*
D10*
%TO.P,R204,1*%
%TO.N,/power/3V7*%
X146920000Y-99920000D03*
%TO.P,R204,2*%
%TO.N,Net-(U202-EN)*%
X146920000Y-100470000D03*
%TD*%
D11*
%TO.P,U301,1,VDD_IO*%
%TO.N,3V3*%
X155737500Y-86505000D03*
%TO.P,U301,2,NC*%
%TO.N,unconnected-(U301-NC-Pad2)*%
X155737500Y-87005000D03*
%TO.P,U301,3,NC*%
%TO.N,unconnected-(U301-NC-Pad3)*%
X155737500Y-87505000D03*
%TO.P,U301,4,SPC*%
%TO.N,/IO/accel_scl*%
X155737500Y-88005000D03*
%TO.P,U301,5,GND*%
%TO.N,GND*%
X155737500Y-88505000D03*
D12*
%TO.P,U301,6,SDI*%
%TO.N,/IO/accel_sda*%
X156462500Y-88730000D03*
%TO.P,U301,7,SDO*%
%TO.N,GND*%
X156962500Y-88730000D03*
%TO.P,U301,8,CS*%
%TO.N,3V3*%
X157462500Y-88730000D03*
D11*
%TO.P,U301,9,INT2*%
%TO.N,GND*%
X158187500Y-88505000D03*
%TO.P,U301,10,GND*%
X158187500Y-88005000D03*
%TO.P,U301,11,INT1*%
X158187500Y-87505000D03*
%TO.P,U301,12,GND*%
X158187500Y-87005000D03*
%TO.P,U301,13,ADC3*%
X158187500Y-86505000D03*
D12*
%TO.P,U301,14,VDD*%
%TO.N,3V3*%
X157462500Y-86280000D03*
%TO.P,U301,15,ADC2*%
%TO.N,GND*%
X156962500Y-86280000D03*
%TO.P,U301,16,ADC1*%
X156462500Y-86280000D03*
%TD*%
D13*
%TO.P,C404,1*%
%TO.N,GND*%
X137295000Y-78090000D03*
%TO.P,C404,2*%
%TO.N,/mcu/OSC_IN*%
X137845000Y-78090000D03*
%TD*%
D10*
%TO.P,C410,1*%
%TO.N,GND*%
X141130000Y-82200000D03*
%TO.P,C410,2*%
%TO.N,3V3*%
X141130000Y-82750000D03*
%TD*%
D14*
%TO.P,Q301,1,G*%
%TO.N,Net-(Q301-G)*%
X158050001Y-94492000D03*
%TO.P,Q301,2,S*%
%TO.N,GND*%
X156149999Y-94492000D03*
%TO.P,Q301,3,D*%
%TO.N,Net-(D301-A)*%
X157100000Y-96270000D03*
%TD*%
D15*
%TO.P,Y402,1*%
%TO.N,Net-(C403-Pad2)*%
X138855000Y-79075000D03*
%TO.P,Y402,2*%
%TO.N,unconnected-(Y402-Pad2)*%
X139905000Y-79075000D03*
%TO.P,Y402,3*%
%TO.N,/mcu/OSC_IN*%
X139905000Y-78275000D03*
%TO.P,Y402,4*%
%TO.N,unconnected-(Y402-Pad4)*%
X138855000Y-78275000D03*
%TD*%
D13*
%TO.P,C401,1*%
%TO.N,GND*%
X138490000Y-76990000D03*
%TO.P,C401,2*%
%TO.N,/mcu/OSC32_OUT*%
X139040000Y-76990000D03*
%TD*%
%TO.P,C409,1*%
%TO.N,GND*%
X145205000Y-73200000D03*
%TO.P,C409,2*%
%TO.N,3V3*%
X144655000Y-73200000D03*
%TD*%
%TO.P,C403,1*%
%TO.N,GND*%
X137340000Y-79170000D03*
%TO.P,C403,2*%
%TO.N,Net-(C403-Pad2)*%
X137890000Y-79170000D03*
%TD*%
D16*
%TO.P,C202,1*%
%TO.N,GND*%
X140795000Y-98470000D03*
%TO.P,C202,2*%
%TO.N,/power/3V7_LIPO_EXT*%
X141795000Y-98470000D03*
%TD*%
D17*
%TO.P,U202,1,IN*%
%TO.N,/power/3V7*%
X149470000Y-99170001D03*
%TO.P,U202,2,GND*%
%TO.N,GND*%
X149470000Y-100120002D03*
%TO.P,U202,3,EN*%
%TO.N,Net-(U202-EN)*%
X149470000Y-101070000D03*
%TO.P,U202,4,NC*%
%TO.N,unconnected-(U202-NC-Pad4)*%
X152220000Y-101070000D03*
%TO.P,U202,5,OUT*%
%TO.N,3V3*%
X152220000Y-99170001D03*
%TD*%
D13*
%TO.P,R301,1*%
%TO.N,3V3*%
X154295000Y-88840000D03*
%TO.P,R301,2*%
%TO.N,/IO/accel_sda*%
X154845000Y-88840000D03*
%TD*%
D16*
%TO.P,C201,1*%
%TO.N,GND*%
X139095000Y-98470000D03*
%TO.P,C201,2*%
%TO.N,/power/5V*%
X138095000Y-98470000D03*
%TD*%
D18*
%TO.P,C203,1*%
%TO.N,/power/3V7*%
X148020000Y-99270000D03*
%TO.P,C203,2*%
%TO.N,GND*%
X148020000Y-100270000D03*
%TD*%
%TO.P,C204,1*%
%TO.N,GND*%
X153720000Y-100370000D03*
%TO.P,C204,2*%
%TO.N,3V3*%
X153720000Y-99370000D03*
%TD*%
D19*
%TO.P,N301,1*%
%TO.N,N/C*%
X135080000Y-75000000D03*
D20*
X135080000Y-75000000D03*
D19*
X135080000Y-106800000D03*
D20*
X135080000Y-106800000D03*
D19*
X159380000Y-75000000D03*
D20*
X159380000Y-75000000D03*
D19*
X159380000Y-106800000D03*
D20*
X159380000Y-106800000D03*
%TD*%
D13*
%TO.P,C407,1*%
%TO.N,GND*%
X151555000Y-87675000D03*
%TO.P,C407,2*%
%TO.N,3V3*%
X152105000Y-87675000D03*
%TD*%
%TO.P,R401,1*%
%TO.N,/IO/display_mosi*%
X139705000Y-81725000D03*
%TO.P,R401,2*%
%TO.N,Net-(U401A-PC3)*%
X140255000Y-81725000D03*
%TD*%
D10*
%TO.P,R304,1*%
%TO.N,Net-(Q301-G)*%
X158080000Y-93315000D03*
%TO.P,R304,2*%
%TO.N,GND*%
X158080000Y-92765000D03*
%TD*%
%TO.P,R203,1*%
%TO.N,Net-(U201-VSET)*%
X142295000Y-100270000D03*
%TO.P,R203,2*%
%TO.N,GND*%
X142295000Y-100820000D03*
%TD*%
%TO.P,C405,1*%
%TO.N,GND*%
X141130000Y-80725000D03*
%TO.P,C405,2*%
%TO.N,/mcu/NRST*%
X141130000Y-80175000D03*
%TD*%
D21*
%TO.P,U401,1,VBAT*%
%TO.N,unconnected-(U401B-VBAT-Pad1)*%
X142642000Y-76687000D03*
%TO.P,U401,2,PC13*%
%TO.N,unconnected-(U401A-PC13-Pad2)*%
X142642000Y-77187000D03*
%TO.P,U401,3,PC14*%
%TO.N,/mcu/OSC32_IN*%
X142642000Y-77687000D03*
%TO.P,U401,4,PC15*%
%TO.N,/mcu/OSC32_OUT*%
X142642000Y-78187000D03*
%TO.P,U401,5,PH0*%
%TO.N,/mcu/OSC_IN*%
X142642000Y-78687000D03*
%TO.P,U401,6,PH1*%
%TO.N,/mcu/OSC_OUT*%
X142642000Y-79187000D03*
%TO.P,U401,7,NRST*%
%TO.N,/mcu/NRST*%
X142642000Y-79687000D03*
%TO.P,U401,8,PC0*%
%TO.N,unconnected-(U401A-PC0-Pad8)*%
X142642000Y-80187000D03*
%TO.P,U401,9,PC1*%
%TO.N,unconnected-(U401A-PC1-Pad9)*%
X142642000Y-80687000D03*
%TO.P,U401,10,PC2*%
%TO.N,unconnected-(U401A-PC2-Pad10)*%
X142642000Y-81187000D03*
%TO.P,U401,11,PC3*%
%TO.N,Net-(U401A-PC3)*%
X142642000Y-81687000D03*
%TO.P,U401,12,VSSA/VREF-*%
%TO.N,GND*%
X142642000Y-82187000D03*
%TO.P,U401,13,VDDA/VREF+*%
%TO.N,3V3*%
X142642000Y-82687000D03*
%TO.P,U401,14,PA0*%
%TO.N,/IO/buzzer_pwm*%
X142642000Y-83187000D03*
%TO.P,U401,15,PA1*%
%TO.N,unconnected-(U401A-PA1-Pad15)*%
X142642000Y-83687000D03*
%TO.P,U401,16,PA2*%
%TO.N,/IO/display_bl*%
X142642000Y-84187000D03*
D22*
%TO.P,U401,17,PA3*%
%TO.N,unconnected-(U401A-PA3-Pad17)*%
X144630000Y-86175000D03*
%TO.P,U401,18,VSS*%
%TO.N,GND*%
X145130000Y-86175000D03*
%TO.P,U401,19,VDD*%
%TO.N,3V3*%
X145630000Y-86175000D03*
%TO.P,U401,20,PA4*%
%TO.N,/IO/display_dc*%
X146130000Y-86175000D03*
%TO.P,U401,21,PA5*%
%TO.N,unconnected-(U401A-PA5-Pad21)*%
X146630000Y-86175000D03*
%TO.P,U401,22,PA6*%
%TO.N,/IO/display_nrst*%
X147130000Y-86175000D03*
%TO.P,U401,23,PA7*%
%TO.N,unconnected-(U401A-PA7-Pad23)*%
X147630000Y-86175000D03*
%TO.P,U401,24,PC4*%
%TO.N,unconnected-(U401A-PC4-Pad24)*%
X148130000Y-86175000D03*
%TO.P,U401,25,PC5*%
%TO.N,unconnected-(U401A-PC5-Pad25)*%
X148630000Y-86175000D03*
%TO.P,U401,26,PB0*%
%TO.N,unconnected-(U401A-PB0-Pad26)*%
X149130000Y-86175000D03*
%TO.P,U401,27,PB1*%
%TO.N,unconnected-(U401A-PB1-Pad27)*%
X149630000Y-86175000D03*
%TO.P,U401,28,PB2*%
%TO.N,unconnected-(U401A-PB2-Pad28)*%
X150130000Y-86175000D03*
%TO.P,U401,29,PB10*%
%TO.N,Net-(U401A-PB10)*%
X150630000Y-86175000D03*
%TO.P,U401,30,PB11*%
%TO.N,unconnected-(U401A-PB11-Pad30)*%
X151130000Y-86175000D03*
%TO.P,U401,31,VSS*%
%TO.N,GND*%
X151630000Y-86175000D03*
%TO.P,U401,32,VDD*%
%TO.N,3V3*%
X152130000Y-86175000D03*
D21*
%TO.P,U401,33,PB12*%
%TO.N,/IO/display_cs_n*%
X154118000Y-84187000D03*
%TO.P,U401,34,PB13*%
%TO.N,unconnected-(U401A-PB13-Pad34)*%
X154118000Y-83687000D03*
%TO.P,U401,35,PB14*%
%TO.N,unconnected-(U401A-PB14-Pad35)*%
X154118000Y-83187000D03*
%TO.P,U401,36,PB15*%
%TO.N,unconnected-(U401A-PB15-Pad36)*%
X154118000Y-82687000D03*
%TO.P,U401,37,PC6*%
%TO.N,unconnected-(U401A-PC6-Pad37)*%
X154118000Y-82187000D03*
%TO.P,U401,38,PC7*%
%TO.N,unconnected-(U401A-PC7-Pad38)*%
X154118000Y-81687000D03*
%TO.P,U401,39,PC8*%
%TO.N,unconnected-(U401A-PC8-Pad39)*%
X154118000Y-81187000D03*
%TO.P,U401,40,PC9*%
%TO.N,unconnected-(U401A-PC9-Pad40)*%
X154118000Y-80687000D03*
%TO.P,U401,41,PA8*%
%TO.N,unconnected-(U401A-PA8-Pad41)*%
X154118000Y-80187000D03*
%TO.P,U401,42,PA9*%
%TO.N,/IO/accel_scl*%
X154118000Y-79687000D03*
%TO.P,U401,43,PA10*%
%TO.N,/IO/accel_sda*%
X154118000Y-79187000D03*
%TO.P,U401,44,PA11*%
%TO.N,unconnected-(U401A-PA11-Pad44)*%
X154118000Y-78687000D03*
%TO.P,U401,45,PA12*%
%TO.N,unconnected-(U401A-PA12-Pad45)*%
X154118000Y-78187000D03*
%TO.P,U401,46,PA13*%
%TO.N,/mcu/SWDIO*%
X154118000Y-77687000D03*
%TO.P,U401,47,VSS*%
%TO.N,GND*%
X154118000Y-77187000D03*
%TO.P,U401,48,VDDUSB*%
%TO.N,3V3*%
X154118000Y-76687000D03*
D22*
%TO.P,U401,49,PA14*%
%TO.N,/mcu/SWCLK*%
X152130000Y-74699000D03*
%TO.P,U401,50,PA15*%
%TO.N,unconnected-(U401A-PA15-Pad50)*%
X151630000Y-74699000D03*
%TO.P,U401,51,PC10*%
%TO.N,unconnected-(U401A-PC10-Pad51)*%
X151130000Y-74699000D03*
%TO.P,U401,52,PC11*%
%TO.N,unconnected-(U401A-PC11-Pad52)*%
X150630000Y-74699000D03*
%TO.P,U401,53,PC12*%
%TO.N,unconnected-(U401A-PC12-Pad53)*%
X150130000Y-74699000D03*
%TO.P,U401,54,PD2*%
%TO.N,unconnected-(U401A-PD2-Pad54)*%
X149630000Y-74699000D03*
%TO.P,U401,55,PB3*%
%TO.N,unconnected-(U401A-PB3-Pad55)*%
X149130000Y-74699000D03*
%TO.P,U401,56,PB4*%
%TO.N,unconnected-(U401A-PB4-Pad56)*%
X148630000Y-74699000D03*
%TO.P,U401,57,PB5*%
%TO.N,unconnected-(U401A-PB5-Pad57)*%
X148130000Y-74699000D03*
%TO.P,U401,58,PB6*%
%TO.N,unconnected-(U401A-PB6-Pad58)*%
X147630000Y-74699000D03*
%TO.P,U401,59,PB7*%
%TO.N,unconnected-(U401A-PB7-Pad59)*%
X147130000Y-74699000D03*
%TO.P,U401,60,PH3*%
%TO.N,unconnected-(U401A-PH3-Pad60)*%
X146630000Y-74699000D03*
%TO.P,U401,61,PB8*%
%TO.N,unconnected-(U401A-PB8-Pad61)*%
X146130000Y-74699000D03*
%TO.P,U401,62,PB9*%
%TO.N,unconnected-(U401A-PB9-Pad62)*%
X145630000Y-74699000D03*
%TO.P,U401,63,VSS*%
%TO.N,GND*%
X145130000Y-74699000D03*
%TO.P,U401,64,VDD*%
%TO.N,3V3*%
X144630000Y-74699000D03*
%TD*%
D13*
%TO.P,C402,1*%
%TO.N,GND*%
X138475000Y-75120000D03*
%TO.P,C402,2*%
%TO.N,/mcu/OSC32_IN*%
X139025000Y-75120000D03*
%TD*%
D23*
%TO.P,U201,1,IN*%
%TO.N,/power/5V*%
X139091700Y-99719811D03*
%TO.P,U201,2,ISET*%
%TO.N,Net-(U201-ISET)*%
X139091700Y-100219937D03*
%TO.P,U201,3,BIAS*%
%TO.N,Net-(U201-BIAS)*%
X139091700Y-100720063D03*
%TO.P,U201,4,GND*%
%TO.N,GND*%
X139091700Y-101220189D03*
%TO.P,U201,5,STAT*%
%TO.N,unconnected-(U201-STAT-Pad5)*%
X141098300Y-101220189D03*
%TO.P,U201,6,PG\u002A*%
%TO.N,unconnected-(U201-PG\u002A-Pad6)*%
X141098300Y-100720063D03*
%TO.P,U201,7,VSET*%
%TO.N,Net-(U201-VSET)*%
X141098300Y-100219937D03*
%TO.P,U201,8,OUT*%
%TO.N,/power/3V7_LIPO_EXT*%
X141098300Y-99719811D03*
D24*
%TO.P,U201,9,GND*%
%TO.N,GND*%
X140095000Y-100470000D03*
%TD*%
D25*
%TO.P,D301,1,K*%
%TO.N,3V3*%
X159667500Y-97100000D03*
%TO.P,D301,2,A*%
%TO.N,Net-(D301-A)*%
X158267500Y-97100000D03*
%TD*%
D10*
%TO.P,C408,1*%
%TO.N,GND*%
X155730000Y-77150000D03*
%TO.P,C408,2*%
%TO.N,3V3*%
X155730000Y-76600000D03*
%TD*%
%TO.P,R202,1*%
%TO.N,Net-(U201-BIAS)*%
X137895000Y-100770000D03*
%TO.P,R202,2*%
%TO.N,GND*%
X137895000Y-101320000D03*
%TD*%
%TO.P,R201,1*%
%TO.N,Net-(U201-ISET)*%
X136995000Y-100770000D03*
%TO.P,R201,2*%
%TO.N,GND*%
X136995000Y-101320000D03*
%TD*%
%TO.P,R303,1*%
%TO.N,Net-(Q301-G)*%
X157260000Y-93310000D03*
%TO.P,R303,2*%
%TO.N,/IO/buzzer_pwm*%
X157260000Y-92760000D03*
%TD*%
D26*
%TO.P,U203,1,VIN*%
%TO.N,/power/3V7_LIPO_EXT*%
X143620000Y-99745000D03*
%TO.P,U203,2,GND*%
%TO.N,GND*%
X143620000Y-100395000D03*
%TO.P,U203,3,~{CE}*%
X143620000Y-101045000D03*
%TO.P,U203,4,NC*%
%TO.N,unconnected-(U203-NC-Pad4)*%
X145520000Y-101045000D03*
%TO.P,U203,5,ST*%
%TO.N,GND*%
X145520000Y-100395000D03*
%TO.P,U203,6,VOUT*%
%TO.N,/power/3V7*%
X145520000Y-99745000D03*
%TD*%
D10*
%TO.P,R403,1*%
%TO.N,Net-(U401A-PB10)*%
X150630000Y-87625000D03*
%TO.P,R403,2*%
%TO.N,/IO/display_sclk*%
X150630000Y-88175000D03*
%TD*%
D16*
%TO.P,C301,1*%
%TO.N,GND*%
X156437500Y-85080000D03*
%TO.P,C301,2*%
%TO.N,3V3*%
X157437500Y-85080000D03*
%TD*%
D27*
%TO.P,LS301,+*%
%TO.N,3V3*%
X161020000Y-99120000D03*
%TO.P,LS301,-*%
%TO.N,Net-(D301-A)*%
X156770000Y-99120000D03*
%TO.P,LS301,S1*%
%TO.N,N/C*%
X161020000Y-102620000D03*
%TD*%
D10*
%TO.P,R402,1*%
%TO.N,Net-(C403-Pad2)*%
X138950000Y-80550000D03*
%TO.P,R402,2*%
%TO.N,/mcu/OSC_OUT*%
X138950000Y-80000000D03*
%TD*%
D13*
%TO.P,R302,1*%
%TO.N,3V3*%
X154255000Y-86510000D03*
%TO.P,R302,2*%
%TO.N,/IO/accel_scl*%
X154805000Y-86510000D03*
%TD*%
D10*
%TO.P,R404,1*%
%TO.N,3V3*%
X140330000Y-80725000D03*
%TO.P,R404,2*%
%TO.N,/mcu/NRST*%
X140330000Y-80175000D03*
%TD*%
D28*
%TO.P,Y401,1*%
%TO.N,/mcu/OSC32_OUT*%
X140430000Y-76925000D03*
%TO.P,Y401,2*%
%TO.N,/mcu/OSC32_IN*%
X140430000Y-75345000D03*
%TD*%
D13*
%TO.P,C406,1*%
%TO.N,GND*%
X145155000Y-87675000D03*
%TO.P,C406,2*%
%TO.N,3V3*%
X145705000Y-87675000D03*
%TD*%
D29*
%TO.P,J201,*%
%TO.N,*%
X151265000Y-108295000D03*
X151265000Y-105295000D03*
X141475000Y-108295000D03*
X141475000Y-105295000D03*
%TD*%
D30*
%TO.P,J301,1,Pin_1*%
%TO.N,3V3*%
X133390000Y-82420000D03*
D31*
%TO.P,J301,2,Pin_2*%
%TO.N,GND*%
X133390000Y-84960000D03*
%TO.P,J301,3,Pin_3*%
%TO.N,/IO/display_mosi*%
X133390000Y-87500000D03*
%TO.P,J301,4,Pin_4*%
%TO.N,/IO/display_sclk*%
X133390000Y-90040000D03*
%TO.P,J301,5,Pin_5*%
%TO.N,/IO/display_cs_n*%
X133390000Y-92580000D03*
%TO.P,J301,6,Pin_6*%
%TO.N,/IO/display_dc*%
X133390000Y-95120000D03*
%TO.P,J301,7,Pin_7*%
%TO.N,/IO/display_nrst*%
X133390000Y-97660000D03*
%TO.P,J301,8,Pin_8*%
%TO.N,/IO/display_bl*%
X133390000Y-100200000D03*
%TD*%
D30*
%TO.P,J401,1,Pin_1*%
%TO.N,3V3*%
X160960000Y-80000000D03*
D31*
%TO.P,J401,2,Pin_2*%
%TO.N,/mcu/SWDIO*%
X160960000Y-82540000D03*
%TO.P,J401,3,Pin_3*%
%TO.N,/mcu/SWCLK*%
X160960000Y-85080000D03*
%TO.P,J401,4,Pin_4*%
%TO.N,/mcu/NRST*%
X160960000Y-87620000D03*
%TO.P,J401,5,Pin_5*%
%TO.N,GND*%
X160960000Y-90160000D03*
%TD*%
D32*
%TO.N,GND*%
X145655000Y-76165000D03*
X139100000Y-101820000D03*
X144530000Y-84550000D03*
X157200000Y-88000000D03*
X156990000Y-77160000D03*
X144020000Y-81630000D03*
X144650000Y-99810000D03*
X151070000Y-84730000D03*
X140360000Y-82570000D03*
X145712158Y-88477842D03*
X151550000Y-88314400D03*
X156402377Y-88101000D03*
X141140000Y-81269400D03*
X152640000Y-77180000D03*
%TO.N,3V3*%
X143990000Y-76200000D03*
X146160000Y-84530000D03*
X139811358Y-81041358D03*
X158530000Y-85080000D03*
X152480000Y-84680000D03*
X153610000Y-88850000D03*
X154630000Y-99520000D03*
X153600000Y-86490000D03*
X144270000Y-83350000D03*
X155880000Y-75880000D03*
X157490000Y-89620000D03*
D33*
X159700000Y-95630000D03*
X161500000Y-97480000D03*
D32*
X156520000Y-87000000D03*
D34*
%TO.N,/power/5V*%
X136940000Y-99570000D03*
%TO.N,/power/3V7_LIPO_EXT*%
X143630000Y-97690000D03*
D33*
%TO.N,/mcu/SWCLK*%
X153620000Y-74620000D03*
%TO.N,/IO/display_dc*%
X136000000Y-92910000D03*
%TO.N,/IO/display_nrst*%
X137230000Y-93442762D03*
%TO.N,/IO/accel_sda*%
X155670000Y-79440000D03*
X154240000Y-87700000D03*
%TO.N,/IO/buzzer_pwm*%
X156795000Y-91605000D03*
X140870000Y-83740000D03*
%TO.N,/IO/display_bl*%
X138770000Y-92410000D03*
%TO.N,/mcu/NRST*%
X155080000Y-91830000D03*
X138040000Y-81670000D03*
%TO.N,/IO/display_mosi*%
X137320000Y-83530000D03*
%TD*%
D35*
%TO.N,GND*%
X145520000Y-100395000D02*
X145235000Y-100395000D01*
X145130000Y-75640000D02*
X145130000Y-74699000D01*
X144015000Y-100395000D02*
X143620000Y-100395000D01*
D36*
X145155000Y-87920684D02*
X145712158Y-88477842D01*
D35*
X156962500Y-88237500D02*
X157200000Y-88000000D01*
X152647000Y-77187000D02*
X152640000Y-77180000D01*
X144650000Y-99810000D02*
X144600000Y-99810000D01*
X151555000Y-87675000D02*
X151555000Y-88309400D01*
X151630000Y-85290000D02*
X151070000Y-84730000D01*
X155998377Y-88505000D02*
X156402377Y-88101000D01*
X145130000Y-86175000D02*
X145130000Y-85150000D01*
X140730000Y-82200000D02*
X140360000Y-82570000D01*
X141130000Y-80725000D02*
X141130000Y-81259400D01*
D36*
X144020000Y-81630000D02*
X143463000Y-82187000D01*
X156570000Y-77160000D02*
X156560000Y-77150000D01*
D35*
X145235000Y-100395000D02*
X144650000Y-99810000D01*
X151630000Y-86175000D02*
X151630000Y-85290000D01*
D36*
X142629000Y-82200000D02*
X142642000Y-82187000D01*
D35*
X144600000Y-99810000D02*
X144015000Y-100395000D01*
X155737500Y-88505000D02*
X155998377Y-88505000D01*
D36*
X156560000Y-77150000D02*
X155730000Y-77150000D01*
X155693000Y-77187000D02*
X155730000Y-77150000D01*
D35*
X141130000Y-82200000D02*
X140730000Y-82200000D01*
D36*
X145155000Y-87675000D02*
X145155000Y-87920684D01*
D35*
X139091700Y-101220189D02*
X139091700Y-101811700D01*
X156962500Y-88730000D02*
X156962500Y-88237500D01*
X156608499Y-88101000D02*
X156402377Y-88101000D01*
X145655000Y-76165000D02*
X145130000Y-75640000D01*
D36*
X143463000Y-82187000D02*
X142642000Y-82187000D01*
X156990000Y-77160000D02*
X156570000Y-77160000D01*
D35*
X156962500Y-86280000D02*
X156462500Y-86280000D01*
D36*
X145130000Y-87650000D02*
X145155000Y-87675000D01*
D35*
X145130000Y-85150000D02*
X144530000Y-84550000D01*
X141130000Y-81259400D02*
X141140000Y-81269400D01*
X139091700Y-101811700D02*
X139100000Y-101820000D01*
X154118000Y-77187000D02*
X152647000Y-77187000D01*
X151555000Y-88309400D02*
X151550000Y-88314400D01*
D36*
%TO.N,3V3*%
X144630000Y-74699000D02*
X144630000Y-73225000D01*
D35*
X140330000Y-80725000D02*
X140127716Y-80725000D01*
X156025000Y-86505000D02*
X156520000Y-87000000D01*
X157462500Y-85105000D02*
X157437500Y-85080000D01*
D36*
X152130000Y-86175000D02*
X152130000Y-85030000D01*
D35*
X145630000Y-87600000D02*
X145705000Y-87675000D01*
D36*
X155880000Y-76450000D02*
X155730000Y-76600000D01*
D35*
X140127716Y-80725000D02*
X139811358Y-81041358D01*
X153720000Y-99370000D02*
X154480000Y-99370000D01*
X157462500Y-88730000D02*
X157462500Y-89592500D01*
D36*
X152105000Y-86200000D02*
X152130000Y-86175000D01*
X144630000Y-75560000D02*
X143990000Y-76200000D01*
X152130000Y-87650000D02*
X152105000Y-87675000D01*
D35*
X141130000Y-82750000D02*
X142579000Y-82750000D01*
D36*
X159667500Y-97100000D02*
X159667500Y-95662500D01*
D35*
X155737500Y-86505000D02*
X156025000Y-86505000D01*
X143607000Y-82687000D02*
X144270000Y-83350000D01*
X153620000Y-86510000D02*
X153600000Y-86490000D01*
D36*
X152130000Y-86175000D02*
X152130000Y-87650000D01*
D35*
X142642000Y-82687000D02*
X143607000Y-82687000D01*
X157437500Y-85080000D02*
X158530000Y-85080000D01*
D36*
X152130000Y-85030000D02*
X152480000Y-84680000D01*
X161020000Y-97960000D02*
X161500000Y-97480000D01*
D35*
X153620000Y-88840000D02*
X153610000Y-88850000D01*
D36*
X155880000Y-75880000D02*
X155880000Y-76450000D01*
D35*
X157462500Y-89592500D02*
X157490000Y-89620000D01*
X154480000Y-99370000D02*
X154630000Y-99520000D01*
X142579000Y-82750000D02*
X142642000Y-82687000D01*
X145630000Y-86175000D02*
X145630000Y-87600000D01*
D36*
X155730000Y-76600000D02*
X154205000Y-76600000D01*
D35*
X145630000Y-86175000D02*
X145630000Y-85060000D01*
X154255000Y-86510000D02*
X153620000Y-86510000D01*
D36*
X144630000Y-74699000D02*
X144630000Y-75560000D01*
D35*
X145630000Y-85060000D02*
X146160000Y-84530000D01*
D36*
X144630000Y-73225000D02*
X144655000Y-73200000D01*
D35*
X157462500Y-86280000D02*
X157462500Y-85105000D01*
D36*
X154205000Y-76600000D02*
X154118000Y-76687000D01*
D35*
X154295000Y-88840000D02*
X153620000Y-88840000D01*
X152220000Y-99170001D02*
X153520001Y-99170001D01*
D36*
X159667500Y-95662500D02*
X159700000Y-95630000D01*
X144655000Y-74674000D02*
X144630000Y-74699000D01*
X161020000Y-99120000D02*
X161020000Y-97960000D01*
D35*
X153520001Y-99170001D02*
X153720000Y-99370000D01*
D37*
%TO.N,/power/5V*%
X138095000Y-98965000D02*
X138095000Y-98470000D01*
X139091700Y-99719811D02*
X138849811Y-99719811D01*
X137089811Y-99719811D02*
X139091700Y-99719811D01*
X138849811Y-99719811D02*
X138095000Y-98965000D01*
X136940000Y-99570000D02*
X137089811Y-99719811D01*
D38*
%TO.N,/power/3V7_LIPO_EXT*%
X143680000Y-97740000D02*
X143680000Y-99685000D01*
D37*
X141098300Y-99719811D02*
X141795000Y-99023111D01*
D38*
X143630000Y-97690000D02*
X143680000Y-97740000D01*
D37*
X141795000Y-99023111D02*
X141795000Y-98470000D01*
D39*
X143653600Y-99711400D02*
X143620000Y-99711400D01*
D37*
X141098300Y-99719811D02*
X143594811Y-99719811D01*
X143594811Y-99719811D02*
X143620000Y-99745000D01*
D39*
X143680000Y-99685000D02*
X143653600Y-99711400D01*
D37*
%TO.N,/power/3V7*%
X146920000Y-99920000D02*
X147570000Y-99270000D01*
X148020000Y-99270000D02*
X149370001Y-99270000D01*
X146745000Y-99745000D02*
X146920000Y-99920000D01*
X149370001Y-99270000D02*
X149470000Y-99170001D01*
X145520000Y-99745000D02*
X146745000Y-99745000D01*
X147570000Y-99270000D02*
X148020000Y-99270000D01*
D36*
%TO.N,/mcu/SWCLK*%
X153620000Y-74620000D02*
X152209000Y-74620000D01*
X152209000Y-74620000D02*
X152130000Y-74699000D01*
%TO.N,/mcu/SWDIO*%
X154171000Y-77740000D02*
X154118000Y-77687000D01*
X156160000Y-77740000D02*
X154171000Y-77740000D01*
X160960000Y-82540000D02*
X156160000Y-77740000D01*
%TO.N,/IO/display_cs_n*%
X152080000Y-88770000D02*
X150790000Y-88770000D01*
X152820000Y-88030000D02*
X152080000Y-88770000D01*
X135395000Y-94265000D02*
X133710000Y-92580000D01*
X154118000Y-84662000D02*
X152820000Y-85960000D01*
X154118000Y-84187000D02*
X154118000Y-84662000D01*
X152820000Y-85960000D02*
X152820000Y-88030000D01*
X135500000Y-94370000D02*
X135395000Y-94265000D01*
X145190000Y-94370000D02*
X135500000Y-94370000D01*
X150790000Y-88770000D02*
X145190000Y-94370000D01*
X133710000Y-92580000D02*
X133390000Y-92580000D01*
%TO.N,/IO/display_dc*%
X144490000Y-92920000D02*
X136010000Y-92920000D01*
X146130000Y-86175000D02*
X146130000Y-87030000D01*
X146130000Y-87030000D02*
X146680000Y-87580000D01*
X136010000Y-92920000D02*
X136000000Y-92910000D01*
X146680000Y-90730000D02*
X144490000Y-92920000D01*
X146680000Y-87580000D02*
X146680000Y-90730000D01*
%TO.N,/IO/display_nrst*%
X147130000Y-90984200D02*
X147130000Y-86175000D01*
X137230000Y-93442762D02*
X137239601Y-93433161D01*
X144634200Y-93480000D02*
X137267238Y-93480000D01*
X137267238Y-93480000D02*
X137230000Y-93442762D01*
X144634200Y-93480000D02*
X147130000Y-90984200D01*
%TO.N,/IO/accel_scl*%
X154805000Y-87262452D02*
X154805000Y-86510000D01*
X155547548Y-88005000D02*
X154805000Y-87262452D01*
X155737500Y-88005000D02*
X155722500Y-88020000D01*
X155058700Y-79687000D02*
X154118000Y-79687000D01*
X155310000Y-86005000D02*
X155310000Y-79938300D01*
X155310000Y-79938300D02*
X155058700Y-79687000D01*
X154805000Y-86510000D02*
X155310000Y-86005000D01*
X155737500Y-88005000D02*
X155547548Y-88005000D01*
%TO.N,/IO/accel_sda*%
X155670000Y-79440000D02*
X155460000Y-79230000D01*
X154510000Y-87950000D02*
X154845000Y-88285000D01*
X155305000Y-89300000D02*
X155892500Y-89300000D01*
X154490000Y-87950000D02*
X154510000Y-87950000D01*
X154161000Y-79230000D02*
X154118000Y-79187000D01*
X155460000Y-79230000D02*
X154161000Y-79230000D01*
X154845000Y-88840000D02*
X155305000Y-89300000D01*
X154845000Y-88285000D02*
X154845000Y-88840000D01*
X154240000Y-87700000D02*
X154490000Y-87950000D01*
X156462500Y-88730000D02*
X155892500Y-89300000D01*
D40*
%TO.N,/IO/buzzer_pwm*%
X157260000Y-92070000D02*
X157260000Y-92760000D01*
X140870000Y-83740000D02*
X141423000Y-83187000D01*
X141423000Y-83187000D02*
X142642000Y-83187000D01*
X156795000Y-91605000D02*
X157260000Y-92070000D01*
D36*
%TO.N,/IO/display_bl*%
X146260000Y-89670000D02*
X142642000Y-86052000D01*
X144370000Y-92440000D02*
X146260000Y-90550000D01*
X139500000Y-92430000D02*
X139820000Y-92430000D01*
X138770000Y-92410000D02*
X139480000Y-92410000D01*
X139480000Y-92410000D02*
X139500000Y-92430000D01*
X139830000Y-92440000D02*
X144370000Y-92440000D01*
X142642000Y-86052000D02*
X142642000Y-84187000D01*
X146260000Y-90550000D02*
X146260000Y-89670000D01*
X139820000Y-92430000D02*
X139830000Y-92440000D01*
%TO.N,/mcu/NRST*%
X156720000Y-90190000D02*
X155080000Y-91830000D01*
X141846100Y-79687000D02*
X142642000Y-79687000D01*
X141358100Y-80175000D02*
X141846100Y-79687000D01*
X141130000Y-80175000D02*
X141358100Y-80175000D01*
X138420000Y-81290000D02*
X138918400Y-81290000D01*
X158390000Y-90190000D02*
X156720000Y-90190000D01*
X140033400Y-80175000D02*
X140330000Y-80175000D01*
X138918400Y-81290000D02*
X140033400Y-80175000D01*
X160960000Y-87620000D02*
X158390000Y-90190000D01*
X140330000Y-80175000D02*
X141130000Y-80175000D01*
X138040000Y-81670000D02*
X138420000Y-81290000D01*
%TO.N,/mcu/OSC32_OUT*%
X140285000Y-77070000D02*
X140430000Y-76925000D01*
X141692000Y-78187000D02*
X140430000Y-76925000D01*
X139055000Y-77070000D02*
X140285000Y-77070000D01*
X142642000Y-78187000D02*
X141692000Y-78187000D01*
%TO.N,/mcu/OSC32_IN*%
X141470000Y-76385000D02*
X140430000Y-75345000D01*
X141470000Y-77455700D02*
X141470000Y-76385000D01*
X139055000Y-75120000D02*
X140205000Y-75120000D01*
X142642000Y-77687000D02*
X141701300Y-77687000D01*
X141701300Y-77687000D02*
X141470000Y-77455700D01*
X140205000Y-75120000D02*
X140430000Y-75345000D01*
%TO.N,/mcu/OSC_IN*%
X141030000Y-78075000D02*
X141642000Y-78687000D01*
X140105000Y-78075000D02*
X139905000Y-78275000D01*
X140980000Y-78075000D02*
X140105000Y-78075000D01*
D35*
X137845000Y-78090000D02*
X138138800Y-77796200D01*
X138138800Y-77796200D02*
X139426200Y-77796200D01*
D36*
X140980000Y-78075000D02*
X141030000Y-78075000D01*
D35*
X139426200Y-77796200D02*
X139905000Y-78275000D01*
D36*
X141642000Y-78687000D02*
X142642000Y-78687000D01*
%TO.N,/mcu/OSC_OUT*%
X140000800Y-79579200D02*
X139580000Y-80000000D01*
X139580000Y-80000000D02*
X138950000Y-80000000D01*
X141453900Y-79579200D02*
X141846100Y-79187000D01*
X141846100Y-79187000D02*
X142642000Y-79187000D01*
X140000800Y-79579200D02*
X141453900Y-79579200D01*
D35*
%TO.N,Net-(C403-Pad2)*%
X137890000Y-79880000D02*
X137890000Y-79170000D01*
D36*
X138855000Y-79075000D02*
X138855000Y-79170000D01*
X138855000Y-79075000D02*
X137985000Y-79075000D01*
X137985000Y-79075000D02*
X137890000Y-79170000D01*
X138580000Y-79350000D02*
X138855000Y-79075000D01*
D35*
X138560000Y-80550000D02*
X137890000Y-79880000D01*
X138950000Y-80550000D02*
X138560000Y-80550000D01*
D36*
%TO.N,Net-(D301-A)*%
X157100000Y-96270000D02*
X157437500Y-96270000D01*
X158267500Y-97622500D02*
X158267500Y-97100000D01*
X157437500Y-96270000D02*
X158267500Y-97100000D01*
X156770000Y-99120000D02*
X158267500Y-97622500D01*
%TO.N,Net-(Q301-G)*%
X157265000Y-93315000D02*
X157260000Y-93310000D01*
X158080000Y-94462001D02*
X158050001Y-94492000D01*
X158080000Y-93315000D02*
X158080000Y-94462001D01*
X158080000Y-93315000D02*
X157265000Y-93315000D01*
%TO.N,Net-(U201-ISET)*%
X137545063Y-100219937D02*
X136995000Y-100770000D01*
X139091700Y-100219937D02*
X137545063Y-100219937D01*
%TO.N,Net-(U201-BIAS)*%
X137944937Y-100720063D02*
X137895000Y-100770000D01*
X139091700Y-100720063D02*
X137944937Y-100720063D01*
%TO.N,Net-(U201-VSET)*%
X142244937Y-100219937D02*
X142295000Y-100270000D01*
X141098300Y-100219937D02*
X142244937Y-100219937D01*
%TO.N,Net-(U202-EN)*%
X147520000Y-101070000D02*
X146920000Y-100470000D01*
X149470000Y-101070000D02*
X147520000Y-101070000D01*
%TO.N,/IO/display_sclk*%
X144366628Y-93948362D02*
X136208362Y-93948362D01*
X144375766Y-93957500D02*
X144366628Y-93948362D01*
X150630000Y-88175000D02*
X144847500Y-93957500D01*
X136208362Y-93948362D02*
X134950000Y-92690000D01*
X134950000Y-91600000D02*
X133390000Y-90040000D01*
X144847500Y-93957500D02*
X144375766Y-93957500D01*
X134950000Y-92690000D02*
X134950000Y-91600000D01*
%TO.N,/IO/display_mosi*%
X137320000Y-83530000D02*
X139125000Y-81725000D01*
X139125000Y-81725000D02*
X139705000Y-81725000D01*
%TO.N,Net-(U401A-PC3)*%
X142604000Y-81725000D02*
X142642000Y-81687000D01*
X140255000Y-81725000D02*
X142604000Y-81725000D01*
%TO.N,Net-(U401A-PB10)*%
X150630000Y-87625000D02*
X150630000Y-86175000D01*
%TD*%
%TA.AperFunction,Conductor*%
%TO.N,GND*%
G36*
X158967201Y-71503139D02*
G01*
X159179000Y-71547548D01*
X159185622Y-71549128D01*
X159254576Y-71567604D01*
X159257787Y-71568512D01*
X159583169Y-71665383D01*
X159590157Y-71667692D01*
X159644056Y-71687310D01*
X159646678Y-71688299D01*
X159976425Y-71816967D01*
X159983729Y-71820089D01*
X160014837Y-71834595D01*
X160016641Y-71835458D01*
X160354902Y-72000823D01*
X160363883Y-72005683D01*
X160710070Y-72211966D01*
X160718638Y-72217564D01*
X161046593Y-72451719D01*
X161054668Y-72458005D01*
X161301962Y-72667452D01*
X161362155Y-72718433D01*
X161369695Y-72725374D01*
X161654625Y-73010304D01*
X161661566Y-73017844D01*
X161920652Y-73323747D01*
X161921989Y-73325325D01*
X161928284Y-73333412D01*
X162162431Y-73661355D01*
X162168037Y-73669935D01*
X162374309Y-74016105D01*
X162379186Y-74025119D01*
X162544467Y-74363206D01*
X162545450Y-74365262D01*
X162559902Y-74396255D01*
X162563036Y-74403584D01*
X162691691Y-74733300D01*
X162692696Y-74735964D01*
X162712299Y-74789822D01*
X162714622Y-74796851D01*
X162811475Y-75122173D01*
X162812405Y-75125462D01*
X162830866Y-75194361D01*
X162832452Y-75201007D01*
X162876861Y-75412798D01*
X162879500Y-75438245D01*
X162879500Y-98119792D01*
X162859815Y-98186831D01*
X162807011Y-98232586D01*
X162737853Y-98242530D01*
X162674297Y-98213505D01*
X162639318Y-98163125D01*
X162588797Y-98027671D01*
X162588793Y-98027664D01*
X162502547Y-97912455D01*
X162502544Y-97912452D01*
X162387335Y-97826206D01*
X162387328Y-97826202D01*
X162358137Y-97815315D01*
X162302203Y-97773444D01*
X162277786Y-97707980D01*
X162279852Y-97674944D01*
X162302900Y-97559079D01*
X162302900Y-97400921D01*
X162302900Y-97400918D01*
X162302899Y-97400916D01*
X162272047Y-97245810D01*
X162272044Y-97245801D01*
X162211524Y-97099690D01*
X162211517Y-97099677D01*
X162123653Y-96968181D01*
X162123650Y-96968177D01*
X162011822Y-96856349D01*
X162011818Y-96856346D01*
X161880322Y-96768482D01*
X161880309Y-96768475D01*
X161734198Y-96707955D01*
X161734189Y-96707952D01*
X161579082Y-96677100D01*
X161579079Y-96677100D01*
X161420921Y-96677100D01*
X161420918Y-96677100D01*
X161265810Y-96707952D01*
X161265801Y-96707955D01*
X161119690Y-96768475D01*
X161119677Y-96768482D01*
X160988181Y-96856346D01*
X160988177Y-96856349D01*
X160876349Y-96968177D01*
X160876346Y-96968181D01*
X160788482Y-97099677D01*
X160788475Y-97099690D01*
X160727955Y-97245801D01*
X160727953Y-97245809D01*
X160713617Y-97317882D01*
X160681232Y-97379793D01*
X160620516Y-97414367D01*
X160550747Y-97410627D01*
X160494075Y-97369760D01*
X160468493Y-97304742D01*
X160468000Y-97293690D01*
X160468000Y-96834313D01*
X160467999Y-96834298D01*
X160465098Y-96797432D01*
X160465097Y-96797426D01*
X160419245Y-96639606D01*
X160419244Y-96639603D01*
X160419244Y-96639602D01*
X160335581Y-96498135D01*
X160335579Y-96498133D01*
X160335576Y-96498129D01*
X160305919Y-96468472D01*
X160291215Y-96441544D01*
X160274623Y-96415726D01*
X160273731Y-96409525D01*
X160272434Y-96407149D01*
X160269600Y-96380791D01*
X160269600Y-96247234D01*
X160289285Y-96180195D01*
X160305921Y-96159551D01*
X160323651Y-96141821D01*
X160323653Y-96141819D01*
X160411521Y-96010316D01*
X160472045Y-95864197D01*
X160502900Y-95709079D01*
X160502900Y-95550921D01*
X160502900Y-95550918D01*
X160502899Y-95550916D01*
X160472047Y-95395810D01*
X160472044Y-95395801D01*
X160411524Y-95249690D01*
X160411517Y-95249677D01*
X160323653Y-95118181D01*
X160323650Y-95118177D01*
X160211822Y-95006349D01*
X160211818Y-95006346D01*
X160080322Y-94918482D01*
X160080309Y-94918475D01*
X159934198Y-94857955D01*
X159934189Y-94857952D01*
X159779082Y-94827100D01*
X159779079Y-94827100D01*
X159620921Y-94827100D01*
X159620918Y-94827100D01*
X159465810Y-94857952D01*
X159465801Y-94857955D01*
X159319690Y-94918475D01*
X159319677Y-94918482D01*
X159188181Y-95006346D01*
X159188177Y-95006349D01*
X159076349Y-95118177D01*
X159076344Y-95118183D01*
X159030200Y-95187242D01*
X158976588Y-95232046D01*
X158907263Y-95240753D01*
X158844235Y-95210598D01*
X158807517Y-95151154D01*
X158803810Y-95105094D01*
X158804501Y-95098673D01*
X158804500Y-93885328D01*
X158798092Y-93825717D01*
X158747797Y-93690869D01*
X158747794Y-93690865D01*
X158743934Y-93683796D01*
X158729076Y-93615524D01*
X158736577Y-93581032D01*
X158749091Y-93547483D01*
X158755500Y-93487873D01*
X158755499Y-93142128D01*
X158749091Y-93082517D01*
X158749091Y-93082516D01*
X158747307Y-93074966D01*
X158748559Y-93074669D01*
X158744145Y-93012924D01*
X158748132Y-92999346D01*
X158748598Y-92997375D01*
X158754999Y-92937844D01*
X158755000Y-92937827D01*
X158755000Y-92890000D01*
X158717694Y-92890000D01*
X158713308Y-92888712D01*
X158708841Y-92889684D01*
X158680086Y-92878957D01*
X158650655Y-92870315D01*
X158646466Y-92866415D01*
X158643378Y-92865263D01*
X158618423Y-92840305D01*
X158616926Y-92838305D01*
X158592512Y-92772839D01*
X158607368Y-92704567D01*
X158656776Y-92655164D01*
X158716197Y-92640000D01*
X158755000Y-92640000D01*
X158755000Y-92592172D01*
X158754999Y-92592155D01*
X158748598Y-92532627D01*
X158748596Y-92532620D01*
X158698354Y-92397913D01*
X158698350Y-92397906D01*
X158612190Y-92282812D01*
X158612187Y-92282809D01*
X158497093Y-92196649D01*
X158497086Y-92196645D01*
X158362379Y-92146403D01*
X158362372Y-92146401D01*
X158302844Y-92140000D01*
X158205000Y-92140000D01*
X158205000Y-92565500D01*
X158202449Y-92574185D01*
X158203738Y-92583147D01*
X158192759Y-92607187D01*
X158185315Y-92632539D01*
X158178474Y-92638466D01*
X158174713Y-92646703D01*
X158152478Y-92660992D01*
X158132511Y-92678294D01*
X158121996Y-92680581D01*
X158115935Y-92684477D01*
X158081000Y-92689500D01*
X158079000Y-92689500D01*
X158011961Y-92669815D01*
X157966206Y-92617011D01*
X157955000Y-92565500D01*
X157955000Y-92140000D01*
X157923819Y-92108819D01*
X157890334Y-92047496D01*
X157887500Y-92021138D01*
X157887500Y-92008194D01*
X157863386Y-91886970D01*
X157863385Y-91886969D01*
X157863385Y-91886965D01*
X157857263Y-91872184D01*
X157816086Y-91772773D01*
X157816079Y-91772760D01*
X157747412Y-91669993D01*
X157715371Y-91637952D01*
X157660008Y-91582589D01*
X157623146Y-91545727D01*
X157589661Y-91484404D01*
X157589238Y-91482376D01*
X157567045Y-91370803D01*
X157506521Y-91224684D01*
X157506519Y-91224681D01*
X157506517Y-91224677D01*
X157418653Y-91093181D01*
X157418650Y-91093177D01*
X157329254Y-91003781D01*
X157295769Y-90942458D01*
X157300753Y-90872766D01*
X157342625Y-90816833D01*
X157408089Y-90792416D01*
X157416935Y-90792100D01*
X158469266Y-90792100D01*
X158469268Y-90792100D01*
X158622402Y-90751067D01*
X158759698Y-90671800D01*
X158871800Y-90559698D01*
X159398320Y-90033177D01*
X159459642Y-89999693D01*
X159529333Y-90004677D01*
X159585267Y-90046548D01*
X159609684Y-90112013D01*
X159610000Y-90120859D01*
X159610000Y-90266246D01*
X159643242Y-90476127D01*
X159643242Y-90476130D01*
X159708904Y-90678217D01*
X159805375Y-90867550D01*
X159844728Y-90921716D01*
X160477037Y-90289408D01*
X160494075Y-90352993D01*
X160559901Y-90467007D01*
X160652993Y-90560099D01*
X160767007Y-90625925D01*
X160830590Y-90642962D01*
X160198282Y-91275269D01*
X160198282Y-91275270D01*
X160252449Y-91314624D01*
X160441782Y-91411095D01*
X160643870Y-91476757D01*
X160853754Y-91510000D01*
X161066246Y-91510000D01*
X161276127Y-91476757D01*
X161276130Y-91476757D01*
X161478217Y-91411095D01*
X161667554Y-91314622D01*
X161721716Y-91275270D01*
X161721717Y-91275270D01*
X161089408Y-90642962D01*
X161152993Y-90625925D01*
X161267007Y-90560099D01*
X161360099Y-90467007D01*
X161425925Y-90352993D01*
X161442962Y-90289408D01*
X162075270Y-90921717D01*
X162075270Y-90921716D01*
X162114622Y-90867554D01*
X162211095Y-90678217D01*
X162276757Y-90476130D01*
X162276757Y-90476127D01*
X162310000Y-90266246D01*
X162310000Y-90053753D01*
X162276757Y-89843872D01*
X162276757Y-89843869D01*
X162211095Y-89641782D01*
X162114624Y-89452449D01*
X162075270Y-89398282D01*
X162075269Y-89398282D01*
X161442962Y-90030590D01*
X161425925Y-89967007D01*
X161360099Y-89852993D01*
X161267007Y-89759901D01*
X161152993Y-89694075D01*
X161089408Y-89677037D01*
X161721716Y-89044728D01*
X161667547Y-89005373D01*
X161667547Y-89005372D01*
X161658500Y-89000763D01*
X161607706Y-88952788D01*
X161590912Y-88884966D01*
X161613451Y-88818832D01*
X161658508Y-88779793D01*
X161667816Y-88775051D01*
X161774006Y-88697900D01*
X161839786Y-88650109D01*
X161839788Y-88650106D01*
X161839792Y-88650104D01*
X161990104Y-88499792D01*
X161990106Y-88499788D01*
X161990109Y-88499786D01*
X162115048Y-88327820D01*
X162115047Y-88327820D01*
X162115051Y-88327816D01*
X162211557Y-88138412D01*
X162277246Y-87936243D01*
X162310500Y-87726287D01*
X162310500Y-87513713D01*
X162277246Y-87303757D01*
X162211557Y-87101588D01*
X162115051Y-86912184D01*
X162115049Y-86912181D01*
X162115048Y-86912179D01*
X161990109Y-86740213D01*
X161839786Y-86589890D01*
X161667820Y-86464951D01*
X161667115Y-86464591D01*
X161659054Y-86460485D01*
X161608259Y-86412512D01*
X161591463Y-86344692D01*
X161613999Y-86278556D01*
X161659054Y-86239515D01*
X161667816Y-86235051D01*
X161761195Y-86167208D01*
X161839786Y-86110109D01*
X161839788Y-86110106D01*
X161839792Y-86110104D01*
X161990104Y-85959792D01*
X161990106Y-85959788D01*
X161990109Y-85959786D01*
X162115048Y-85787820D01*
X162115047Y-85787820D01*
X162115051Y-85787816D01*
X162211557Y-85598412D01*
X162277246Y-85396243D01*
X162310500Y-85186287D01*
X162310500Y-84973713D01*
X162277246Y-84763757D01*
X162211557Y-84561588D01*
X162115051Y-84372184D01*
X162115049Y-84372181D01*
X162115048Y-84372179D01*
X161990109Y-84200213D01*
X161839786Y-84049890D01*
X161667820Y-83924951D01*
X161667115Y-83924591D01*
X161659054Y-83920485D01*
X161608259Y-83872512D01*
X161591463Y-83804692D01*
X161613999Y-83738556D01*
X161659054Y-83699515D01*
X161667816Y-83695051D01*
X161760728Y-83627547D01*
X161839786Y-83570109D01*
X161839788Y-83570106D01*
X161839792Y-83570104D01*
X161990104Y-83419792D01*
X161990106Y-83419788D01*
X161990109Y-83419786D01*
X162115048Y-83247820D01*
X162115047Y-83247820D01*
X162115051Y-83247816D01*
X162211557Y-83058412D01*
X162277246Y-82856243D01*
X162310500Y-82646287D01*
X162310500Y-82433713D01*
X162277246Y-82223757D01*
X162211557Y-82021588D01*
X162115051Y-81832184D01*
X162115049Y-81832181D01*
X162115048Y-81832179D01*
X161990109Y-81660213D01*
X161876569Y-81546673D01*
X161843084Y-81485350D01*
X161848068Y-81415658D01*
X161889940Y-81359725D01*
X161920915Y-81342810D01*
X162052331Y-81293796D01*
X162167546Y-81207546D01*
X162253796Y-81092331D01*
X162304091Y-80957483D01*
X162310500Y-80897873D01*
X162310499Y-79102128D01*
X162304091Y-79042517D01*
X162284178Y-78989128D01*
X162253797Y-78907671D01*
X162253793Y-78907664D01*
X162167547Y-78792455D01*
X162167544Y-78792452D01*
X162052335Y-78706206D01*
X162052328Y-78706202D01*
X161917482Y-78655908D01*
X161917483Y-78655908D01*
X161857883Y-78649501D01*
X161857881Y-78649500D01*
X161857873Y-78649500D01*
X161857864Y-78649500D01*
X160062129Y-78649500D01*
X160062123Y-78649501D01*
X160002516Y-78655908D01*
X159867671Y-78706202D01*
X159867664Y-78706206D01*
X159752455Y-78792452D01*
X159752452Y-78792455D01*
X159666206Y-78907664D01*
X159666202Y-78907671D01*
X159615908Y-79042517D01*
X159609995Y-79097521D01*
X159609501Y-79102123D01*
X159609500Y-79102135D01*
X159609500Y-80038640D01*
X159589815Y-80105679D01*
X159537011Y-80151434D01*
X159467853Y-80161378D01*
X159404297Y-80132353D01*
X159397819Y-80126321D01*
X156529699Y-77258201D01*
X156529698Y-77258200D01*
X156473059Y-77225500D01*
X156473059Y-77225499D01*
X156473057Y-77225499D01*
X156462666Y-77219500D01*
X156442748Y-77208000D01*
X156394532Y-77157433D01*
X156381310Y-77088826D01*
X156405000Y-77029651D01*
X156405000Y-76977172D01*
X156404999Y-76977155D01*
X156398598Y-76917627D01*
X156396814Y-76910076D01*
X156398130Y-76909764D01*
X156392569Y-76858087D01*
X156394464Y-76844886D01*
X156399091Y-76832483D01*
X156405500Y-76772873D01*
X156405499Y-76768045D01*
X156406697Y-76759709D01*
X156412946Y-76746019D01*
X156422052Y-76715335D01*
X156441067Y-76682402D01*
X156482100Y-76529268D01*
X156482100Y-76371692D01*
X156501785Y-76304653D01*
X156502940Y-76302887D01*
X156547211Y-76236632D01*
X156603967Y-76099613D01*
X156632900Y-75954154D01*
X156632900Y-75805846D01*
X156603967Y-75660387D01*
X156547211Y-75523368D01*
X156521162Y-75484383D01*
X156464817Y-75400055D01*
X156464811Y-75400048D01*
X156359951Y-75295188D01*
X156359944Y-75295182D01*
X156236633Y-75212789D01*
X156099613Y-75156033D01*
X156099605Y-75156031D01*
X155954158Y-75127100D01*
X155954154Y-75127100D01*
X155805846Y-75127100D01*
X155805841Y-75127100D01*
X155660394Y-75156031D01*
X155660386Y-75156033D01*
X155523366Y-75212789D01*
X155400055Y-75295182D01*
X155400048Y-75295188D01*
X155295188Y-75400048D01*
X155295182Y-75400055D01*
X155212789Y-75523366D01*
X155156033Y-75660386D01*
X155156031Y-75660394D01*
X155127100Y-75805841D01*
X155127100Y-75873900D01*
X155107415Y-75940939D01*
X155054611Y-75986694D01*
X155003100Y-75997900D01*
X154125732Y-75997900D01*
X153997441Y-76032275D01*
X153965348Y-76036500D01*
X153332629Y-76036500D01*
X153332623Y-76036501D01*
X153273016Y-76042908D01*
X153138171Y-76093202D01*
X153138164Y-76093206D01*
X153022955Y-76179452D01*
X153022952Y-76179455D01*
X152936706Y-76294664D01*
X152936702Y-76294671D01*
X152890102Y-76419615D01*
X152886409Y-76429517D01*
X152880000Y-76489127D01*
X152880000Y-76489134D01*
X152880000Y-76489135D01*
X152880000Y-76884869D01*
X152880001Y-76884880D01*
X152882789Y-76910822D01*
X152882791Y-76910827D01*
X152886409Y-76944483D01*
X152936704Y-77079331D01*
X152953026Y-77101134D01*
X152961676Y-77112690D01*
X152986092Y-77178155D01*
X152971240Y-77246428D01*
X152961676Y-77261310D01*
X152942213Y-77287310D01*
X152894390Y-77323109D01*
X152880500Y-77337000D01*
X152880500Y-77384832D01*
X152884431Y-77421399D01*
X152884431Y-77447905D01*
X152880000Y-77489122D01*
X152880000Y-77884869D01*
X152880001Y-77884878D01*
X152884179Y-77923745D01*
X152884179Y-77950250D01*
X152880000Y-77989122D01*
X152880000Y-78384869D01*
X152880001Y-78384878D01*
X152884179Y-78423745D01*
X152884179Y-78450250D01*
X152880000Y-78489122D01*
X152880000Y-78884869D01*
X152880001Y-78884878D01*
X152884179Y-78923745D01*
X152884179Y-78950250D01*
X152880000Y-78989122D01*
X152880000Y-79384869D01*
X152880001Y-79384878D01*
X152884179Y-79423745D01*
X152884179Y-79450250D01*
X152880000Y-79489122D01*
X152880000Y-79884869D01*
X152880001Y-79884878D01*
X152884179Y-79923745D01*
X152884179Y-79950250D01*
X152880000Y-79989122D01*
X152880000Y-80384869D01*
X152880001Y-80384878D01*
X152884179Y-80423745D01*
X152884179Y-80450250D01*
X152880000Y-80489122D01*
X152880000Y-80884869D01*
X152880001Y-80884878D01*
X152884179Y-80923745D01*
X152884179Y-80950250D01*
X152880000Y-80989122D01*
X152880000Y-81384869D01*
X152880001Y-81384878D01*
X152884179Y-81423745D01*
X152884179Y-81450250D01*
X152880000Y-81489122D01*
X152880000Y-81884869D01*
X152880001Y-81884878D01*
X152884179Y-81923745D01*
X152884179Y-81950250D01*
X152880000Y-81989122D01*
X152880000Y-82384869D01*
X152880001Y-82384878D01*
X152884179Y-82423745D01*
X152884179Y-82450250D01*
X152880000Y-82489122D01*
X152880000Y-82884869D01*
X152880001Y-82884878D01*
X152884179Y-82923745D01*
X152884179Y-82950250D01*
X152880000Y-82989122D01*
X152880000Y-83384869D01*
X152880001Y-83384878D01*
X152884179Y-83423745D01*
X152884179Y-83450250D01*
X152880000Y-83489122D01*
X152880000Y-83845173D01*
X152860315Y-83912212D01*
X152807511Y-83957967D01*
X152738353Y-83967911D01*
X152708546Y-83959733D01*
X152699618Y-83956034D01*
X152699605Y-83956031D01*
X152554158Y-83927100D01*
X152554154Y-83927100D01*
X152405846Y-83927100D01*
X152405841Y-83927100D01*
X152260394Y-83956031D01*
X152260386Y-83956033D01*
X152123366Y-84012789D01*
X152000055Y-84095182D01*
X152000048Y-84095188D01*
X151895188Y-84200048D01*
X151895182Y-84200055D01*
X151812789Y-84323366D01*
X151756033Y-84460386D01*
X151756031Y-84460394D01*
X151740507Y-84538438D01*
X151708122Y-84600349D01*
X151706573Y-84601927D01*
X151648200Y-84660301D01*
X151568933Y-84797597D01*
X151568933Y-84797598D01*
X151556071Y-84845596D01*
X151544254Y-84864983D01*
X151536626Y-84886372D01*
X151526418Y-84894245D01*
X151519708Y-84905254D01*
X151499280Y-84915176D01*
X151481301Y-84929045D01*
X151464065Y-84932283D01*
X151456861Y-84935783D01*
X151446925Y-84937044D01*
X151392973Y-84941685D01*
X151391719Y-84941431D01*
X151369092Y-84941431D01*
X151327873Y-84937000D01*
X150932130Y-84937000D01*
X150932119Y-84937001D01*
X150893253Y-84941179D01*
X150866748Y-84941179D01*
X150827874Y-84937000D01*
X150432130Y-84937000D01*
X150432119Y-84937001D01*
X150393253Y-84941179D01*
X150366748Y-84941179D01*
X150327874Y-84937000D01*
X149932130Y-84937000D01*
X149932119Y-84937001D01*
X149893253Y-84941179D01*
X149866748Y-84941179D01*
X149827874Y-84937000D01*
X149432130Y-84937000D01*
X149432119Y-84937001D01*
X149393253Y-84941179D01*
X149366748Y-84941179D01*
X149327874Y-84937000D01*
X148932130Y-84937000D01*
X148932119Y-84937001D01*
X148893253Y-84941179D01*
X148866748Y-84941179D01*
X148827874Y-84937000D01*
X148432130Y-84937000D01*
X148432119Y-84937001D01*
X148393253Y-84941179D01*
X148366748Y-84941179D01*
X148327874Y-84937000D01*
X147932130Y-84937000D01*
X147932119Y-84937001D01*
X147893253Y-84941179D01*
X147866748Y-84941179D01*
X147827874Y-84937000D01*
X147432130Y-84937000D01*
X147432119Y-84937001D01*
X147393253Y-84941179D01*
X147366748Y-84941179D01*
X147327875Y-84937000D01*
X146991927Y-84937000D01*
X146924888Y-84917315D01*
X146879133Y-84864511D01*
X146869189Y-84795353D01*
X146877364Y-84765551D01*
X146883967Y-84749613D01*
X146912900Y-84604154D01*
X146912900Y-84455846D01*
X146883967Y-84310387D01*
X146827211Y-84173368D01*
X146791758Y-84120309D01*
X146744817Y-84050055D01*
X146744811Y-84050048D01*
X146639951Y-83945188D01*
X146639944Y-83945182D01*
X146516633Y-83862789D01*
X146379613Y-83806033D01*
X146379605Y-83806031D01*
X146234158Y-83777100D01*
X146234154Y-83777100D01*
X146085846Y-83777100D01*
X146085841Y-83777100D01*
X145940394Y-83806031D01*
X145940386Y-83806033D01*
X145803366Y-83862789D01*
X145680055Y-83945182D01*
X145680048Y-83945188D01*
X145575188Y-84050048D01*
X145575182Y-84050055D01*
X145492789Y-84173366D01*
X145436033Y-84310386D01*
X145436031Y-84310392D01*
X145411587Y-84433282D01*
X145402821Y-84450038D01*
X145398802Y-84468516D01*
X145380056Y-84493559D01*
X145379202Y-84495192D01*
X145377652Y-84496771D01*
X145275898Y-84598525D01*
X145275897Y-84598525D01*
X145275896Y-84598526D01*
X145168527Y-84705895D01*
X145168523Y-84705901D01*
X145092602Y-84837399D01*
X145092601Y-84837401D01*
X145092601Y-84837402D01*
X145090406Y-84845592D01*
X145077547Y-84866689D01*
X145068478Y-84889671D01*
X145059683Y-84895998D01*
X145054044Y-84905252D01*
X145031817Y-84916049D01*
X145011764Y-84930479D01*
X144996889Y-84933017D01*
X144991198Y-84935783D01*
X144977141Y-84937329D01*
X144888855Y-84941970D01*
X144886585Y-84941431D01*
X144869092Y-84941431D01*
X144827873Y-84937000D01*
X144432129Y-84937000D01*
X144432123Y-84937001D01*
X144372516Y-84943408D01*
X144237671Y-84993702D01*
X144237664Y-84993706D01*
X144122455Y-85079952D01*
X144122452Y-85079955D01*
X144036206Y-85195164D01*
X144036202Y-85195171D01*
X143985908Y-85330017D01*
X143979501Y-85389616D01*
X143979500Y-85389635D01*
X143979500Y-86238640D01*
X143959815Y-86305679D01*
X143907011Y-86351434D01*
X143837853Y-86361378D01*
X143774297Y-86332353D01*
X143767819Y-86326321D01*
X143280419Y-85838921D01*
X143246934Y-85777598D01*
X143244100Y-85751240D01*
X143244100Y-84961499D01*
X143263785Y-84894460D01*
X143316589Y-84848705D01*
X143368100Y-84837499D01*
X143427371Y-84837499D01*
X143427372Y-84837499D01*
X143486983Y-84831091D01*
X143621831Y-84780796D01*
X143737046Y-84694546D01*
X143823296Y-84579331D01*
X143873591Y-84444483D01*
X143880000Y-84384873D01*
X143879999Y-84188968D01*
X143899683Y-84121930D01*
X143952487Y-84076175D01*
X144021645Y-84066231D01*
X144044471Y-84072492D01*
X144044560Y-84072199D01*
X144050376Y-84073962D01*
X144050387Y-84073967D01*
X144195841Y-84102899D01*
X144195845Y-84102900D01*
X144195846Y-84102900D01*
X144344155Y-84102900D01*
X144344156Y-84102899D01*
X144489613Y-84073967D01*
X144626632Y-84017211D01*
X144749946Y-83934816D01*
X144854816Y-83829946D01*
X144937211Y-83706632D01*
X144993967Y-83569613D01*
X145022900Y-83424154D01*
X145022900Y-83275846D01*
X144993967Y-83130387D01*
X144937211Y-82993368D01*
X144934377Y-82989127D01*
X144854817Y-82870055D01*
X144854811Y-82870048D01*
X144749951Y-82765188D01*
X144749944Y-82765182D01*
X144626633Y-82682789D01*
X144489613Y-82626033D01*
X144489605Y-82626031D01*
X144366718Y-82601587D01*
X144304807Y-82569202D01*
X144303228Y-82567651D01*
X143961104Y-82225527D01*
X143961102Y-82225525D01*
X143929797Y-82207451D01*
X143881581Y-82156884D01*
X143867916Y-82094622D01*
X143874976Y-81933904D01*
X143875568Y-81932172D01*
X143875568Y-81926094D01*
X143880000Y-81884873D01*
X143879999Y-81489128D01*
X143879999Y-81489127D01*
X143879998Y-81489111D01*
X143875820Y-81450253D01*
X143875820Y-81423745D01*
X143880000Y-81384873D01*
X143879999Y-80989128D01*
X143879999Y-80989127D01*
X143879998Y-80989111D01*
X143875820Y-80950253D01*
X143875820Y-80923745D01*
X143880000Y-80884873D01*
X143879999Y-80489128D01*
X143879999Y-80489127D01*
X143879998Y-80489111D01*
X143875820Y-80450253D01*
X143875820Y-80423745D01*
X143880000Y-80384873D01*
X143879999Y-79989128D01*
X143879999Y-79989127D01*
X143879998Y-79989111D01*
X143875820Y-79950253D01*
X143875820Y-79923745D01*
X143880000Y-79884873D01*
X143879999Y-79489128D01*
X143879999Y-79489127D01*
X143879998Y-79489111D01*
X143875820Y-79450253D01*
X143875820Y-79423745D01*
X143880000Y-79384873D01*
X143879999Y-78989128D01*
X143879999Y-78989127D01*
X143879998Y-78989111D01*
X143875820Y-78950253D01*
X143875820Y-78923745D01*
X143880000Y-78884873D01*
X143879999Y-78489128D01*
X143879999Y-78489127D01*
X143879998Y-78489111D01*
X143875820Y-78450253D01*
X143875820Y-78423745D01*
X143880000Y-78384873D01*
X143879999Y-77989128D01*
X143879999Y-77989127D01*
X143879998Y-77989111D01*
X143875820Y-77950253D01*
X143875820Y-77923745D01*
X143880000Y-77884873D01*
X143879999Y-77489128D01*
X143879999Y-77489127D01*
X143879998Y-77489111D01*
X143875820Y-77450253D01*
X143875820Y-77423747D01*
X143880000Y-77384873D01*
X143879999Y-77076899D01*
X143899683Y-77009861D01*
X143952487Y-76964106D01*
X144003999Y-76952900D01*
X144064155Y-76952900D01*
X144064156Y-76952899D01*
X144209613Y-76923967D01*
X144346632Y-76867211D01*
X144469946Y-76784816D01*
X144574816Y-76679946D01*
X144657211Y-76556632D01*
X144713967Y-76419613D01*
X144729492Y-76341557D01*
X144761875Y-76279648D01*
X144763366Y-76278130D01*
X145104821Y-75936676D01*
X145166140Y-75903194D01*
X145213293Y-75902116D01*
X145365666Y-75928035D01*
X145372517Y-75930591D01*
X145432127Y-75937000D01*
X145827872Y-75936999D01*
X145827873Y-75936998D01*
X145827885Y-75936998D01*
X145866744Y-75932820D01*
X145893252Y-75932820D01*
X145932127Y-75937000D01*
X146327872Y-75936999D01*
X146327873Y-75936998D01*
X146327885Y-75936998D01*
X146366744Y-75932820D01*
X146393252Y-75932820D01*
X146432127Y-75937000D01*
X146827872Y-75936999D01*
X146827873Y-75936998D01*
X146827885Y-75936998D01*
X146866744Y-75932820D01*
X146893252Y-75932820D01*
X146932127Y-75937000D01*
X147327872Y-75936999D01*
X147327873Y-75936998D01*
X147327885Y-75936998D01*
X147366744Y-75932820D01*
X147393252Y-75932820D01*
X147432127Y-75937000D01*
X147827872Y-75936999D01*
X147827873Y-75936998D01*
X147827885Y-75936998D01*
X147866744Y-75932820D01*
X147893252Y-75932820D01*
X147932127Y-75937000D01*
X148327872Y-75936999D01*
X148327873Y-75936998D01*
X148327885Y-75936998D01*
X148366744Y-75932820D01*
X148393252Y-75932820D01*
X148432127Y-75937000D01*
X148827872Y-75936999D01*
X148827873Y-75936998D01*
X148827885Y-75936998D01*
X148866744Y-75932820D01*
X148893252Y-75932820D01*
X148932127Y-75937000D01*
X149327872Y-75936999D01*
X149327873Y-75936998D01*
X149327885Y-75936998D01*
X149366744Y-75932820D01*
X149393252Y-75932820D01*
X149432127Y-75937000D01*
X149827872Y-75936999D01*
X149827873Y-75936998D01*
X149827885Y-75936998D01*
X149866744Y-75932820D01*
X149893252Y-75932820D01*
X149932127Y-75937000D01*
X150327872Y-75936999D01*
X150327873Y-75936998D01*
X150327885Y-75936998D01*
X150366744Y-75932820D01*
X150393252Y-75932820D01*
X150432127Y-75937000D01*
X150827872Y-75936999D01*
X150827873Y-75936998D01*
X150827885Y-75936998D01*
X150866744Y-75932820D01*
X150893252Y-75932820D01*
X150932127Y-75937000D01*
X151327872Y-75936999D01*
X151327873Y-75936998D01*
X151327885Y-75936998D01*
X151366744Y-75932820D01*
X151393252Y-75932820D01*
X151432127Y-75937000D01*
X151827872Y-75936999D01*
X151827873Y-75936998D01*
X151827885Y-75936998D01*
X151866744Y-75932820D01*
X151893252Y-75932820D01*
X151932127Y-75937000D01*
X152327872Y-75936999D01*
X152387483Y-75930591D01*
X152522331Y-75880296D01*
X152637546Y-75794046D01*
X152723796Y-75678831D01*
X152774091Y-75543983D01*
X152780500Y-75484373D01*
X152780500Y-75346100D01*
X152783050Y-75337414D01*
X152781762Y-75328453D01*
X152792740Y-75304412D01*
X152800185Y-75279061D01*
X152807025Y-75273133D01*
X152810787Y-75264897D01*
X152833021Y-75250607D01*
X152852989Y-75233306D01*
X152863503Y-75231018D01*
X152869565Y-75227123D01*
X152904500Y-75222100D01*
X153038309Y-75222100D01*
X153105348Y-75241785D01*
X153107200Y-75242998D01*
X153239677Y-75331517D01*
X153239690Y-75331524D01*
X153337608Y-75372082D01*
X153385803Y-75392045D01*
X153385805Y-75392045D01*
X153385810Y-75392047D01*
X153540916Y-75422899D01*
X153540919Y-75422900D01*
X153540921Y-75422900D01*
X153699081Y-75422900D01*
X153699082Y-75422899D01*
X153750785Y-75412615D01*
X153854189Y-75392047D01*
X153854192Y-75392045D01*
X153854197Y-75392045D01*
X154000316Y-75331521D01*
X154131819Y-75243653D01*
X154243653Y-75131819D01*
X154331521Y-75000316D01*
X154332671Y-74997541D01*
X154343268Y-74971956D01*
X154392045Y-74854197D01*
X154392385Y-74852486D01*
X157129500Y-74852486D01*
X157129500Y-75147513D01*
X157157344Y-75359001D01*
X157168007Y-75439993D01*
X157243047Y-75720048D01*
X157244361Y-75724951D01*
X157244364Y-75724961D01*
X157357254Y-75997500D01*
X157357258Y-75997510D01*
X157504761Y-76252993D01*
X157684352Y-76487040D01*
X157684358Y-76487047D01*
X157892952Y-76695641D01*
X157892959Y-76695647D01*
X158127006Y-76875238D01*
X158382489Y-77022741D01*
X158382490Y-77022741D01*
X158382493Y-77022743D01*
X158655048Y-77135639D01*
X158940007Y-77211993D01*
X159232494Y-77250500D01*
X159232501Y-77250500D01*
X159527499Y-77250500D01*
X159527506Y-77250500D01*
X159819993Y-77211993D01*
X160104952Y-77135639D01*
X160377507Y-77022743D01*
X160632994Y-76875238D01*
X160867042Y-76695646D01*
X161075646Y-76487042D01*
X161255238Y-76252994D01*
X161402743Y-75997507D01*
X161515639Y-75724952D01*
X161591993Y-75439993D01*
X161630500Y-75147506D01*
X161630500Y-74852494D01*
X161591993Y-74560007D01*
X161515639Y-74275048D01*
X161402743Y-74002493D01*
X161351436Y-73913627D01*
X161255238Y-73747006D01*
X161075647Y-73512959D01*
X161075641Y-73512952D01*
X160867047Y-73304358D01*
X160867040Y-73304352D01*
X160632993Y-73124761D01*
X160377510Y-72977258D01*
X160377500Y-72977254D01*
X160104961Y-72864364D01*
X160104954Y-72864362D01*
X160104952Y-72864361D01*
X159819993Y-72788007D01*
X159771113Y-72781571D01*
X159527513Y-72749500D01*
X159527506Y-72749500D01*
X159232494Y-72749500D01*
X159232486Y-72749500D01*
X158978699Y-72782913D01*
X158940007Y-72788007D01*
X158667256Y-72861090D01*
X158655048Y-72864361D01*
X158655038Y-72864364D01*
X158382499Y-72977254D01*
X158382489Y-72977258D01*
X158127006Y-73124761D01*
X157892959Y-73304352D01*
X157892952Y-73304358D01*
X157684358Y-73512952D01*
X157684352Y-73512959D01*
X157504761Y-73747006D01*
X157357258Y-74002489D01*
X157357254Y-74002499D01*
X157244364Y-74275038D01*
X157244361Y-74275048D01*
X157173123Y-74540916D01*
X157168008Y-74560004D01*
X157168006Y-74560015D01*
X157129500Y-74852486D01*
X154392385Y-74852486D01*
X154395341Y-74837627D01*
X154398004Y-74824242D01*
X154398004Y-74824240D01*
X154422899Y-74699083D01*
X154422900Y-74699081D01*
X154422900Y-74540918D01*
X154422899Y-74540916D01*
X154392047Y-74385810D01*
X154392044Y-74385801D01*
X154331524Y-74239690D01*
X154331517Y-74239677D01*
X154243653Y-74108181D01*
X154243650Y-74108177D01*
X154131822Y-73996349D01*
X154131818Y-73996346D01*
X154000322Y-73908482D01*
X154000309Y-73908475D01*
X153854198Y-73847955D01*
X153854189Y-73847952D01*
X153699082Y-73817100D01*
X153699079Y-73817100D01*
X153540921Y-73817100D01*
X153540918Y-73817100D01*
X153385810Y-73847952D01*
X153385801Y-73847955D01*
X153239690Y-73908475D01*
X153239677Y-73908482D01*
X153107200Y-73997002D01*
X153089153Y-74002652D01*
X153073244Y-74012877D01*
X153042284Y-74017328D01*
X153040523Y-74017880D01*
X153038309Y-74017900D01*
X152903093Y-74017900D01*
X152836054Y-73998215D01*
X152790299Y-73945411D01*
X152779803Y-73907153D01*
X152774091Y-73854016D01*
X152723797Y-73719171D01*
X152723793Y-73719164D01*
X152637547Y-73603955D01*
X152637544Y-73603952D01*
X152522335Y-73517706D01*
X152522328Y-73517702D01*
X152387486Y-73467410D01*
X152387485Y-73467409D01*
X152387483Y-73467409D01*
X152327873Y-73461000D01*
X152327863Y-73461000D01*
X151932130Y-73461000D01*
X151932119Y-73461001D01*
X151893253Y-73465179D01*
X151866748Y-73465179D01*
X151827874Y-73461000D01*
X151432130Y-73461000D01*
X151432119Y-73461001D01*
X151393253Y-73465179D01*
X151366748Y-73465179D01*
X151327874Y-73461000D01*
X150932130Y-73461000D01*
X150932119Y-73461001D01*
X150893253Y-73465179D01*
X150866748Y-73465179D01*
X150827874Y-73461000D01*
X150432130Y-73461000D01*
X150432119Y-73461001D01*
X150393253Y-73465179D01*
X150366748Y-73465179D01*
X150327874Y-73461000D01*
X149932130Y-73461000D01*
X149932119Y-73461001D01*
X149893253Y-73465179D01*
X149866748Y-73465179D01*
X149827874Y-73461000D01*
X149432130Y-73461000D01*
X149432119Y-73461001D01*
X149393253Y-73465179D01*
X149366748Y-73465179D01*
X149327874Y-73461000D01*
X148932130Y-73461000D01*
X148932119Y-73461001D01*
X148893253Y-73465179D01*
X148866748Y-73465179D01*
X148827874Y-73461000D01*
X148432130Y-73461000D01*
X148432119Y-73461001D01*
X148393253Y-73465179D01*
X148366748Y-73465179D01*
X148327874Y-73461000D01*
X147932130Y-73461000D01*
X147932119Y-73461001D01*
X147893253Y-73465179D01*
X147866748Y-73465179D01*
X147827874Y-73461000D01*
X147432130Y-73461000D01*
X147432119Y-73461001D01*
X147393253Y-73465179D01*
X147366748Y-73465179D01*
X147327874Y-73461000D01*
X146932130Y-73461000D01*
X146932119Y-73461001D01*
X146893253Y-73465179D01*
X146866748Y-73465179D01*
X146827874Y-73461000D01*
X146432130Y-73461000D01*
X146432119Y-73461001D01*
X146393253Y-73465179D01*
X146366748Y-73465179D01*
X146327875Y-73461000D01*
X145954000Y-73461000D01*
X145886961Y-73441315D01*
X145841206Y-73388511D01*
X145830000Y-73337000D01*
X145830000Y-73325000D01*
X145404500Y-73325000D01*
X145395844Y-73322458D01*
X145386914Y-73323747D01*
X145362838Y-73312766D01*
X145337461Y-73305315D01*
X145331554Y-73298498D01*
X145323344Y-73294754D01*
X145309026Y-73272500D01*
X145291706Y-73252511D01*
X145289423Y-73242029D01*
X145285540Y-73235994D01*
X145280500Y-73201062D01*
X145280499Y-73199062D01*
X145300150Y-73132013D01*
X145352931Y-73086231D01*
X145404499Y-73075000D01*
X145830000Y-73075000D01*
X145830000Y-72977172D01*
X145829999Y-72977155D01*
X145823598Y-72917627D01*
X145823596Y-72917620D01*
X145773354Y-72782913D01*
X145773350Y-72782906D01*
X145687190Y-72667812D01*
X145687187Y-72667809D01*
X145572093Y-72581649D01*
X145572086Y-72581645D01*
X145437379Y-72531403D01*
X145437372Y-72531401D01*
X145377844Y-72525000D01*
X145330000Y-72525000D01*
X145330000Y-72563802D01*
X145326206Y-72576721D01*
X145327168Y-72590153D01*
X145316554Y-72609593D01*
X145310315Y-72630841D01*
X145300139Y-72639658D01*
X145293686Y-72651478D01*
X145274247Y-72662094D01*
X145257511Y-72676596D01*
X145244184Y-72678512D01*
X145232365Y-72684967D01*
X145210273Y-72683388D01*
X145188353Y-72686540D01*
X145174584Y-72680837D01*
X145162673Y-72679986D01*
X145131695Y-72663073D01*
X145129695Y-72661576D01*
X145087821Y-72605645D01*
X145080000Y-72562305D01*
X145080000Y-72525000D01*
X145032155Y-72525000D01*
X144972624Y-72531401D01*
X144965073Y-72533186D01*
X144964684Y-72531542D01*
X144904348Y-72535853D01*
X144887614Y-72530939D01*
X144887491Y-72530910D01*
X144887483Y-72530909D01*
X144827873Y-72524500D01*
X144827863Y-72524500D01*
X144482130Y-72524500D01*
X144482123Y-72524501D01*
X144422516Y-72530908D01*
X144287671Y-72581202D01*
X144287664Y-72581206D01*
X144172455Y-72667452D01*
X144172452Y-72667455D01*
X144086206Y-72782664D01*
X144086202Y-72782671D01*
X144035908Y-72917517D01*
X144029501Y-72977116D01*
X144029500Y-72977135D01*
X144029500Y-73125452D01*
X144028439Y-73141635D01*
X144027900Y-73145729D01*
X144027900Y-73719061D01*
X144020082Y-73762394D01*
X143985908Y-73854017D01*
X143979501Y-73913616D01*
X143979500Y-73913635D01*
X143979500Y-75307639D01*
X143970854Y-75337081D01*
X143964331Y-75367068D01*
X143960577Y-75372082D01*
X143959815Y-75374678D01*
X143943184Y-75395316D01*
X143925704Y-75412797D01*
X143911928Y-75426573D01*
X143850604Y-75460057D01*
X143848439Y-75460507D01*
X143770394Y-75476031D01*
X143770386Y-75476033D01*
X143633366Y-75532789D01*
X143510055Y-75615182D01*
X143510048Y-75615188D01*
X143405188Y-75720048D01*
X143405182Y-75720055D01*
X143322789Y-75843366D01*
X143274497Y-75959953D01*
X143230655Y-76014357D01*
X143164361Y-76036421D01*
X143159936Y-76036500D01*
X142024361Y-76036500D01*
X141994924Y-76027856D01*
X141964935Y-76021333D01*
X141959917Y-76017577D01*
X141957322Y-76016815D01*
X141936680Y-76000182D01*
X141890652Y-75954154D01*
X141839698Y-75903200D01*
X141666818Y-75730320D01*
X141633333Y-75668997D01*
X141630499Y-75642639D01*
X141630499Y-74957129D01*
X141630498Y-74957123D01*
X141624091Y-74897516D01*
X141573797Y-74762671D01*
X141573793Y-74762664D01*
X141487547Y-74647455D01*
X141487544Y-74647452D01*
X141372335Y-74561206D01*
X141372328Y-74561202D01*
X141237482Y-74510908D01*
X141237483Y-74510908D01*
X141177883Y-74504501D01*
X141177881Y-74504500D01*
X141177873Y-74504500D01*
X141177864Y-74504500D01*
X139682129Y-74504500D01*
X139682123Y-74504501D01*
X139622512Y-74510909D01*
X139617586Y-74512073D01*
X139616336Y-74512877D01*
X139581401Y-74517900D01*
X139454557Y-74517900D01*
X139400697Y-74504152D01*
X139400641Y-74504303D01*
X139399240Y-74503780D01*
X139395128Y-74502731D01*
X139392330Y-74501203D01*
X139257486Y-74450910D01*
X139257485Y-74450909D01*
X139257483Y-74450909D01*
X139197873Y-74444500D01*
X139197863Y-74444500D01*
X138852130Y-74444500D01*
X138852123Y-74444501D01*
X138792515Y-74450909D01*
X138784971Y-74452692D01*
X138784675Y-74451439D01*
X138722926Y-74455855D01*
X138709357Y-74451870D01*
X138707372Y-74451401D01*
X138647844Y-74445000D01*
X138600000Y-74445000D01*
X138600000Y-74482305D01*
X138598712Y-74486690D01*
X138599684Y-74491158D01*
X138588957Y-74519912D01*
X138580315Y-74549344D01*
X138576415Y-74553532D01*
X138575263Y-74556621D01*
X138550305Y-74581576D01*
X138548305Y-74583073D01*
X138482839Y-74607487D01*
X138414567Y-74592631D01*
X138365164Y-74543223D01*
X138350000Y-74483802D01*
X138350000Y-74445000D01*
X138302155Y-74445000D01*
X138242627Y-74451401D01*
X138242620Y-74451403D01*
X138107913Y-74501645D01*
X138107906Y-74501649D01*
X137992812Y-74587809D01*
X137992809Y-74587812D01*
X137906649Y-74702906D01*
X137906645Y-74702913D01*
X137856403Y-74837620D01*
X137856401Y-74837627D01*
X137850000Y-74897155D01*
X137850000Y-74995000D01*
X138275500Y-74995000D01*
X138284155Y-74997541D01*
X138293086Y-74996253D01*
X138317161Y-75007233D01*
X138342539Y-75014685D01*
X138348445Y-75021501D01*
X138356656Y-75025246D01*
X138370973Y-75047499D01*
X138388294Y-75067489D01*
X138390576Y-75077970D01*
X138394460Y-75084006D01*
X138399500Y-75118938D01*
X138399501Y-75120938D01*
X138379850Y-75187987D01*
X138327069Y-75233769D01*
X138275501Y-75245000D01*
X137850000Y-75245000D01*
X137850000Y-75342844D01*
X137856401Y-75402372D01*
X137856403Y-75402379D01*
X137906645Y-75537086D01*
X137906649Y-75537093D01*
X137992809Y-75652187D01*
X137992812Y-75652190D01*
X138107906Y-75738350D01*
X138107913Y-75738354D01*
X138242620Y-75788596D01*
X138242627Y-75788598D01*
X138302155Y-75794999D01*
X138302172Y-75795000D01*
X138350000Y-75795000D01*
X138350000Y-75756197D01*
X138353793Y-75743277D01*
X138352832Y-75729846D01*
X138363445Y-75710405D01*
X138369685Y-75689158D01*
X138379860Y-75680340D01*
X138386314Y-75668521D01*
X138405752Y-75657904D01*
X138422489Y-75643403D01*
X138435815Y-75641486D01*
X138447635Y-75635032D01*
X138469726Y-75636610D01*
X138491647Y-75633459D01*
X138505415Y-75639161D01*
X138517327Y-75640013D01*
X138548304Y-75656925D01*
X138549611Y-75657904D01*
X138550305Y-75658423D01*
X138592179Y-75714354D01*
X138600000Y-75757694D01*
X138600000Y-75795000D01*
X138647828Y-75795000D01*
X138647844Y-75794999D01*
X138707375Y-75788598D01*
X138714926Y-75786814D01*
X138715315Y-75788462D01*
X138775624Y-75784140D01*
X138792387Y-75789060D01*
X138792511Y-75789088D01*
X138792517Y-75789091D01*
X138852127Y-75795500D01*
X139150938Y-75795499D01*
X139217977Y-75815183D01*
X139263732Y-75867987D01*
X139267120Y-75876165D01*
X139286203Y-75927330D01*
X139286206Y-75927335D01*
X139372452Y-76042544D01*
X139377226Y-76047318D01*
X139378149Y-76049010D01*
X139379813Y-76049984D01*
X139394820Y-76079540D01*
X139410711Y-76108641D01*
X139410573Y-76110563D01*
X139411446Y-76112282D01*
X139408092Y-76145262D01*
X139405727Y-76178333D01*
X139404510Y-76180484D01*
X139404377Y-76181793D01*
X139400278Y-76187964D01*
X139386542Y-76212250D01*
X139377355Y-76223784D01*
X139372454Y-76227454D01*
X139341474Y-76268836D01*
X139340303Y-76270308D01*
X139313170Y-76289378D01*
X139286637Y-76309240D01*
X139284535Y-76309503D01*
X139283140Y-76310485D01*
X139273565Y-76310881D01*
X139230056Y-76316347D01*
X139220147Y-76315282D01*
X139212873Y-76314500D01*
X139212870Y-76314500D01*
X138867130Y-76314500D01*
X138867123Y-76314501D01*
X138807515Y-76320909D01*
X138799971Y-76322692D01*
X138799675Y-76321439D01*
X138737926Y-76325855D01*
X138724357Y-76321870D01*
X138722372Y-76321401D01*
X138662844Y-76315000D01*
X138615000Y-76315000D01*
X138615000Y-76352305D01*
X138613712Y-76356690D01*
X138614684Y-76361158D01*
X138603957Y-76389912D01*
X138595315Y-76419344D01*
X138591415Y-76423532D01*
X138590263Y-76426621D01*
X138565305Y-76451576D01*
X138563305Y-76453073D01*
X138497839Y-76477487D01*
X138429567Y-76462631D01*
X138380164Y-76413223D01*
X138365000Y-76353802D01*
X138365000Y-76315000D01*
X138317155Y-76315000D01*
X138257627Y-76321401D01*
X138257620Y-76321403D01*
X138122913Y-76371645D01*
X138122906Y-76371649D01*
X138007812Y-76457809D01*
X138007809Y-76457812D01*
X137921649Y-76572906D01*
X137921645Y-76572913D01*
X137871403Y-76707620D01*
X137871401Y-76707627D01*
X137865000Y-76767155D01*
X137865000Y-76865000D01*
X138290501Y-76865000D01*
X138299186Y-76867550D01*
X138308148Y-76866262D01*
X138332188Y-76877240D01*
X138357540Y-76884685D01*
X138363467Y-76891525D01*
X138371704Y-76895287D01*
X138385993Y-76917521D01*
X138403295Y-76937489D01*
X138405582Y-76948003D01*
X138409478Y-76954065D01*
X138414500Y-76988996D01*
X138414501Y-76991000D01*
X138394816Y-77058039D01*
X138342012Y-77103794D01*
X138290501Y-77115000D01*
X137865000Y-77115000D01*
X137865000Y-77216149D01*
X137863444Y-77216149D01*
X137848754Y-77278169D01*
X137821100Y-77311436D01*
X137812630Y-77318598D01*
X137784698Y-77334725D01*
X137736150Y-77383271D01*
X137732190Y-77386621D01*
X137704784Y-77398739D01*
X137678478Y-77413104D01*
X137668732Y-77414683D01*
X137668289Y-77414879D01*
X137667898Y-77414818D01*
X137665376Y-77415226D01*
X137651952Y-77416669D01*
X137612515Y-77420909D01*
X137604971Y-77422692D01*
X137604675Y-77421439D01*
X137542926Y-77425855D01*
X137529357Y-77421870D01*
X137527372Y-77421401D01*
X137467844Y-77415000D01*
X137420000Y-77415000D01*
X137420000Y-77452305D01*
X137418712Y-77456690D01*
X137419684Y-77461158D01*
X137408957Y-77489912D01*
X137400315Y-77519344D01*
X137396415Y-77523532D01*
X137395263Y-77526621D01*
X137370305Y-77551576D01*
X137368305Y-77553073D01*
X137302839Y-77577487D01*
X137234567Y-77562631D01*
X137185164Y-77513223D01*
X137170000Y-77453802D01*
X137170000Y-77415000D01*
X137122155Y-77415000D01*
X137062627Y-77421401D01*
X137062620Y-77421403D01*
X136927913Y-77471645D01*
X136927906Y-77471649D01*
X136812812Y-77557809D01*
X136812809Y-77557812D01*
X136726649Y-77672906D01*
X136726645Y-77672913D01*
X136676403Y-77807620D01*
X136676401Y-77807627D01*
X136670000Y-77867155D01*
X136670000Y-77965000D01*
X137095500Y-77965000D01*
X137104155Y-77967541D01*
X137113086Y-77966253D01*
X137137161Y-77977233D01*
X137162539Y-77984685D01*
X137168445Y-77991501D01*
X137176656Y-77995246D01*
X137190973Y-78017499D01*
X137208294Y-78037489D01*
X137210576Y-78047970D01*
X137214460Y-78054006D01*
X137219500Y-78088938D01*
X137219501Y-78090938D01*
X137199850Y-78157987D01*
X137147069Y-78203769D01*
X137095501Y-78215000D01*
X136670000Y-78215000D01*
X136670000Y-78312844D01*
X136676401Y-78372372D01*
X136676403Y-78372379D01*
X136726645Y-78507086D01*
X136726647Y-78507089D01*
X136785528Y-78585743D01*
X136809946Y-78651207D01*
X136795095Y-78719481D01*
X136785530Y-78734364D01*
X136771648Y-78752907D01*
X136771645Y-78752913D01*
X136721403Y-78887620D01*
X136721401Y-78887627D01*
X136715000Y-78947155D01*
X136715000Y-79045000D01*
X137140501Y-79045000D01*
X137149186Y-79047550D01*
X137158148Y-79046262D01*
X137182188Y-79057240D01*
X137207540Y-79064685D01*
X137213467Y-79071525D01*
X137221704Y-79075287D01*
X137235993Y-79097521D01*
X137253295Y-79117489D01*
X137255582Y-79128003D01*
X137259478Y-79134065D01*
X137264500Y-79168996D01*
X137264501Y-79171000D01*
X137244816Y-79238039D01*
X137192012Y-79283794D01*
X137140501Y-79295000D01*
X136715000Y-79295000D01*
X136715000Y-79392844D01*
X136721401Y-79452372D01*
X136721403Y-79452379D01*
X136771645Y-79587086D01*
X136771649Y-79587093D01*
X136857809Y-79702187D01*
X136857812Y-79702190D01*
X136972906Y-79788350D01*
X136972913Y-79788354D01*
X137107620Y-79838596D01*
X137107627Y-79838598D01*
X137167155Y-79844999D01*
X137167172Y-79845000D01*
X137189952Y-79845000D01*
X137256991Y-79864685D01*
X137302746Y-79917489D01*
X137312891Y-79952817D01*
X137313299Y-79955921D01*
X137352602Y-80102600D01*
X137352602Y-80102601D01*
X137428522Y-80234098D01*
X137428527Y-80234104D01*
X137880792Y-80686369D01*
X137914277Y-80747692D01*
X137909293Y-80817384D01*
X137867421Y-80873317D01*
X137817304Y-80895667D01*
X137805807Y-80897953D01*
X137805801Y-80897955D01*
X137659690Y-80958475D01*
X137659677Y-80958482D01*
X137528181Y-81046346D01*
X137528177Y-81046349D01*
X137416349Y-81158177D01*
X137416346Y-81158181D01*
X137328482Y-81289677D01*
X137328475Y-81289690D01*
X137267955Y-81435801D01*
X137267952Y-81435810D01*
X137237100Y-81590916D01*
X137237100Y-81749083D01*
X137267952Y-81904189D01*
X137267955Y-81904198D01*
X137328475Y-82050309D01*
X137328482Y-82050322D01*
X137416346Y-82181818D01*
X137416349Y-82181822D01*
X137528833Y-82294306D01*
X137562318Y-82355629D01*
X137557334Y-82425321D01*
X137528833Y-82469668D01*
X137305568Y-82692932D01*
X137244245Y-82726417D01*
X137242079Y-82726868D01*
X137085809Y-82757953D01*
X137085801Y-82757955D01*
X136939690Y-82818475D01*
X136939677Y-82818482D01*
X136808181Y-82906346D01*
X136808177Y-82906349D01*
X136696349Y-83018177D01*
X136696346Y-83018181D01*
X136608482Y-83149677D01*
X136608475Y-83149690D01*
X136547955Y-83295801D01*
X136547952Y-83295810D01*
X136517100Y-83450916D01*
X136517100Y-83609083D01*
X136547952Y-83764189D01*
X136547955Y-83764198D01*
X136608475Y-83910309D01*
X136608482Y-83910322D01*
X136696346Y-84041818D01*
X136696349Y-84041822D01*
X136808177Y-84153650D01*
X136808181Y-84153653D01*
X136939677Y-84241517D01*
X136939690Y-84241524D01*
X137047554Y-84286202D01*
X137085803Y-84302045D01*
X137085805Y-84302045D01*
X137085810Y-84302047D01*
X137240916Y-84332899D01*
X137240919Y-84332900D01*
X137240921Y-84332900D01*
X137399081Y-84332900D01*
X137399082Y-84332899D01*
X137450785Y-84322615D01*
X137554189Y-84302047D01*
X137554192Y-84302045D01*
X137554197Y-84302045D01*
X137700316Y-84241521D01*
X137831819Y-84153653D01*
X137943653Y-84041819D01*
X138031521Y-83910316D01*
X138092045Y-83764197D01*
X138092066Y-83764091D01*
X138123131Y-83607920D01*
X138155516Y-83546009D01*
X138157013Y-83544484D01*
X139295911Y-82405585D01*
X139357232Y-82372102D01*
X139426923Y-82377086D01*
X139445066Y-82383852D01*
X139472517Y-82394091D01*
X139532127Y-82400500D01*
X139877872Y-82400499D01*
X139937483Y-82394091D01*
X139937485Y-82394090D01*
X139937487Y-82394090D01*
X139945031Y-82392308D01*
X139945377Y-82393775D01*
X140006342Y-82389408D01*
X140021378Y-82393822D01*
X140022511Y-82394089D01*
X140022517Y-82394091D01*
X140082127Y-82400500D01*
X140335444Y-82400499D01*
X140402483Y-82420183D01*
X140448238Y-82472987D01*
X140458733Y-82537751D01*
X140454500Y-82577127D01*
X140454500Y-82577134D01*
X140454500Y-82577135D01*
X140454500Y-82922869D01*
X140454501Y-82922876D01*
X140459426Y-82968689D01*
X140447019Y-83037448D01*
X140405028Y-83085043D01*
X140358183Y-83116344D01*
X140358177Y-83116349D01*
X140246349Y-83228177D01*
X140246346Y-83228181D01*
X140158482Y-83359677D01*
X140158475Y-83359690D01*
X140097955Y-83505801D01*
X140097952Y-83505810D01*
X140067100Y-83660916D01*
X140067100Y-83819083D01*
X140097952Y-83974189D01*
X140097955Y-83974198D01*
X140158475Y-84120309D01*
X140158482Y-84120322D01*
X140246346Y-84251818D01*
X140246349Y-84251822D01*
X140358177Y-84363650D01*
X140358181Y-84363653D01*
X140489677Y-84451517D01*
X140489690Y-84451524D01*
X140592419Y-84494075D01*
X140635803Y-84512045D01*
X140635805Y-84512045D01*
X140635810Y-84512047D01*
X140790916Y-84542899D01*
X140790919Y-84542900D01*
X140790921Y-84542900D01*
X140949081Y-84542900D01*
X140949082Y-84542899D01*
X141000785Y-84532615D01*
X141104189Y-84512047D01*
X141104192Y-84512045D01*
X141104197Y-84512045D01*
X141229846Y-84460000D01*
X141250309Y-84451524D01*
X141250309Y-84451523D01*
X141250316Y-84451521D01*
X141250321Y-84451517D01*
X141255691Y-84448648D01*
X141256245Y-84449685D01*
X141316930Y-84430677D01*
X141384312Y-84449155D01*
X141431007Y-84501129D01*
X141435338Y-84511323D01*
X141460703Y-84579330D01*
X141460706Y-84579335D01*
X141546952Y-84694544D01*
X141546955Y-84694547D01*
X141662164Y-84780793D01*
X141662171Y-84780797D01*
X141701198Y-84795353D01*
X141797017Y-84831091D01*
X141856627Y-84837500D01*
X141915900Y-84837499D01*
X141982938Y-84857182D01*
X142028694Y-84909986D01*
X142039900Y-84961499D01*
X142039900Y-86131268D01*
X142079367Y-86278556D01*
X142080933Y-86284402D01*
X142156439Y-86415184D01*
X142160200Y-86421698D01*
X142160202Y-86421701D01*
X145621581Y-89883079D01*
X145655066Y-89944402D01*
X145657900Y-89970760D01*
X145657900Y-90249240D01*
X145638215Y-90316279D01*
X145621581Y-90336921D01*
X144156921Y-91801581D01*
X144095598Y-91835066D01*
X144069240Y-91837900D01*
X139952913Y-91837900D01*
X139920820Y-91833675D01*
X139899268Y-91827900D01*
X139899267Y-91827900D01*
X139650233Y-91827900D01*
X139618140Y-91823675D01*
X139559268Y-91807900D01*
X139559266Y-91807900D01*
X139351691Y-91807900D01*
X139284652Y-91788215D01*
X139282800Y-91787002D01*
X139150322Y-91698482D01*
X139150309Y-91698475D01*
X139004198Y-91637955D01*
X139004189Y-91637952D01*
X138849082Y-91607100D01*
X138849079Y-91607100D01*
X138690921Y-91607100D01*
X138690918Y-91607100D01*
X138535810Y-91637952D01*
X138535801Y-91637955D01*
X138389690Y-91698475D01*
X138389677Y-91698482D01*
X138258181Y-91786346D01*
X138258177Y-91786349D01*
X138146349Y-91898177D01*
X138146346Y-91898181D01*
X138058482Y-92029677D01*
X138058475Y-92029690D01*
X137997956Y-92175798D01*
X137997953Y-92175810D01*
X137989543Y-92218091D01*
X137957158Y-92280002D01*
X137896443Y-92314576D01*
X137867926Y-92317900D01*
X136594635Y-92317900D01*
X136527596Y-92298215D01*
X136515972Y-92289754D01*
X136511824Y-92286350D01*
X136380322Y-92198482D01*
X136380309Y-92198475D01*
X136234198Y-92137955D01*
X136234189Y-92137952D01*
X136079082Y-92107100D01*
X136079079Y-92107100D01*
X135920921Y-92107100D01*
X135920918Y-92107100D01*
X135765810Y-92137952D01*
X135765802Y-92137955D01*
X135723550Y-92155456D01*
X135654081Y-92162923D01*
X135591602Y-92131647D01*
X135555951Y-92071558D01*
X135552100Y-92040894D01*
X135552100Y-91520733D01*
X135552100Y-91520732D01*
X135511067Y-91367598D01*
X135431800Y-91230302D01*
X135319698Y-91118200D01*
X134724312Y-90522814D01*
X134690827Y-90461491D01*
X134694062Y-90396815D01*
X134707246Y-90356243D01*
X134740500Y-90146287D01*
X134740500Y-89933713D01*
X134707246Y-89723757D01*
X134641557Y-89521588D01*
X134545051Y-89332184D01*
X134545049Y-89332181D01*
X134545048Y-89332179D01*
X134420109Y-89160213D01*
X134269786Y-89009890D01*
X134097820Y-88884951D01*
X134097115Y-88884591D01*
X134089054Y-88880485D01*
X134038259Y-88832512D01*
X134021463Y-88764692D01*
X134043999Y-88698556D01*
X134089054Y-88659515D01*
X134097816Y-88655051D01*
X134163250Y-88607511D01*
X134269786Y-88530109D01*
X134269788Y-88530106D01*
X134269792Y-88530104D01*
X134420104Y-88379792D01*
X134420106Y-88379788D01*
X134420109Y-88379786D01*
X134545048Y-88207820D01*
X134545047Y-88207820D01*
X134545051Y-88207816D01*
X134641557Y-88018412D01*
X134707246Y-87816243D01*
X134740500Y-87606287D01*
X134740500Y-87393713D01*
X134707246Y-87183757D01*
X134641557Y-86981588D01*
X134545051Y-86792184D01*
X134545049Y-86792181D01*
X134545048Y-86792179D01*
X134420109Y-86620213D01*
X134269786Y-86469890D01*
X134097817Y-86344949D01*
X134088504Y-86340204D01*
X134037707Y-86292230D01*
X134020912Y-86224409D01*
X134043449Y-86158274D01*
X134088507Y-86119232D01*
X134097555Y-86114622D01*
X134151716Y-86075270D01*
X134151717Y-86075270D01*
X133519408Y-85442962D01*
X133582993Y-85425925D01*
X133697007Y-85360099D01*
X133790099Y-85267007D01*
X133855925Y-85152993D01*
X133872962Y-85089408D01*
X134505270Y-85721717D01*
X134505270Y-85721716D01*
X134544622Y-85667554D01*
X134641095Y-85478217D01*
X134706757Y-85276130D01*
X134706757Y-85276127D01*
X134740000Y-85066246D01*
X134740000Y-84853753D01*
X134706757Y-84643872D01*
X134706757Y-84643869D01*
X134641095Y-84441782D01*
X134544624Y-84252449D01*
X134505270Y-84198282D01*
X134505269Y-84198282D01*
X133872962Y-84830590D01*
X133855925Y-84767007D01*
X133790099Y-84652993D01*
X133697007Y-84559901D01*
X133582993Y-84494075D01*
X133519409Y-84477037D01*
X134189627Y-83806818D01*
X134250950Y-83773333D01*
X134277307Y-83770499D01*
X134287872Y-83770499D01*
X134347483Y-83764091D01*
X134482331Y-83713796D01*
X134597546Y-83627546D01*
X134683796Y-83512331D01*
X134734091Y-83377483D01*
X134740500Y-83317873D01*
X134740499Y-81522128D01*
X134734091Y-81462517D01*
X134724573Y-81436999D01*
X134683797Y-81327671D01*
X134683793Y-81327664D01*
X134597547Y-81212455D01*
X134597544Y-81212452D01*
X134482335Y-81126206D01*
X134482328Y-81126202D01*
X134347482Y-81075908D01*
X134347483Y-81075908D01*
X134287883Y-81069501D01*
X134287881Y-81069500D01*
X134287873Y-81069500D01*
X134287864Y-81069500D01*
X132492129Y-81069500D01*
X132492123Y-81069501D01*
X132432516Y-81075908D01*
X132297671Y-81126202D01*
X132297664Y-81126206D01*
X132182455Y-81212452D01*
X132182452Y-81212455D01*
X132096206Y-81327664D01*
X132096202Y-81327671D01*
X132045908Y-81462517D01*
X132040815Y-81509896D01*
X132039501Y-81522123D01*
X132039500Y-81522135D01*
X132039500Y-83317870D01*
X132039501Y-83317876D01*
X132045908Y-83377483D01*
X132096202Y-83512328D01*
X132096206Y-83512335D01*
X132182452Y-83627544D01*
X132182455Y-83627547D01*
X132297664Y-83713793D01*
X132297671Y-83713797D01*
X132342618Y-83730561D01*
X132432517Y-83764091D01*
X132492127Y-83770500D01*
X132502685Y-83770499D01*
X132569723Y-83790179D01*
X132590372Y-83806818D01*
X133260591Y-84477037D01*
X133197007Y-84494075D01*
X133082993Y-84559901D01*
X132989901Y-84652993D01*
X132924075Y-84767007D01*
X132907037Y-84830591D01*
X132274728Y-84198282D01*
X132274727Y-84198282D01*
X132235380Y-84252439D01*
X132138904Y-84441782D01*
X132073242Y-84643869D01*
X132073242Y-84643872D01*
X132040000Y-84853753D01*
X132040000Y-85066246D01*
X132073242Y-85276127D01*
X132073242Y-85276130D01*
X132138904Y-85478217D01*
X132235375Y-85667550D01*
X132274728Y-85721716D01*
X132907036Y-85089407D01*
X132924075Y-85152993D01*
X132989901Y-85267007D01*
X133082993Y-85360099D01*
X133197007Y-85425925D01*
X133260590Y-85442962D01*
X132628282Y-86075269D01*
X132628282Y-86075270D01*
X132682452Y-86114626D01*
X132682451Y-86114626D01*
X132691495Y-86119234D01*
X132742292Y-86167208D01*
X132759087Y-86235029D01*
X132736550Y-86301164D01*
X132691499Y-86340202D01*
X132682182Y-86344949D01*
X132510213Y-86469890D01*
X132359890Y-86620213D01*
X132234951Y-86792179D01*
X132138444Y-86981585D01*
X132072753Y-87183760D01*
X132056860Y-87284107D01*
X132039500Y-87393713D01*
X132039500Y-87606287D01*
X132041818Y-87620921D01*
X132066867Y-87779079D01*
X132072754Y-87816243D01*
X132134353Y-88005825D01*
X132138444Y-88018414D01*
X132234951Y-88207820D01*
X132359890Y-88379786D01*
X132510213Y-88530109D01*
X132682182Y-88655050D01*
X132690946Y-88659516D01*
X132741742Y-88707491D01*
X132758536Y-88775312D01*
X132735998Y-88841447D01*
X132690946Y-88880484D01*
X132682182Y-88884949D01*
X132510213Y-89009890D01*
X132359890Y-89160213D01*
X132234951Y-89332179D01*
X132138444Y-89521585D01*
X132072753Y-89723760D01*
X132039500Y-89933713D01*
X132039500Y-90146286D01*
X132072753Y-90356239D01*
X132072753Y-90356241D01*
X132072754Y-90356243D01*
X132126876Y-90522814D01*
X132138444Y-90558414D01*
X132234951Y-90747820D01*
X132359890Y-90919786D01*
X132510213Y-91070109D01*
X132682182Y-91195050D01*
X132690946Y-91199516D01*
X132741742Y-91247491D01*
X132758536Y-91315312D01*
X132735998Y-91381447D01*
X132690946Y-91420484D01*
X132682182Y-91424949D01*
X132510213Y-91549890D01*
X132359890Y-91700213D01*
X132234951Y-91872179D01*
X132138444Y-92061585D01*
X132072753Y-92263760D01*
X132039500Y-92473713D01*
X132039500Y-92686286D01*
X132068029Y-92866415D01*
X132072754Y-92896243D01*
X132133278Y-93082517D01*
X132138444Y-93098414D01*
X132234951Y-93287820D01*
X132359890Y-93459786D01*
X132510213Y-93610109D01*
X132682182Y-93735050D01*
X132690946Y-93739516D01*
X132741742Y-93787491D01*
X132758536Y-93855312D01*
X132735998Y-93921447D01*
X132690946Y-93960484D01*
X132682182Y-93964949D01*
X132510213Y-94089890D01*
X132359890Y-94240213D01*
X132234951Y-94412179D01*
X132138444Y-94601585D01*
X132072753Y-94803760D01*
X132039500Y-95013713D01*
X132039500Y-95226286D01*
X132069177Y-95413663D01*
X132072754Y-95436243D01*
X132113779Y-95562505D01*
X132138444Y-95638414D01*
X132234951Y-95827820D01*
X132359890Y-95999786D01*
X132510213Y-96150109D01*
X132682182Y-96275050D01*
X132690946Y-96279516D01*
X132741742Y-96327491D01*
X132758536Y-96395312D01*
X132735998Y-96461447D01*
X132690946Y-96500484D01*
X132682182Y-96504949D01*
X132510213Y-96629890D01*
X132359890Y-96780213D01*
X132234951Y-96952179D01*
X132138444Y-97141585D01*
X132072753Y-97343760D01*
X132039500Y-97553713D01*
X132039500Y-97766286D01*
X132068676Y-97950500D01*
X132072754Y-97976243D01*
X132135976Y-98170820D01*
X132138444Y-98178414D01*
X132234951Y-98367820D01*
X132359890Y-98539786D01*
X132510213Y-98690109D01*
X132682182Y-98815050D01*
X132690946Y-98819516D01*
X132741742Y-98867491D01*
X132758536Y-98935312D01*
X132735998Y-99001447D01*
X132690946Y-99040484D01*
X132682182Y-99044949D01*
X132510213Y-99169890D01*
X132359890Y-99320213D01*
X132234951Y-99492179D01*
X132138444Y-99681585D01*
X132072753Y-99883760D01*
X132039500Y-100093713D01*
X132039500Y-100306286D01*
X132070574Y-100502483D01*
X132072754Y-100516243D01*
X132138258Y-100717844D01*
X132138444Y-100718414D01*
X132234951Y-100907820D01*
X132359890Y-101079786D01*
X132510213Y-101230109D01*
X132682179Y-101355048D01*
X132682181Y-101355049D01*
X132682184Y-101355051D01*
X132871588Y-101451557D01*
X133073757Y-101517246D01*
X133283713Y-101550500D01*
X133283714Y-101550500D01*
X133496286Y-101550500D01*
X133496287Y-101550500D01*
X133706243Y-101517246D01*
X133908412Y-101451557D01*
X134097816Y-101355051D01*
X134153852Y-101314339D01*
X134269786Y-101230109D01*
X134269788Y-101230106D01*
X134269792Y-101230104D01*
X134420104Y-101079792D01*
X134420106Y-101079788D01*
X134420109Y-101079786D01*
X134545048Y-100907820D01*
X134545047Y-100907820D01*
X134545051Y-100907816D01*
X134641557Y-100718412D01*
X134707246Y-100516243D01*
X134740500Y-100306287D01*
X134740500Y-100093713D01*
X134707246Y-99883757D01*
X134641557Y-99681588D01*
X134545051Y-99492184D01*
X134545049Y-99492181D01*
X134545048Y-99492179D01*
X134540553Y-99485992D01*
X136087100Y-99485992D01*
X136087100Y-99654007D01*
X136119874Y-99818774D01*
X136119876Y-99818782D01*
X136184168Y-99973996D01*
X136184173Y-99974006D01*
X136277508Y-100113691D01*
X136277511Y-100113695D01*
X136381689Y-100217873D01*
X136415174Y-100279196D01*
X136410190Y-100348888D01*
X136393275Y-100379865D01*
X136376204Y-100402668D01*
X136376202Y-100402671D01*
X136327577Y-100533044D01*
X136325909Y-100537517D01*
X136319500Y-100597127D01*
X136319500Y-100597134D01*
X136319500Y-100597135D01*
X136319500Y-100942869D01*
X136319501Y-100942876D01*
X136325909Y-101002487D01*
X136327692Y-101010031D01*
X136326438Y-101010327D01*
X136330856Y-101072069D01*
X136326864Y-101085664D01*
X136326401Y-101087624D01*
X136320000Y-101147155D01*
X136320000Y-101195000D01*
X136357306Y-101195000D01*
X136361691Y-101196287D01*
X136366159Y-101195316D01*
X136394913Y-101206042D01*
X136424345Y-101214685D01*
X136428533Y-101218584D01*
X136431622Y-101219737D01*
X136456577Y-101244695D01*
X136458074Y-101246695D01*
X136482488Y-101312161D01*
X136467632Y-101380433D01*
X136418224Y-101429836D01*
X136358803Y-101445000D01*
X136320000Y-101445000D01*
X136320000Y-101492844D01*
X136326401Y-101552372D01*
X136326403Y-101552379D01*
X136376645Y-101687086D01*
X136376649Y-101687093D01*
X136462809Y-101802187D01*
X136462812Y-101802190D01*
X136577906Y-101888350D01*
X136577913Y-101888354D01*
X136712620Y-101938596D01*
X136712627Y-101938598D01*
X136772155Y-101944999D01*
X136772172Y-101945000D01*
X136870000Y-101945000D01*
X136870000Y-101519499D01*
X136872550Y-101510813D01*
X136871262Y-101501852D01*
X136882240Y-101477811D01*
X136889685Y-101452460D01*
X136896525Y-101446532D01*
X136900287Y-101438296D01*
X136922521Y-101424006D01*
X136942489Y-101406705D01*
X136953003Y-101404417D01*
X136959065Y-101400522D01*
X136993996Y-101395499D01*
X136996001Y-101395499D01*
X137063039Y-101415184D01*
X137108794Y-101467988D01*
X137120000Y-101519499D01*
X137120000Y-101945000D01*
X137217828Y-101945000D01*
X137217844Y-101944999D01*
X137277372Y-101938598D01*
X137277383Y-101938595D01*
X137401666Y-101892240D01*
X137471357Y-101887255D01*
X137488334Y-101892240D01*
X137612616Y-101938595D01*
X137612627Y-101938598D01*
X137672155Y-101944999D01*
X137672172Y-101945000D01*
X137770000Y-101945000D01*
X137770000Y-101519499D01*
X137772550Y-101510813D01*
X137771262Y-101501852D01*
X137782240Y-101477811D01*
X137789685Y-101452460D01*
X137796525Y-101446532D01*
X137800287Y-101438296D01*
X137822521Y-101424006D01*
X137842489Y-101406705D01*
X137853003Y-101404417D01*
X137859065Y-101400522D01*
X137893996Y-101395499D01*
X137896001Y-101395499D01*
X137963039Y-101415184D01*
X138008794Y-101467988D01*
X138020000Y-101519499D01*
X138020000Y-101945000D01*
X138117828Y-101945000D01*
X138117844Y-101944999D01*
X138177372Y-101938598D01*
X138177379Y-101938596D01*
X138312086Y-101888354D01*
X138312089Y-101888352D01*
X138394266Y-101826834D01*
X138459730Y-101802416D01*
X138511912Y-101809918D01*
X138628723Y-101853486D01*
X138628727Y-101853487D01*
X138688255Y-101859888D01*
X138688272Y-101859889D01*
X138952000Y-101859889D01*
X138952000Y-101484262D01*
X138954550Y-101475576D01*
X138953262Y-101466615D01*
X138964240Y-101442574D01*
X138971685Y-101417223D01*
X138978525Y-101411295D01*
X138982287Y-101403059D01*
X139004521Y-101388769D01*
X139024489Y-101371468D01*
X139035003Y-101369180D01*
X139041065Y-101365285D01*
X139075996Y-101360262D01*
X139107401Y-101360262D01*
X139174439Y-101379947D01*
X139220194Y-101432751D01*
X139231400Y-101484262D01*
X139231400Y-101859889D01*
X139495128Y-101859889D01*
X139495144Y-101859888D01*
X139554672Y-101853487D01*
X139554679Y-101853485D01*
X139621085Y-101828718D01*
X139664418Y-101820900D01*
X139845000Y-101820900D01*
X139845000Y-101204942D01*
X139864685Y-101137903D01*
X139869734Y-101130631D01*
X139891093Y-101102098D01*
X139891092Y-101102098D01*
X139891096Y-101102094D01*
X139941391Y-100967246D01*
X139947800Y-100907636D01*
X139947799Y-100593999D01*
X139950349Y-100585313D01*
X139949061Y-100576353D01*
X139960038Y-100552316D01*
X139967483Y-100526961D01*
X139974325Y-100521032D01*
X139978086Y-100512797D01*
X140000317Y-100498510D01*
X140020287Y-100481206D01*
X140030802Y-100478918D01*
X140036864Y-100475023D01*
X140071799Y-100470000D01*
X140118200Y-100470000D01*
X140185239Y-100489685D01*
X140230994Y-100542489D01*
X140242200Y-100594000D01*
X140242200Y-100907632D01*
X140242201Y-100907637D01*
X140247494Y-100956872D01*
X140247494Y-100983376D01*
X140242200Y-101032616D01*
X140242200Y-101032621D01*
X140242200Y-101032622D01*
X140242200Y-101407758D01*
X140242201Y-101407765D01*
X140248608Y-101467372D01*
X140298902Y-101602217D01*
X140298906Y-101602224D01*
X140320266Y-101630757D01*
X140344684Y-101696221D01*
X140345000Y-101705068D01*
X140345000Y-101820900D01*
X140524153Y-101820900D01*
X140567486Y-101828718D01*
X140635217Y-101853980D01*
X140635216Y-101853980D01*
X140642144Y-101854724D01*
X140694827Y-101860389D01*
X141501772Y-101860388D01*
X141561383Y-101853980D01*
X141696231Y-101803685D01*
X141811446Y-101717435D01*
X141897696Y-101602220D01*
X141927138Y-101523280D01*
X141969008Y-101467347D01*
X142034472Y-101442929D01*
X142056576Y-101443324D01*
X142072155Y-101444999D01*
X142072172Y-101445000D01*
X142170000Y-101445000D01*
X142170000Y-101019499D01*
X142172550Y-101010813D01*
X142171262Y-101001852D01*
X142182240Y-100977811D01*
X142189685Y-100952460D01*
X142196525Y-100946532D01*
X142200287Y-100938296D01*
X142222521Y-100924006D01*
X142242489Y-100906705D01*
X142253003Y-100904417D01*
X142259065Y-100900522D01*
X142293996Y-100895499D01*
X142296001Y-100895499D01*
X142363039Y-100915184D01*
X142408794Y-100967988D01*
X142420000Y-101019499D01*
X142420000Y-101445000D01*
X142517828Y-101445000D01*
X142517844Y-101444999D01*
X142577372Y-101438598D01*
X142577383Y-101438595D01*
X142716345Y-101386765D01*
X142786036Y-101381780D01*
X142847360Y-101415264D01*
X142867067Y-101440948D01*
X142870898Y-101447585D01*
X142967075Y-101572924D01*
X143092413Y-101669100D01*
X143238365Y-101729554D01*
X143238369Y-101729555D01*
X143355676Y-101744999D01*
X143820000Y-101744999D01*
X143884324Y-101744999D01*
X144001628Y-101729557D01*
X144001633Y-101729555D01*
X144147585Y-101669100D01*
X144272924Y-101572924D01*
X144369100Y-101447586D01*
X144429555Y-101301631D01*
X144437012Y-101245000D01*
X143820000Y-101245000D01*
X143820000Y-101744999D01*
X143355676Y-101744999D01*
X143419999Y-101744998D01*
X143420000Y-101744998D01*
X143420000Y-101169000D01*
X143439685Y-101101961D01*
X143492489Y-101056206D01*
X143544000Y-101045000D01*
X143620000Y-101045000D01*
X143620000Y-100969000D01*
X143639685Y-100901961D01*
X143692489Y-100856206D01*
X143744000Y-100845000D01*
X144437010Y-100845000D01*
X144437011Y-100844998D01*
X144429558Y-100788377D01*
X144429555Y-100788368D01*
X144420892Y-100767453D01*
X144417444Y-100735389D01*
X144412553Y-100703522D01*
X144413600Y-100699631D01*
X144413423Y-100697983D01*
X144414766Y-100695298D01*
X144420892Y-100672546D01*
X144429556Y-100651629D01*
X144437012Y-100595000D01*
X144315993Y-100595000D01*
X144295190Y-100588891D01*
X144273552Y-100587511D01*
X144262327Y-100579241D01*
X144248954Y-100575315D01*
X144234757Y-100558931D01*
X144217299Y-100546070D01*
X144212326Y-100533044D01*
X144203199Y-100522511D01*
X144200113Y-100501052D01*
X144192380Y-100480794D01*
X144195238Y-100467149D01*
X144193255Y-100453353D01*
X144202261Y-100433631D01*
X144206708Y-100412410D01*
X144220330Y-100394065D01*
X144222280Y-100389797D01*
X144227642Y-100383994D01*
X144228035Y-100383594D01*
X144364705Y-100246924D01*
X144369094Y-100240355D01*
X144377328Y-100231994D01*
X144398016Y-100220490D01*
X144416182Y-100205307D01*
X144430606Y-100202303D01*
X144437011Y-100195000D01*
X144436912Y-100194247D01*
X144439796Y-100175746D01*
X144437627Y-100157149D01*
X144445955Y-100136254D01*
X144447677Y-100125212D01*
X144448470Y-100123562D01*
X144452126Y-100116088D01*
X144461175Y-100102547D01*
X144474536Y-100070290D01*
X144476239Y-100066810D01*
X144497301Y-100043772D01*
X144516899Y-100019454D01*
X144520689Y-100018192D01*
X144523385Y-100015244D01*
X144553568Y-100007248D01*
X144583193Y-99997388D01*
X144587063Y-99998375D01*
X144590925Y-99997353D01*
X144620645Y-100006947D01*
X144650892Y-100014667D01*
X144653612Y-100017589D01*
X144657416Y-100018817D01*
X144677231Y-100042956D01*
X144698503Y-100065803D01*
X144699212Y-100069734D01*
X144701747Y-100072822D01*
X144705365Y-100103833D01*
X144710910Y-100134563D01*
X144710559Y-100137495D01*
X144702987Y-100194999D01*
X144702988Y-100195000D01*
X144745500Y-100195000D01*
X144774880Y-100203627D01*
X144804818Y-100210108D01*
X144808930Y-100213625D01*
X144812539Y-100214685D01*
X144833094Y-100231231D01*
X144838888Y-100237014D01*
X144866718Y-100273282D01*
X144903540Y-100301536D01*
X144909246Y-100307231D01*
X144922304Y-100331088D01*
X144938341Y-100353052D01*
X144938831Y-100361284D01*
X144942792Y-100368521D01*
X144940878Y-100395651D01*
X144942496Y-100422798D01*
X144938457Y-100429989D01*
X144937877Y-100438217D01*
X144921599Y-100460006D01*
X144908283Y-100483719D01*
X144897146Y-100493369D01*
X144866718Y-100516718D01*
X144866717Y-100516719D01*
X144866716Y-100516720D01*
X144843875Y-100546487D01*
X144787447Y-100587690D01*
X144745500Y-100595000D01*
X144702990Y-100595000D01*
X144702988Y-100595001D01*
X144710441Y-100651622D01*
X144710445Y-100651634D01*
X144718837Y-100671895D01*
X144722282Y-100703951D01*
X144727175Y-100735823D01*
X144725993Y-100738476D01*
X144726304Y-100741364D01*
X144718838Y-100766794D01*
X144709956Y-100788238D01*
X144709955Y-100788239D01*
X144694500Y-100905638D01*
X144694500Y-101184363D01*
X144709953Y-101301753D01*
X144709956Y-101301762D01*
X144764213Y-101432751D01*
X144770464Y-101447841D01*
X144866718Y-101573282D01*
X144992159Y-101669536D01*
X145138238Y-101730044D01*
X145255639Y-101745500D01*
X145784360Y-101745499D01*
X145784363Y-101745499D01*
X145901753Y-101730046D01*
X145901757Y-101730044D01*
X145901762Y-101730044D01*
X146047841Y-101669536D01*
X146173282Y-101573282D01*
X146269536Y-101447841D01*
X146330044Y-101301762D01*
X146345500Y-101184361D01*
X146345499Y-101158769D01*
X146353476Y-101131600D01*
X146358394Y-101103708D01*
X146363189Y-101098515D01*
X146365181Y-101091733D01*
X146386585Y-101073184D01*
X146405800Y-101052381D01*
X146412641Y-101050605D01*
X146417984Y-101045976D01*
X146446015Y-101041944D01*
X146473430Y-101034831D01*
X146482741Y-101036663D01*
X146487142Y-101036031D01*
X146508188Y-101040959D01*
X146510533Y-101041729D01*
X146637517Y-101089091D01*
X146663140Y-101091845D01*
X146675565Y-101095926D01*
X146694000Y-101108617D01*
X146714681Y-101117183D01*
X146724557Y-101126055D01*
X147038200Y-101439698D01*
X147150302Y-101551800D01*
X147287598Y-101631067D01*
X147440732Y-101672100D01*
X148508877Y-101672100D01*
X148575916Y-101691785D01*
X148608143Y-101721788D01*
X148612450Y-101727542D01*
X148612452Y-101727544D01*
X148612454Y-101727546D01*
X148615790Y-101730043D01*
X148727664Y-101813793D01*
X148727671Y-101813797D01*
X148862517Y-101864091D01*
X148862516Y-101864091D01*
X148869444Y-101864835D01*
X148922127Y-101870500D01*
X150017872Y-101870499D01*
X150077483Y-101864091D01*
X150212331Y-101813796D01*
X150327546Y-101727546D01*
X150413796Y-101612331D01*
X150464091Y-101477483D01*
X150470500Y-101417873D01*
X150470499Y-100722128D01*
X150464091Y-100662517D01*
X150460027Y-100651622D01*
X150454805Y-100637620D01*
X150449820Y-100567928D01*
X150454805Y-100550948D01*
X150463598Y-100527372D01*
X150469999Y-100467846D01*
X150470000Y-100467829D01*
X150470000Y-100370002D01*
X150312110Y-100370002D01*
X150245071Y-100350317D01*
X150237800Y-100345269D01*
X150212335Y-100326206D01*
X150212328Y-100326202D01*
X150077482Y-100275908D01*
X150077483Y-100275908D01*
X150017883Y-100269501D01*
X150017881Y-100269500D01*
X150017873Y-100269500D01*
X150017865Y-100269500D01*
X148922129Y-100269500D01*
X148922123Y-100269501D01*
X148862516Y-100275908D01*
X148727671Y-100326202D01*
X148727664Y-100326206D01*
X148612457Y-100412451D01*
X148612450Y-100412457D01*
X148608143Y-100418212D01*
X148552208Y-100460083D01*
X148508877Y-100467900D01*
X148144000Y-100467900D01*
X148135314Y-100465349D01*
X148126353Y-100466638D01*
X148102312Y-100455659D01*
X148076961Y-100448215D01*
X148071033Y-100441374D01*
X148062797Y-100437613D01*
X148048507Y-100415378D01*
X148031206Y-100395411D01*
X148028918Y-100384896D01*
X148025023Y-100378835D01*
X148020000Y-100343900D01*
X148020000Y-100194499D01*
X148039685Y-100127460D01*
X148092489Y-100081705D01*
X148144000Y-100070499D01*
X148417871Y-100070499D01*
X148417872Y-100070499D01*
X148477483Y-100064091D01*
X148612331Y-100013796D01*
X148685642Y-99958915D01*
X148751104Y-99934498D01*
X148803284Y-99941999D01*
X148862517Y-99964092D01*
X148922127Y-99970501D01*
X150017872Y-99970500D01*
X150077483Y-99964092D01*
X150212331Y-99913797D01*
X150220899Y-99907383D01*
X150237796Y-99894735D01*
X150303260Y-99870318D01*
X150312106Y-99870002D01*
X150470000Y-99870002D01*
X150470000Y-99772174D01*
X150469999Y-99772157D01*
X150463598Y-99712629D01*
X150463596Y-99712621D01*
X150454805Y-99689051D01*
X150449819Y-99619359D01*
X150454805Y-99602380D01*
X150456372Y-99598179D01*
X150464091Y-99577484D01*
X150470500Y-99517874D01*
X150470499Y-98822129D01*
X150464091Y-98762518D01*
X150452932Y-98732600D01*
X150413797Y-98627672D01*
X150413793Y-98627665D01*
X150327547Y-98512456D01*
X150327544Y-98512453D01*
X150212335Y-98426207D01*
X150212328Y-98426203D01*
X150077482Y-98375909D01*
X150077483Y-98375909D01*
X150017883Y-98369502D01*
X150017881Y-98369501D01*
X150017873Y-98369501D01*
X150017864Y-98369501D01*
X148922129Y-98369501D01*
X148922123Y-98369502D01*
X148862516Y-98375909D01*
X148727671Y-98426203D01*
X148727665Y-98426207D01*
X148654357Y-98481085D01*
X148588893Y-98505502D01*
X148536715Y-98498000D01*
X148477485Y-98475909D01*
X148477483Y-98475908D01*
X148417883Y-98469501D01*
X148417881Y-98469500D01*
X148417873Y-98469500D01*
X148417864Y-98469500D01*
X147622129Y-98469500D01*
X147622123Y-98469501D01*
X147562516Y-98475908D01*
X147427671Y-98526202D01*
X147427664Y-98526206D01*
X147312457Y-98612451D01*
X147312448Y-98612460D01*
X147258679Y-98684286D01*
X147228304Y-98713077D01*
X147153801Y-98762858D01*
X146860876Y-99055782D01*
X146799553Y-99089266D01*
X146773195Y-99092100D01*
X146004029Y-99092100D01*
X145956576Y-99082661D01*
X145901762Y-99059956D01*
X145901760Y-99059955D01*
X145784361Y-99044500D01*
X145255636Y-99044500D01*
X145138246Y-99059953D01*
X145138237Y-99059956D01*
X144992160Y-99120463D01*
X144866718Y-99216718D01*
X144770464Y-99342159D01*
X144745852Y-99401577D01*
X144732885Y-99417667D01*
X144724093Y-99436365D01*
X144711406Y-99444319D01*
X144702010Y-99455980D01*
X144682403Y-99462505D01*
X144664898Y-99473482D01*
X144649924Y-99473315D01*
X144635716Y-99478044D01*
X144615696Y-99472934D01*
X144595033Y-99472704D01*
X144582525Y-99464467D01*
X144568016Y-99460764D01*
X144553937Y-99445642D01*
X144536679Y-99434277D01*
X144523986Y-99413470D01*
X144520407Y-99409626D01*
X144517930Y-99404375D01*
X144517313Y-99402984D01*
X144461175Y-99267454D01*
X144449467Y-99249932D01*
X144445139Y-99240168D01*
X144441897Y-99215689D01*
X144434520Y-99192129D01*
X144434500Y-99189916D01*
X144434500Y-98001166D01*
X144443938Y-97953715D01*
X144450124Y-97938782D01*
X144482900Y-97774003D01*
X144482900Y-97605997D01*
X144450124Y-97441218D01*
X144385830Y-97286000D01*
X144385828Y-97285997D01*
X144385826Y-97285993D01*
X144292491Y-97146308D01*
X144292488Y-97146304D01*
X144173695Y-97027511D01*
X144173691Y-97027508D01*
X144034006Y-96934173D01*
X144033996Y-96934168D01*
X143878782Y-96869876D01*
X143878774Y-96869874D01*
X143714007Y-96837100D01*
X143714003Y-96837100D01*
X143545997Y-96837100D01*
X143545992Y-96837100D01*
X143381225Y-96869874D01*
X143381217Y-96869876D01*
X143226003Y-96934168D01*
X143225993Y-96934173D01*
X143086308Y-97027508D01*
X143086304Y-97027511D01*
X142967511Y-97146304D01*
X142967508Y-97146308D01*
X142874173Y-97285993D01*
X142874168Y-97286003D01*
X142809876Y-97441217D01*
X142809874Y-97441225D01*
X142777100Y-97605992D01*
X142777100Y-97605996D01*
X142777100Y-97605997D01*
X142777100Y-97774003D01*
X142785317Y-97815315D01*
X142793080Y-97854342D01*
X142786851Y-97923933D01*
X142779810Y-97932995D01*
X142787188Y-97935451D01*
X142795754Y-97946081D01*
X142807473Y-97953081D01*
X142827517Y-97982131D01*
X142829409Y-97985940D01*
X142874170Y-98094000D01*
X142909014Y-98146148D01*
X142912547Y-98153257D01*
X142923483Y-98199844D01*
X142925480Y-98206221D01*
X142925210Y-98207202D01*
X142925500Y-98208435D01*
X142925500Y-98942911D01*
X142905815Y-99009950D01*
X142853011Y-99055705D01*
X142801500Y-99066911D01*
X142712147Y-99066911D01*
X142645108Y-99047226D01*
X142599353Y-98994422D01*
X142588857Y-98929656D01*
X142589391Y-98924692D01*
X142595500Y-98867873D01*
X142595499Y-98072128D01*
X142595498Y-98072125D01*
X142595498Y-98072116D01*
X142593181Y-98050567D01*
X142595604Y-98037133D01*
X142593220Y-98023691D01*
X142601685Y-98003421D01*
X142605585Y-97981807D01*
X142605680Y-97981704D01*
X142561586Y-97936006D01*
X142555280Y-97921864D01*
X142538798Y-97877673D01*
X142538793Y-97877664D01*
X142452547Y-97762455D01*
X142452544Y-97762452D01*
X142337335Y-97676206D01*
X142337328Y-97676202D01*
X142202486Y-97625910D01*
X142202485Y-97625909D01*
X142202483Y-97625909D01*
X142142873Y-97619500D01*
X142142863Y-97619500D01*
X141447129Y-97619500D01*
X141447123Y-97619501D01*
X141387517Y-97625908D01*
X141337616Y-97644520D01*
X141267925Y-97649503D01*
X141250953Y-97644519D01*
X141202383Y-97626403D01*
X141202372Y-97626401D01*
X141142844Y-97620000D01*
X141045000Y-97620000D01*
X141045000Y-97871930D01*
X141037182Y-97915263D01*
X141004302Y-98003421D01*
X141000909Y-98012517D01*
X140994500Y-98072127D01*
X140994500Y-98346002D01*
X140974817Y-98413039D01*
X140922013Y-98458794D01*
X140870501Y-98470000D01*
X140795000Y-98470000D01*
X140795000Y-98596000D01*
X140775315Y-98663039D01*
X140722511Y-98708794D01*
X140671000Y-98720000D01*
X139219000Y-98720000D01*
X139151961Y-98700315D01*
X139106206Y-98647511D01*
X139095000Y-98596000D01*
X139095000Y-98470000D01*
X139019499Y-98470000D01*
X138952460Y-98450315D01*
X138906705Y-98397511D01*
X138895499Y-98346000D01*
X138895499Y-98220000D01*
X139345000Y-98220000D01*
X140545000Y-98220000D01*
X140545000Y-97620000D01*
X140447155Y-97620000D01*
X140387627Y-97626401D01*
X140387620Y-97626403D01*
X140252913Y-97676645D01*
X140252906Y-97676649D01*
X140137812Y-97762809D01*
X140137809Y-97762812D01*
X140046331Y-97885011D01*
X140044272Y-97883469D01*
X140004418Y-97923318D01*
X139936143Y-97938164D01*
X139870681Y-97913742D01*
X139844952Y-97884049D01*
X139843669Y-97885011D01*
X139752190Y-97762812D01*
X139752187Y-97762809D01*
X139637093Y-97676649D01*
X139637086Y-97676645D01*
X139502379Y-97626403D01*
X139502372Y-97626401D01*
X139442844Y-97620000D01*
X139345000Y-97620000D01*
X139345000Y-98220000D01*
X138895499Y-98220000D01*
X138895499Y-98072129D01*
X138895498Y-98072123D01*
X138895497Y-98072116D01*
X138889091Y-98012517D01*
X138885698Y-98003421D01*
X138852818Y-97915263D01*
X138845000Y-97871930D01*
X138845000Y-97620000D01*
X138747155Y-97620000D01*
X138687627Y-97626401D01*
X138687623Y-97626402D01*
X138639046Y-97644520D01*
X138569354Y-97649503D01*
X138552382Y-97644519D01*
X138502488Y-97625910D01*
X138502484Y-97625909D01*
X138502483Y-97625909D01*
X138442873Y-97619500D01*
X138442863Y-97619500D01*
X137747129Y-97619500D01*
X137747123Y-97619501D01*
X137687516Y-97625908D01*
X137552671Y-97676202D01*
X137552664Y-97676206D01*
X137437455Y-97762452D01*
X137437452Y-97762455D01*
X137351206Y-97877664D01*
X137351202Y-97877671D01*
X137300908Y-98012517D01*
X137298262Y-98037133D01*
X137294501Y-98072123D01*
X137294500Y-98072135D01*
X137294500Y-98619810D01*
X137274815Y-98686849D01*
X137222011Y-98732604D01*
X137152853Y-98742548D01*
X137146309Y-98741427D01*
X137024007Y-98717100D01*
X137024003Y-98717100D01*
X136855997Y-98717100D01*
X136855992Y-98717100D01*
X136691225Y-98749874D01*
X136691217Y-98749876D01*
X136536003Y-98814168D01*
X136535993Y-98814173D01*
X136396308Y-98907508D01*
X136396304Y-98907511D01*
X136277511Y-99026304D01*
X136277508Y-99026308D01*
X136184173Y-99165993D01*
X136184168Y-99166003D01*
X136119876Y-99321217D01*
X136119874Y-99321225D01*
X136087100Y-99485992D01*
X134540553Y-99485992D01*
X134420109Y-99320213D01*
X134269786Y-99169890D01*
X134097820Y-99044951D01*
X134096935Y-99044500D01*
X134089054Y-99040485D01*
X134038259Y-98992512D01*
X134021463Y-98924692D01*
X134043999Y-98858556D01*
X134089054Y-98819515D01*
X134097816Y-98815051D01*
X134162994Y-98767697D01*
X134269786Y-98690109D01*
X134269788Y-98690106D01*
X134269792Y-98690104D01*
X134420104Y-98539792D01*
X134420106Y-98539788D01*
X134420109Y-98539786D01*
X134545048Y-98367820D01*
X134545047Y-98367820D01*
X134545051Y-98367816D01*
X134641557Y-98178412D01*
X134707246Y-97976243D01*
X134740500Y-97766287D01*
X134740500Y-97553713D01*
X134707246Y-97343757D01*
X134641557Y-97141588D01*
X134545051Y-96952184D01*
X134545049Y-96952181D01*
X134545048Y-96952179D01*
X134420109Y-96780213D01*
X134269786Y-96629890D01*
X134097820Y-96504951D01*
X134097115Y-96504591D01*
X134089054Y-96500485D01*
X134038259Y-96452512D01*
X134021463Y-96384692D01*
X134043999Y-96318556D01*
X134089054Y-96279515D01*
X134097816Y-96275051D01*
X134136103Y-96247234D01*
X134269786Y-96150109D01*
X134269788Y-96150106D01*
X134269792Y-96150104D01*
X134420104Y-95999792D01*
X134420106Y-95999788D01*
X134420109Y-95999786D01*
X134532645Y-95844892D01*
X134545051Y-95827816D01*
X134641557Y-95638412D01*
X134707246Y-95436243D01*
X134740500Y-95226287D01*
X134740500Y-95098644D01*
X155395999Y-95098644D01*
X155402400Y-95158172D01*
X155402402Y-95158179D01*
X155452644Y-95292886D01*
X155452648Y-95292893D01*
X155538808Y-95407987D01*
X155538811Y-95407990D01*
X155653905Y-95494150D01*
X155653912Y-95494154D01*
X155788619Y-95544396D01*
X155788626Y-95544398D01*
X155848154Y-95550799D01*
X155848171Y-95550800D01*
X155899999Y-95550800D01*
X155899999Y-94742000D01*
X155395999Y-94742000D01*
X155395999Y-95098644D01*
X134740500Y-95098644D01*
X134740500Y-95013713D01*
X134707246Y-94803757D01*
X134686354Y-94739461D01*
X134684360Y-94669624D01*
X134720440Y-94609791D01*
X134783140Y-94578962D01*
X134852555Y-94586926D01*
X134891967Y-94613465D01*
X134913200Y-94634698D01*
X135018200Y-94739698D01*
X135130302Y-94851800D01*
X135267598Y-94931067D01*
X135420732Y-94972100D01*
X135420734Y-94972100D01*
X145269266Y-94972100D01*
X145269268Y-94972100D01*
X145422402Y-94931067D01*
X145559698Y-94851800D01*
X145671800Y-94739698D01*
X146526143Y-93885355D01*
X155395999Y-93885355D01*
X155395999Y-94242000D01*
X155899999Y-94242000D01*
X155899999Y-93433200D01*
X155848154Y-93433200D01*
X155788626Y-93439601D01*
X155788619Y-93439603D01*
X155653912Y-93489845D01*
X155653905Y-93489849D01*
X155538811Y-93576009D01*
X155538808Y-93576012D01*
X155452648Y-93691106D01*
X155452644Y-93691113D01*
X155402402Y-93825820D01*
X155402400Y-93825827D01*
X155395999Y-93885355D01*
X146526143Y-93885355D01*
X151003079Y-89408419D01*
X151064402Y-89374934D01*
X151090760Y-89372100D01*
X152159266Y-89372100D01*
X152159268Y-89372100D01*
X152312402Y-89331067D01*
X152449698Y-89251800D01*
X152561800Y-89139698D01*
X152680597Y-89020900D01*
X152741916Y-88987418D01*
X152811608Y-88992402D01*
X152867542Y-89034273D01*
X152882776Y-89064368D01*
X152883702Y-89063985D01*
X152942789Y-89206633D01*
X153025182Y-89329944D01*
X153025188Y-89329951D01*
X153130048Y-89434811D01*
X153130055Y-89434817D01*
X153253366Y-89517210D01*
X153253367Y-89517210D01*
X153253368Y-89517211D01*
X153390387Y-89573967D01*
X153535841Y-89602899D01*
X153535845Y-89602900D01*
X153535846Y-89602900D01*
X153684155Y-89602900D01*
X153684156Y-89602899D01*
X153829613Y-89573967D01*
X153918416Y-89537183D01*
X153972261Y-89514880D01*
X153972827Y-89516248D01*
X154034027Y-89503501D01*
X154054778Y-89508111D01*
X154054969Y-89507307D01*
X154062511Y-89509088D01*
X154062517Y-89509091D01*
X154122127Y-89515500D01*
X154467872Y-89515499D01*
X154527483Y-89509091D01*
X154527485Y-89509090D01*
X154527487Y-89509090D01*
X154535031Y-89507308D01*
X154535355Y-89508682D01*
X154593712Y-89503866D01*
X154603753Y-89505822D01*
X154612517Y-89509091D01*
X154630394Y-89511012D01*
X154635589Y-89512025D01*
X154662091Y-89525755D01*
X154689681Y-89537183D01*
X154697218Y-89543954D01*
X154697627Y-89544166D01*
X154697811Y-89544486D01*
X154699557Y-89546055D01*
X154823200Y-89669698D01*
X154935302Y-89781800D01*
X155072598Y-89861067D01*
X155225732Y-89902100D01*
X155225734Y-89902100D01*
X155857040Y-89902100D01*
X155924079Y-89921785D01*
X155969834Y-89974589D01*
X155979778Y-90043747D01*
X155950753Y-90107303D01*
X155944721Y-90113781D01*
X155065569Y-90992932D01*
X155004246Y-91026417D01*
X155002080Y-91026868D01*
X154845809Y-91057953D01*
X154845801Y-91057955D01*
X154699690Y-91118475D01*
X154699677Y-91118482D01*
X154568181Y-91206346D01*
X154568177Y-91206349D01*
X154456349Y-91318177D01*
X154456346Y-91318181D01*
X154368482Y-91449677D01*
X154368475Y-91449690D01*
X154307955Y-91595801D01*
X154307952Y-91595810D01*
X154277100Y-91750916D01*
X154277100Y-91909083D01*
X154307952Y-92064189D01*
X154307955Y-92064198D01*
X154368475Y-92210309D01*
X154368482Y-92210322D01*
X154456346Y-92341818D01*
X154456349Y-92341822D01*
X154568177Y-92453650D01*
X154568181Y-92453653D01*
X154699677Y-92541517D01*
X154699690Y-92541524D01*
X154778542Y-92574185D01*
X154845803Y-92602045D01*
X154845805Y-92602045D01*
X154845810Y-92602047D01*
X155000916Y-92632899D01*
X155000919Y-92632900D01*
X155000921Y-92632900D01*
X155159081Y-92632900D01*
X155159082Y-92632899D01*
X155210785Y-92622615D01*
X155314189Y-92602047D01*
X155314192Y-92602045D01*
X155314197Y-92602045D01*
X155460316Y-92541521D01*
X155591819Y-92453653D01*
X155703653Y-92341819D01*
X155791521Y-92210316D01*
X155852045Y-92064197D01*
X155855367Y-92047496D01*
X155858825Y-92030114D01*
X155891210Y-91968203D01*
X155951925Y-91933629D01*
X156021695Y-91937368D01*
X156078367Y-91978235D01*
X156083544Y-91985414D01*
X156171346Y-92116818D01*
X156171349Y-92116822D01*
X156283177Y-92228650D01*
X156283181Y-92228653D01*
X156414677Y-92316517D01*
X156414690Y-92316524D01*
X156524949Y-92362194D01*
X156579353Y-92406034D01*
X156601418Y-92472328D01*
X156593681Y-92520084D01*
X156590909Y-92527517D01*
X156584500Y-92587127D01*
X156584500Y-92587134D01*
X156584500Y-92587135D01*
X156584500Y-92932869D01*
X156584501Y-92932876D01*
X156590908Y-92992479D01*
X156592692Y-93000026D01*
X156591229Y-93000371D01*
X156595585Y-93061371D01*
X156591173Y-93076396D01*
X156590908Y-93077517D01*
X156584501Y-93137116D01*
X156584500Y-93137135D01*
X156584500Y-93309486D01*
X156564815Y-93376525D01*
X156512011Y-93422280D01*
X156455148Y-93433068D01*
X156455148Y-93433200D01*
X156454457Y-93433200D01*
X156453883Y-93433309D01*
X156451843Y-93433200D01*
X156399999Y-93433200D01*
X156399999Y-94242000D01*
X156903999Y-94242000D01*
X156903999Y-94059188D01*
X156906587Y-94050371D01*
X156905300Y-94041275D01*
X156916276Y-94017377D01*
X156923684Y-93992149D01*
X156930626Y-93986133D01*
X156934462Y-93977782D01*
X156956620Y-93963609D01*
X156976488Y-93946394D01*
X156987140Y-93944088D01*
X156993322Y-93940135D01*
X157019208Y-93937148D01*
X157028268Y-93935188D01*
X157034347Y-93935201D01*
X157037127Y-93935500D01*
X157171771Y-93935499D01*
X157205190Y-93945391D01*
X157238540Y-93955183D01*
X157238632Y-93955289D01*
X157238766Y-93955329D01*
X157261494Y-93981674D01*
X157284295Y-94007987D01*
X157284328Y-94008141D01*
X157284407Y-94008232D01*
X157284516Y-94009004D01*
X157295501Y-94059499D01*
X157295502Y-95086700D01*
X157275818Y-95153739D01*
X157223014Y-95199494D01*
X157171502Y-95210700D01*
X157027999Y-95210700D01*
X156960960Y-95191015D01*
X156915205Y-95138211D01*
X156903999Y-95086700D01*
X156903999Y-94742000D01*
X156399999Y-94742000D01*
X156399999Y-95452408D01*
X156392181Y-95495741D01*
X156351908Y-95603717D01*
X156345501Y-95663316D01*
X156345500Y-95663335D01*
X156345500Y-96876670D01*
X156345501Y-96876676D01*
X156351908Y-96936283D01*
X156402202Y-97071128D01*
X156402206Y-97071135D01*
X156488452Y-97186344D01*
X156488455Y-97186347D01*
X156603664Y-97272593D01*
X156603671Y-97272597D01*
X156639588Y-97285993D01*
X156738517Y-97322891D01*
X156798127Y-97329300D01*
X157355513Y-97329299D01*
X157381031Y-97336791D01*
X157407346Y-97340652D01*
X157414036Y-97346482D01*
X157422552Y-97348983D01*
X157439969Y-97369083D01*
X157460020Y-97386558D01*
X157465403Y-97398435D01*
X157468307Y-97401787D01*
X157474589Y-97418704D01*
X157486819Y-97460800D01*
X157486620Y-97530670D01*
X157455424Y-97583076D01*
X157305319Y-97733181D01*
X157243996Y-97766666D01*
X157217638Y-97769500D01*
X155597129Y-97769500D01*
X155597123Y-97769501D01*
X155537516Y-97775908D01*
X155402671Y-97826202D01*
X155402664Y-97826206D01*
X155287455Y-97912452D01*
X155287452Y-97912455D01*
X155201206Y-98027664D01*
X155201202Y-98027671D01*
X155150908Y-98162517D01*
X155144501Y-98222116D01*
X155144500Y-98222135D01*
X155144500Y-98732600D01*
X155124815Y-98799639D01*
X155072011Y-98845394D01*
X155002853Y-98855338D01*
X154973047Y-98847161D01*
X154849613Y-98796033D01*
X154849605Y-98796031D01*
X154704158Y-98767100D01*
X154704154Y-98767100D01*
X154555846Y-98767100D01*
X154555845Y-98767100D01*
X154549783Y-98767697D01*
X154549653Y-98766384D01*
X154486807Y-98760753D01*
X154432956Y-98719681D01*
X154427546Y-98712454D01*
X154427543Y-98712452D01*
X154411330Y-98700315D01*
X154312331Y-98626204D01*
X154312329Y-98626203D01*
X154312328Y-98626202D01*
X154177482Y-98575908D01*
X154177483Y-98575908D01*
X154117883Y-98569501D01*
X154117881Y-98569500D01*
X154117873Y-98569500D01*
X154117864Y-98569500D01*
X153322129Y-98569500D01*
X153322123Y-98569501D01*
X153262515Y-98575909D01*
X153242023Y-98583552D01*
X153172332Y-98588536D01*
X153111009Y-98555050D01*
X153099424Y-98541681D01*
X153098010Y-98539792D01*
X153077546Y-98512455D01*
X152962331Y-98426205D01*
X152962329Y-98426204D01*
X152962328Y-98426203D01*
X152827482Y-98375909D01*
X152827483Y-98375909D01*
X152767883Y-98369502D01*
X152767881Y-98369501D01*
X152767873Y-98369501D01*
X152767864Y-98369501D01*
X151672129Y-98369501D01*
X151672123Y-98369502D01*
X151612516Y-98375909D01*
X151477671Y-98426203D01*
X151477664Y-98426207D01*
X151362455Y-98512453D01*
X151362452Y-98512456D01*
X151276206Y-98627665D01*
X151276202Y-98627672D01*
X151230624Y-98749876D01*
X151225909Y-98762518D01*
X151219500Y-98822128D01*
X151219500Y-98822135D01*
X151219500Y-98822136D01*
X151219500Y-99517871D01*
X151219501Y-99517877D01*
X151225908Y-99577484D01*
X151276202Y-99712329D01*
X151276206Y-99712336D01*
X151362452Y-99827545D01*
X151362455Y-99827548D01*
X151477664Y-99913794D01*
X151477671Y-99913798D01*
X151612517Y-99964092D01*
X151612516Y-99964092D01*
X151619444Y-99964836D01*
X151672127Y-99970501D01*
X152746000Y-99970500D01*
X152754686Y-99973050D01*
X152763647Y-99971762D01*
X152787683Y-99982739D01*
X152813039Y-99990184D01*
X152818967Y-99997026D01*
X152827203Y-100000787D01*
X152841489Y-100023018D01*
X152858794Y-100042988D01*
X152861081Y-100053503D01*
X152864977Y-100059565D01*
X152870000Y-100094500D01*
X152870000Y-100145500D01*
X152850315Y-100212539D01*
X152797511Y-100258294D01*
X152746000Y-100269500D01*
X151672129Y-100269500D01*
X151672123Y-100269501D01*
X151612516Y-100275908D01*
X151477671Y-100326202D01*
X151477664Y-100326206D01*
X151362455Y-100412452D01*
X151362452Y-100412455D01*
X151276206Y-100527664D01*
X151276202Y-100527671D01*
X151229968Y-100651634D01*
X151225909Y-100662517D01*
X151219500Y-100722127D01*
X151219500Y-100722134D01*
X151219500Y-100722135D01*
X151219500Y-101417870D01*
X151219501Y-101417876D01*
X151225908Y-101477483D01*
X151276202Y-101612328D01*
X151276206Y-101612335D01*
X151362452Y-101727544D01*
X151362455Y-101727547D01*
X151477664Y-101813793D01*
X151477671Y-101813797D01*
X151612517Y-101864091D01*
X151612516Y-101864091D01*
X151619444Y-101864835D01*
X151672127Y-101870500D01*
X152767872Y-101870499D01*
X152827483Y-101864091D01*
X152962331Y-101813796D01*
X153077546Y-101727546D01*
X153163796Y-101612331D01*
X153214091Y-101477483D01*
X153220500Y-101417873D01*
X153220500Y-101294000D01*
X153240185Y-101226961D01*
X153292989Y-101181206D01*
X153344500Y-101170000D01*
X153470000Y-101170000D01*
X153970000Y-101170000D01*
X154117828Y-101170000D01*
X154117844Y-101169999D01*
X154177372Y-101163598D01*
X154177379Y-101163596D01*
X154312086Y-101113354D01*
X154312093Y-101113350D01*
X154427187Y-101027190D01*
X154427190Y-101027187D01*
X154513350Y-100912093D01*
X154513354Y-100912086D01*
X154563596Y-100777379D01*
X154563598Y-100777372D01*
X154569999Y-100717844D01*
X154570000Y-100717827D01*
X154570000Y-100620000D01*
X153970000Y-100620000D01*
X153970000Y-101170000D01*
X153470000Y-101170000D01*
X153470000Y-100494000D01*
X153489685Y-100426961D01*
X153542489Y-100381206D01*
X153594000Y-100370000D01*
X153720000Y-100370000D01*
X153720000Y-100294499D01*
X153739685Y-100227460D01*
X153792489Y-100181705D01*
X153843998Y-100170499D01*
X154117872Y-100170499D01*
X154173176Y-100164553D01*
X154185196Y-100163262D01*
X154185561Y-100166660D01*
X154239798Y-100169476D01*
X154267629Y-100183376D01*
X154273368Y-100187211D01*
X154273369Y-100187211D01*
X154273370Y-100187212D01*
X154292172Y-100195000D01*
X154410387Y-100243967D01*
X154538753Y-100269500D01*
X154555841Y-100272899D01*
X154555845Y-100272900D01*
X154555846Y-100272900D01*
X154704155Y-100272900D01*
X154704156Y-100272899D01*
X154849613Y-100243967D01*
X154986632Y-100187211D01*
X155021053Y-100164211D01*
X155087729Y-100143333D01*
X155155110Y-100161817D01*
X155198774Y-100207883D01*
X155201202Y-100212330D01*
X155287452Y-100327544D01*
X155287455Y-100327547D01*
X155402664Y-100413793D01*
X155402671Y-100413797D01*
X155537517Y-100464091D01*
X155537516Y-100464091D01*
X155544444Y-100464835D01*
X155597127Y-100470500D01*
X157942872Y-100470499D01*
X158002483Y-100464091D01*
X158137331Y-100413796D01*
X158252546Y-100327546D01*
X158338796Y-100212331D01*
X158389091Y-100077483D01*
X158395500Y-100017873D01*
X158395499Y-98397359D01*
X158415184Y-98330321D01*
X158431818Y-98309679D01*
X158570677Y-98170820D01*
X158749300Y-97992198D01*
X158753296Y-97985276D01*
X158828567Y-97854902D01*
X158840089Y-97811900D01*
X158845767Y-97800590D01*
X158857920Y-97787565D01*
X158868903Y-97768543D01*
X158879814Y-97757631D01*
X158892130Y-97750904D01*
X158893435Y-97749507D01*
X158895781Y-97748910D01*
X158941135Y-97724143D01*
X159010827Y-97729124D01*
X159055180Y-97757627D01*
X159115629Y-97818076D01*
X159115633Y-97818079D01*
X159115635Y-97818081D01*
X159257102Y-97901744D01*
X159346340Y-97927670D01*
X159405224Y-97965276D01*
X159434431Y-98028748D01*
X159427926Y-98090079D01*
X159400908Y-98162516D01*
X159394501Y-98222116D01*
X159394500Y-98222135D01*
X159394500Y-100017870D01*
X159394501Y-100017876D01*
X159400908Y-100077483D01*
X159451202Y-100212328D01*
X159451206Y-100212335D01*
X159537452Y-100327544D01*
X159537455Y-100327547D01*
X159652664Y-100413793D01*
X159652671Y-100413797D01*
X159787517Y-100464091D01*
X159787516Y-100464091D01*
X159794444Y-100464835D01*
X159847127Y-100470500D01*
X162192872Y-100470499D01*
X162252483Y-100464091D01*
X162387331Y-100413796D01*
X162502546Y-100327546D01*
X162588796Y-100212331D01*
X162639091Y-100077483D01*
X162639091Y-100077482D01*
X162639318Y-100076874D01*
X162681189Y-100020940D01*
X162746653Y-99996523D01*
X162814926Y-100011374D01*
X162864332Y-100060779D01*
X162879500Y-100120207D01*
X162879500Y-101619792D01*
X162859815Y-101686831D01*
X162807011Y-101732586D01*
X162737853Y-101742530D01*
X162674297Y-101713505D01*
X162639318Y-101663125D01*
X162588797Y-101527671D01*
X162588793Y-101527664D01*
X162502547Y-101412455D01*
X162502544Y-101412452D01*
X162387335Y-101326206D01*
X162387328Y-101326202D01*
X162252482Y-101275908D01*
X162252483Y-101275908D01*
X162192883Y-101269501D01*
X162192881Y-101269500D01*
X162192873Y-101269500D01*
X162192864Y-101269500D01*
X159847129Y-101269500D01*
X159847123Y-101269501D01*
X159787516Y-101275908D01*
X159652671Y-101326202D01*
X159652664Y-101326206D01*
X159537455Y-101412452D01*
X159537452Y-101412455D01*
X159451206Y-101527664D01*
X159451202Y-101527671D01*
X159400908Y-101662517D01*
X159394501Y-101722116D01*
X159394500Y-101722135D01*
X159394500Y-103517870D01*
X159394501Y-103517876D01*
X159400908Y-103577483D01*
X159451202Y-103712328D01*
X159451206Y-103712335D01*
X159537452Y-103827544D01*
X159537455Y-103827547D01*
X159652664Y-103913793D01*
X159652671Y-103913797D01*
X159787517Y-103964091D01*
X159787516Y-103964091D01*
X159794444Y-103964835D01*
X159847127Y-103970500D01*
X162192872Y-103970499D01*
X162252483Y-103964091D01*
X162387331Y-103913796D01*
X162502546Y-103827546D01*
X162588796Y-103712331D01*
X162639091Y-103577483D01*
X162639091Y-103577482D01*
X162639318Y-103576874D01*
X162681189Y-103520940D01*
X162746653Y-103496523D01*
X162814926Y-103511374D01*
X162864332Y-103560779D01*
X162879500Y-103620207D01*
X162879500Y-106361753D01*
X162876861Y-106387200D01*
X162832452Y-106598992D01*
X162830866Y-106605638D01*
X162812405Y-106674536D01*
X162811475Y-106677825D01*
X162714622Y-107003147D01*
X162712299Y-107010176D01*
X162692696Y-107064034D01*
X162691691Y-107066698D01*
X162563036Y-107396414D01*
X162559903Y-107403741D01*
X162559902Y-107403743D01*
X162545471Y-107434691D01*
X162544489Y-107436747D01*
X162379182Y-107774889D01*
X162374304Y-107783903D01*
X162168037Y-108130064D01*
X162162431Y-108138644D01*
X161928284Y-108466587D01*
X161921989Y-108474674D01*
X161661566Y-108782155D01*
X161654625Y-108789695D01*
X161369695Y-109074625D01*
X161362155Y-109081566D01*
X161054674Y-109341989D01*
X161046587Y-109348284D01*
X160718644Y-109582431D01*
X160710064Y-109588037D01*
X160363903Y-109794304D01*
X160354889Y-109799182D01*
X160016747Y-109964489D01*
X160014691Y-109965471D01*
X159983743Y-109979902D01*
X159976414Y-109983036D01*
X159646698Y-110111691D01*
X159644034Y-110112696D01*
X159590176Y-110132299D01*
X159583147Y-110134622D01*
X159257825Y-110231475D01*
X159254536Y-110232405D01*
X159185638Y-110250866D01*
X159178992Y-110252452D01*
X158967201Y-110296861D01*
X158941754Y-110299500D01*
X135518246Y-110299500D01*
X135492799Y-110296861D01*
X135281006Y-110252452D01*
X135274360Y-110250866D01*
X135205462Y-110232405D01*
X135202173Y-110231475D01*
X134876851Y-110134622D01*
X134869822Y-110132299D01*
X134815964Y-110112696D01*
X134813300Y-110111691D01*
X134483584Y-109983036D01*
X134476255Y-109979902D01*
X134445262Y-109965450D01*
X134443206Y-109964467D01*
X134105119Y-109799186D01*
X134096105Y-109794309D01*
X133749935Y-109588037D01*
X133741355Y-109582431D01*
X133413412Y-109348284D01*
X133405325Y-109341989D01*
X133304062Y-109256224D01*
X133097844Y-109081566D01*
X133090304Y-109074625D01*
X132805374Y-108789695D01*
X132798433Y-108782155D01*
X132673445Y-108634582D01*
X132538005Y-108474668D01*
X132531715Y-108466587D01*
X132492115Y-108411124D01*
X132297564Y-108138638D01*
X132291962Y-108130064D01*
X132085683Y-107783883D01*
X132080817Y-107774889D01*
X131915458Y-107436641D01*
X131914595Y-107434837D01*
X131900089Y-107403729D01*
X131896962Y-107396414D01*
X131835927Y-107239995D01*
X131768299Y-107066679D01*
X131767302Y-107064034D01*
X131756021Y-107033039D01*
X131747692Y-107010157D01*
X131745383Y-107003169D01*
X131648521Y-106677816D01*
X131647604Y-106674576D01*
X131641685Y-106652486D01*
X132829500Y-106652486D01*
X132829500Y-106947513D01*
X132844841Y-107064034D01*
X132868007Y-107239993D01*
X132944361Y-107524951D01*
X132944364Y-107524961D01*
X133057254Y-107797500D01*
X133057258Y-107797510D01*
X133204761Y-108052993D01*
X133384352Y-108287040D01*
X133384358Y-108287047D01*
X133592952Y-108495641D01*
X133592959Y-108495647D01*
X133827006Y-108675238D01*
X134082489Y-108822741D01*
X134082490Y-108822741D01*
X134082493Y-108822743D01*
X134355048Y-108935639D01*
X134640007Y-109011993D01*
X134932494Y-109050500D01*
X134932501Y-109050500D01*
X135227499Y-109050500D01*
X135227506Y-109050500D01*
X135519993Y-109011993D01*
X135804952Y-108935639D01*
X136077507Y-108822743D01*
X136332994Y-108675238D01*
X136567042Y-108495646D01*
X136775646Y-108287042D01*
X136955238Y-108052994D01*
X137102743Y-107797507D01*
X137215639Y-107524952D01*
X137291993Y-107239993D01*
X137330500Y-106947506D01*
X137330500Y-106652494D01*
X137291993Y-106360007D01*
X137215639Y-106075048D01*
X137102743Y-105802493D01*
X137092755Y-105785194D01*
X136955238Y-105547006D01*
X136775647Y-105312959D01*
X136775641Y-105312952D01*
X136641559Y-105178870D01*
X139999500Y-105178870D01*
X139999500Y-105411129D01*
X140035831Y-105640514D01*
X140107601Y-105861400D01*
X140181840Y-106007100D01*
X140213039Y-106068331D01*
X140349551Y-106256224D01*
X140513776Y-106420449D01*
X140701669Y-106556961D01*
X140908604Y-106662400D01*
X140953751Y-106677069D01*
X141011426Y-106716507D01*
X141038624Y-106780866D01*
X141026709Y-106849712D01*
X140979464Y-106901188D01*
X140953752Y-106912930D01*
X140937566Y-106918189D01*
X140908600Y-106927601D01*
X140701668Y-107033039D01*
X140513773Y-107169553D01*
X140349553Y-107333773D01*
X140213039Y-107521668D01*
X140107601Y-107728599D01*
X140035831Y-107949485D01*
X139999500Y-108178870D01*
X139999500Y-108411129D01*
X140035831Y-108640514D01*
X140107601Y-108861400D01*
X140147095Y-108938910D01*
X140213039Y-109068331D01*
X140349551Y-109256224D01*
X140513776Y-109420449D01*
X140701669Y-109556961D01*
X140751657Y-109582431D01*
X140908599Y-109662398D01*
X140908601Y-109662398D01*
X140908604Y-109662400D01*
X141129486Y-109734169D01*
X141247668Y-109752886D01*
X141358871Y-109770500D01*
X141358876Y-109770500D01*
X141591129Y-109770500D01*
X141692502Y-109754443D01*
X141820514Y-109734169D01*
X142041396Y-109662400D01*
X142248331Y-109556961D01*
X142436224Y-109420449D01*
X142600449Y-109256224D01*
X142736961Y-109068331D01*
X142842400Y-108861396D01*
X142914169Y-108640514D01*
X142940435Y-108474674D01*
X142950500Y-108411129D01*
X142950500Y-108178870D01*
X142930563Y-108052993D01*
X142914169Y-107949486D01*
X142842400Y-107728604D01*
X142842398Y-107728601D01*
X142842398Y-107728599D01*
X142738638Y-107524961D01*
X142736961Y-107521669D01*
X142600449Y-107333776D01*
X142436224Y-107169551D01*
X142248331Y-107033039D01*
X142041396Y-106927600D01*
X141996248Y-106912930D01*
X141938573Y-106873493D01*
X141911375Y-106809135D01*
X141923290Y-106740288D01*
X141970534Y-106688813D01*
X141996247Y-106677069D01*
X142041396Y-106662400D01*
X142248331Y-106556961D01*
X142436224Y-106420449D01*
X142600449Y-106256224D01*
X142736961Y-106068331D01*
X142756219Y-106030534D01*
X142804191Y-105979740D01*
X142872011Y-105962944D01*
X142914152Y-105972268D01*
X142941457Y-105983578D01*
X143059708Y-106007099D01*
X143059712Y-106007100D01*
X143059713Y-106007100D01*
X143180288Y-106007100D01*
X143180289Y-106007099D01*
X143298543Y-105983578D01*
X143409938Y-105937436D01*
X143510191Y-105870449D01*
X143595449Y-105785191D01*
X143662436Y-105684938D01*
X143708578Y-105573543D01*
X143732100Y-105455287D01*
X143732100Y-105334713D01*
X143732099Y-105334708D01*
X149007900Y-105334708D01*
X149007900Y-105455291D01*
X149031420Y-105573535D01*
X149031422Y-105573543D01*
X149077563Y-105684936D01*
X149077565Y-105684940D01*
X149144547Y-105785186D01*
X149144553Y-105785194D01*
X149229805Y-105870446D01*
X149229809Y-105870449D01*
X149330062Y-105937436D01*
X149441457Y-105983578D01*
X149559708Y-106007099D01*
X149559712Y-106007100D01*
X149559713Y-106007100D01*
X149680288Y-106007100D01*
X149680289Y-106007099D01*
X149798543Y-105983578D01*
X149825843Y-105972269D01*
X149895310Y-105964800D01*
X149957790Y-105996073D01*
X149983780Y-106030534D01*
X150003039Y-106068331D01*
X150139551Y-106256224D01*
X150303776Y-106420449D01*
X150491669Y-106556961D01*
X150698604Y-106662400D01*
X150743751Y-106677069D01*
X150801426Y-106716507D01*
X150828624Y-106780866D01*
X150816709Y-106849712D01*
X150769464Y-106901188D01*
X150743752Y-106912930D01*
X150727566Y-106918189D01*
X150698600Y-106927601D01*
X150491668Y-107033039D01*
X150303773Y-107169553D01*
X150139553Y-107333773D01*
X150003039Y-107521668D01*
X149897601Y-107728599D01*
X149825831Y-107949485D01*
X149789500Y-108178870D01*
X149789500Y-108411129D01*
X149825831Y-108640514D01*
X149897601Y-108861400D01*
X149937095Y-108938910D01*
X150003039Y-109068331D01*
X150139551Y-109256224D01*
X150303776Y-109420449D01*
X150491669Y-109556961D01*
X150541657Y-109582431D01*
X150698599Y-109662398D01*
X150698601Y-109662398D01*
X150698604Y-109662400D01*
X150919486Y-109734169D01*
X151037668Y-109752886D01*
X151148871Y-109770500D01*
X151148876Y-109770500D01*
X151381129Y-109770500D01*
X151482502Y-109754443D01*
X151610514Y-109734169D01*
X151831396Y-109662400D01*
X152038331Y-109556961D01*
X152226224Y-109420449D01*
X152390449Y-109256224D01*
X152526961Y-109068331D01*
X152632400Y-108861396D01*
X152704169Y-108640514D01*
X152730435Y-108474674D01*
X152740500Y-108411129D01*
X152740500Y-108178870D01*
X152720563Y-108052993D01*
X152704169Y-107949486D01*
X152632400Y-107728604D01*
X152632398Y-107728601D01*
X152632398Y-107728599D01*
X152528638Y-107524961D01*
X152526961Y-107521669D01*
X152390449Y-107333776D01*
X152226224Y-107169551D01*
X152038331Y-107033039D01*
X151831396Y-106927600D01*
X151786248Y-106912930D01*
X151728573Y-106873493D01*
X151701375Y-106809135D01*
X151713290Y-106740288D01*
X151760534Y-106688813D01*
X151786247Y-106677069D01*
X151831396Y-106662400D01*
X151850853Y-106652486D01*
X157129500Y-106652486D01*
X157129500Y-106947513D01*
X157144841Y-107064034D01*
X157168007Y-107239993D01*
X157244361Y-107524951D01*
X157244364Y-107524961D01*
X157357254Y-107797500D01*
X157357258Y-107797510D01*
X157504761Y-108052993D01*
X157684352Y-108287040D01*
X157684358Y-108287047D01*
X157892952Y-108495641D01*
X157892959Y-108495647D01*
X158127006Y-108675238D01*
X158382489Y-108822741D01*
X158382490Y-108822741D01*
X158382493Y-108822743D01*
X158655048Y-108935639D01*
X158940007Y-109011993D01*
X159232494Y-109050500D01*
X159232501Y-109050500D01*
X159527499Y-109050500D01*
X159527506Y-109050500D01*
X159819993Y-109011993D01*
X160104952Y-108935639D01*
X160377507Y-108822743D01*
X160632994Y-108675238D01*
X160867042Y-108495646D01*
X161075646Y-108287042D01*
X161255238Y-108052994D01*
X161402743Y-107797507D01*
X161515639Y-107524952D01*
X161591993Y-107239993D01*
X161630500Y-106947506D01*
X161630500Y-106652494D01*
X161591993Y-106360007D01*
X161515639Y-106075048D01*
X161402743Y-105802493D01*
X161392755Y-105785194D01*
X161255238Y-105547006D01*
X161075647Y-105312959D01*
X161075641Y-105312952D01*
X160867047Y-105104358D01*
X160867040Y-105104352D01*
X160632993Y-104924761D01*
X160377510Y-104777258D01*
X160377500Y-104777254D01*
X160104961Y-104664364D01*
X160104954Y-104664362D01*
X160104952Y-104664361D01*
X159819993Y-104588007D01*
X159771113Y-104581571D01*
X159527513Y-104549500D01*
X159527506Y-104549500D01*
X159232494Y-104549500D01*
X159232486Y-104549500D01*
X158954085Y-104586153D01*
X158940007Y-104588007D01*
X158655048Y-104664361D01*
X158655038Y-104664364D01*
X158382499Y-104777254D01*
X158382489Y-104777258D01*
X158127006Y-104924761D01*
X157892959Y-105104352D01*
X157892952Y-105104358D01*
X157684358Y-105312952D01*
X157684352Y-105312959D01*
X157504761Y-105547006D01*
X157357258Y-105802489D01*
X157357254Y-105802499D01*
X157244364Y-106075038D01*
X157244361Y-106075048D01*
X157195816Y-106256224D01*
X157168008Y-106360004D01*
X157168006Y-106360015D01*
X157129500Y-106652486D01*
X151850853Y-106652486D01*
X152038331Y-106556961D01*
X152226224Y-106420449D01*
X152390449Y-106256224D01*
X152526961Y-106068331D01*
X152632400Y-105861396D01*
X152704169Y-105640514D01*
X152733505Y-105455291D01*
X152740500Y-105411129D01*
X152740500Y-105178870D01*
X152721232Y-105057222D01*
X152704169Y-104949486D01*
X152632400Y-104728604D01*
X152632398Y-104728601D01*
X152632398Y-104728599D01*
X152576776Y-104619436D01*
X152526961Y-104521669D01*
X152390449Y-104333776D01*
X152226224Y-104169551D01*
X152038331Y-104033039D01*
X151831400Y-103927601D01*
X151610514Y-103855831D01*
X151381129Y-103819500D01*
X151381124Y-103819500D01*
X151148876Y-103819500D01*
X151148871Y-103819500D01*
X150919485Y-103855831D01*
X150698599Y-103927601D01*
X150491668Y-104033039D01*
X150303773Y-104169553D01*
X150139553Y-104333773D01*
X150003039Y-104521668D01*
X149895388Y-104732945D01*
X149893398Y-104731931D01*
X149855331Y-104779123D01*
X149789026Y-104801154D01*
X149760472Y-104798849D01*
X149707173Y-104788248D01*
X149680287Y-104782900D01*
X149559713Y-104782900D01*
X149559708Y-104782900D01*
X149441464Y-104806420D01*
X149441456Y-104806422D01*
X149330063Y-104852563D01*
X149330059Y-104852565D01*
X149229813Y-104919547D01*
X149229805Y-104919553D01*
X149144553Y-105004805D01*
X149144547Y-105004813D01*
X149077565Y-105105059D01*
X149077563Y-105105063D01*
X149031422Y-105216456D01*
X149031420Y-105216464D01*
X149007900Y-105334708D01*
X143732099Y-105334708D01*
X143708578Y-105216457D01*
X143662436Y-105105062D01*
X143595449Y-105004809D01*
X143595446Y-105004805D01*
X143510194Y-104919553D01*
X143510186Y-104919547D01*
X143409940Y-104852565D01*
X143409936Y-104852563D01*
X143298543Y-104806422D01*
X143298535Y-104806420D01*
X143180291Y-104782900D01*
X143180287Y-104782900D01*
X143059713Y-104782900D01*
X142979526Y-104798849D01*
X142909935Y-104792620D01*
X142854758Y-104749756D01*
X142845220Y-104732634D01*
X142844612Y-104732945D01*
X142809666Y-104664361D01*
X142736961Y-104521669D01*
X142600449Y-104333776D01*
X142436224Y-104169551D01*
X142248331Y-104033039D01*
X142041400Y-103927601D01*
X141820514Y-103855831D01*
X141591129Y-103819500D01*
X141591124Y-103819500D01*
X141358876Y-103819500D01*
X141358871Y-103819500D01*
X141129485Y-103855831D01*
X140908599Y-103927601D01*
X140701668Y-104033039D01*
X140513773Y-104169553D01*
X140349553Y-104333773D01*
X140213039Y-104521668D01*
X140107601Y-104728599D01*
X140035831Y-104949485D01*
X139999500Y-105178870D01*
X136641559Y-105178870D01*
X136567047Y-105104358D01*
X136567040Y-105104352D01*
X136332993Y-104924761D01*
X136077510Y-104777258D01*
X136077500Y-104777254D01*
X135804961Y-104664364D01*
X135804954Y-104664362D01*
X135804952Y-104664361D01*
X135519993Y-104588007D01*
X135471113Y-104581571D01*
X135227513Y-104549500D01*
X135227506Y-104549500D01*
X134932494Y-104549500D01*
X134932486Y-104549500D01*
X134654085Y-104586153D01*
X134640007Y-104588007D01*
X134355048Y-104664361D01*
X134355038Y-104664364D01*
X134082499Y-104777254D01*
X134082489Y-104777258D01*
X133827006Y-104924761D01*
X133592959Y-105104352D01*
X133592952Y-105104358D01*
X133384358Y-105312952D01*
X133384352Y-105312959D01*
X133204761Y-105547006D01*
X133057258Y-105802489D01*
X133057254Y-105802499D01*
X132944364Y-106075038D01*
X132944361Y-106075048D01*
X132895816Y-106256224D01*
X132868008Y-106360004D01*
X132868006Y-106360015D01*
X132829500Y-106652486D01*
X131641685Y-106652486D01*
X131629128Y-106605622D01*
X131627545Y-106598987D01*
X131618733Y-106556961D01*
X131583139Y-106387200D01*
X131580500Y-106361755D01*
X131580500Y-75438243D01*
X131583139Y-75412797D01*
X131585302Y-75402483D01*
X131627551Y-75200983D01*
X131629123Y-75194394D01*
X131647614Y-75125385D01*
X131648500Y-75122251D01*
X131728813Y-74852486D01*
X132829500Y-74852486D01*
X132829500Y-75147513D01*
X132857344Y-75359001D01*
X132868007Y-75439993D01*
X132943047Y-75720048D01*
X132944361Y-75724951D01*
X132944364Y-75724961D01*
X133057254Y-75997500D01*
X133057258Y-75997510D01*
X133204761Y-76252993D01*
X133384352Y-76487040D01*
X133384358Y-76487047D01*
X133592952Y-76695641D01*
X133592959Y-76695647D01*
X133827006Y-76875238D01*
X134082489Y-77022741D01*
X134082490Y-77022741D01*
X134082493Y-77022743D01*
X134355048Y-77135639D01*
X134640007Y-77211993D01*
X134932494Y-77250500D01*
X134932501Y-77250500D01*
X135227499Y-77250500D01*
X135227506Y-77250500D01*
X135519993Y-77211993D01*
X135804952Y-77135639D01*
X136077507Y-77022743D01*
X136332994Y-76875238D01*
X136567042Y-76695646D01*
X136775646Y-76487042D01*
X136955238Y-76252994D01*
X137102743Y-75997507D01*
X137215639Y-75724952D01*
X137291993Y-75439993D01*
X137330500Y-75147506D01*
X137330500Y-74852494D01*
X137291993Y-74560007D01*
X137215639Y-74275048D01*
X137102743Y-74002493D01*
X137051436Y-73913627D01*
X136955238Y-73747006D01*
X136775647Y-73512959D01*
X136775641Y-73512952D01*
X136567047Y-73304358D01*
X136567040Y-73304352D01*
X136332993Y-73124761D01*
X136077510Y-72977258D01*
X136077500Y-72977254D01*
X135804961Y-72864364D01*
X135804954Y-72864362D01*
X135804952Y-72864361D01*
X135519993Y-72788007D01*
X135471113Y-72781571D01*
X135227513Y-72749500D01*
X135227506Y-72749500D01*
X134932494Y-72749500D01*
X134932486Y-72749500D01*
X134678699Y-72782913D01*
X134640007Y-72788007D01*
X134367256Y-72861090D01*
X134355048Y-72864361D01*
X134355038Y-72864364D01*
X134082499Y-72977254D01*
X134082489Y-72977258D01*
X133827006Y-73124761D01*
X133592959Y-73304352D01*
X133592952Y-73304358D01*
X133384358Y-73512952D01*
X133384352Y-73512959D01*
X133204761Y-73747006D01*
X133057258Y-74002489D01*
X133057254Y-74002499D01*
X132944364Y-74275038D01*
X132944361Y-74275048D01*
X132873123Y-74540916D01*
X132868008Y-74560004D01*
X132868006Y-74560015D01*
X132829500Y-74852486D01*
X131728813Y-74852486D01*
X131745389Y-74796810D01*
X131747685Y-74789862D01*
X131767331Y-74735886D01*
X131768276Y-74733380D01*
X131896976Y-74403551D01*
X131900079Y-74396292D01*
X131914634Y-74365080D01*
X131915415Y-74363445D01*
X132080823Y-74025097D01*
X132085690Y-74016105D01*
X132291973Y-73669918D01*
X132297556Y-73661372D01*
X132531728Y-73333394D01*
X132537996Y-73325342D01*
X132798443Y-73017832D01*
X132805362Y-73010316D01*
X133090316Y-72725362D01*
X133097832Y-72718443D01*
X133405342Y-72457996D01*
X133413394Y-72451728D01*
X133741372Y-72217556D01*
X133749918Y-72211973D01*
X134096116Y-72005683D01*
X134105097Y-72000823D01*
X134443445Y-71835415D01*
X134445080Y-71834634D01*
X134476292Y-71820079D01*
X134483551Y-71816976D01*
X134813380Y-71688276D01*
X134815886Y-71687331D01*
X134869862Y-71667685D01*
X134876810Y-71665389D01*
X135202251Y-71568500D01*
X135205385Y-71567614D01*
X135274394Y-71549123D01*
X135280982Y-71547551D01*
X135492799Y-71503139D01*
X135518245Y-71500500D01*
X158941755Y-71500500D01*
X158967201Y-71503139D01*
G37*
%TD.AperFunction*%
%TA.AperFunction,Conductor*%
G36*
X156610219Y-79053333D02*
G01*
X156647409Y-79078907D01*
X159625686Y-82057184D01*
X159659171Y-82118507D01*
X159655937Y-82183181D01*
X159642753Y-82223757D01*
X159609500Y-82433713D01*
X159609500Y-82646286D01*
X159636772Y-82818479D01*
X159642754Y-82856243D01*
X159701631Y-83037448D01*
X159708444Y-83058414D01*
X159804951Y-83247820D01*
X159929890Y-83419786D01*
X160080213Y-83570109D01*
X160252182Y-83695050D01*
X160260946Y-83699516D01*
X160311742Y-83747491D01*
X160328536Y-83815312D01*
X160305998Y-83881447D01*
X160260946Y-83920484D01*
X160252182Y-83924949D01*
X160080213Y-84049890D01*
X159929890Y-84200213D01*
X159804951Y-84372179D01*
X159708444Y-84561585D01*
X159642753Y-84763760D01*
X159609500Y-84973713D01*
X159609500Y-85186287D01*
X159642754Y-85396243D01*
X159695946Y-85559951D01*
X159708444Y-85598414D01*
X159804951Y-85787820D01*
X159929890Y-85959786D01*
X160080213Y-86110109D01*
X160252182Y-86235050D01*
X160260946Y-86239516D01*
X160311742Y-86287491D01*
X160328536Y-86355312D01*
X160305998Y-86421447D01*
X160260946Y-86460484D01*
X160252182Y-86464949D01*
X160080213Y-86589890D01*
X159929890Y-86740213D01*
X159804951Y-86912179D01*
X159708444Y-87101585D01*
X159642753Y-87303760D01*
X159614848Y-87479946D01*
X159609500Y-87513713D01*
X159609500Y-87726287D01*
X159620838Y-87797869D01*
X159642754Y-87936244D01*
X159642754Y-87936247D01*
X159655936Y-87976815D01*
X159657931Y-88046656D01*
X159625686Y-88102814D01*
X159084819Y-88643681D01*
X159023496Y-88677166D01*
X158997138Y-88680000D01*
X158311500Y-88680000D01*
X158302814Y-88677449D01*
X158293853Y-88678738D01*
X158269812Y-88667759D01*
X158244461Y-88660315D01*
X158238533Y-88653474D01*
X158230297Y-88649713D01*
X158216007Y-88627478D01*
X158198706Y-88607511D01*
X158196418Y-88596996D01*
X158192523Y-88590935D01*
X158187500Y-88556000D01*
X158187500Y-88454000D01*
X158188109Y-88451925D01*
X158157297Y-88437854D01*
X158123939Y-88391594D01*
X158122865Y-88389001D01*
X158098426Y-88330000D01*
X158362500Y-88330000D01*
X158956049Y-88330000D01*
X158956049Y-88329999D01*
X158948307Y-88271186D01*
X158948307Y-88238814D01*
X158956051Y-88180000D01*
X158362500Y-88180000D01*
X158362500Y-88330000D01*
X158098426Y-88330000D01*
X158063617Y-88245963D01*
X158063616Y-88245962D01*
X158063616Y-88245961D01*
X158038124Y-88212739D01*
X158012930Y-88147569D01*
X158012500Y-88137253D01*
X158012500Y-87830000D01*
X158362500Y-87830000D01*
X158956049Y-87830000D01*
X158956049Y-87829999D01*
X158948307Y-87771186D01*
X158948307Y-87738814D01*
X158956051Y-87680000D01*
X158362500Y-87680000D01*
X158362500Y-87830000D01*
X158012500Y-87830000D01*
X158012500Y-87680000D01*
X157418951Y-87680000D01*
X157418949Y-87680001D01*
X157426692Y-87738815D01*
X157426692Y-87771185D01*
X157416143Y-87851310D01*
X157387876Y-87915206D01*
X157329552Y-87953677D01*
X157309389Y-87958063D01*
X157226771Y-87968940D01*
X157194400Y-87968940D01*
X157137500Y-87961448D01*
X157122375Y-87974712D01*
X157117815Y-87990245D01*
X157114039Y-87994309D01*
X157112935Y-87997291D01*
X157103342Y-88005825D01*
X157088035Y-88022304D01*
X157080299Y-88028122D01*
X157078463Y-88028883D01*
X157037580Y-88060253D01*
X157037035Y-88060663D01*
X157004871Y-88072742D01*
X156972816Y-88085135D01*
X156972208Y-88085010D01*
X156971627Y-88085229D01*
X156937998Y-88077993D01*
X156904371Y-88071096D01*
X156903580Y-88070588D01*
X156903320Y-88070532D01*
X156903004Y-88070217D01*
X156887015Y-88059942D01*
X156840090Y-88023936D01*
X156841454Y-88022157D01*
X156801281Y-87980020D01*
X156799283Y-87971784D01*
X156778265Y-87953352D01*
X156741609Y-87947635D01*
X156689355Y-87901253D01*
X156670472Y-87833983D01*
X156690955Y-87767184D01*
X156744301Y-87722062D01*
X156746967Y-87720920D01*
X156876632Y-87667211D01*
X156999946Y-87584816D01*
X157104816Y-87479946D01*
X157187211Y-87356632D01*
X157192735Y-87343297D01*
X157236575Y-87288893D01*
X157302869Y-87266828D01*
X157370569Y-87284107D01*
X157400525Y-87308991D01*
X157418949Y-87330000D01*
X158012500Y-87330000D01*
X158362500Y-87330000D01*
X158956049Y-87330000D01*
X158956049Y-87329999D01*
X158948307Y-87271186D01*
X158948307Y-87238814D01*
X158956051Y-87180000D01*
X158362500Y-87180000D01*
X158362500Y-87330000D01*
X158012500Y-87330000D01*
X158012500Y-86872745D01*
X158032185Y-86805706D01*
X158038103Y-86797286D01*
X158063617Y-86764037D01*
X158088775Y-86703300D01*
X158362500Y-86703300D01*
X158362500Y-86830000D01*
X158956049Y-86830000D01*
X158956049Y-86829999D01*
X158948307Y-86771186D01*
X158948307Y-86738814D01*
X158956051Y-86680000D01*
X158377983Y-86680000D01*
X158362500Y-86703300D01*
X158088775Y-86703300D01*
X158122865Y-86620999D01*
X158122865Y-86620998D01*
X158123939Y-86618406D01*
X158135222Y-86597231D01*
X158187500Y-86518557D01*
X158187500Y-86454000D01*
X158207185Y-86386961D01*
X158259989Y-86341206D01*
X158311500Y-86330000D01*
X158956049Y-86330000D01*
X158956050Y-86329998D01*
X158947381Y-86264140D01*
X158947377Y-86264128D01*
X158888183Y-86121219D01*
X158888180Y-86121213D01*
X158794011Y-85998491D01*
X158784200Y-85990963D01*
X158742998Y-85934534D01*
X158738844Y-85864788D01*
X158773057Y-85803868D01*
X158812234Y-85778027D01*
X158866375Y-85755602D01*
X158886630Y-85747212D01*
X158886633Y-85747210D01*
X159009946Y-85664816D01*
X159114816Y-85559946D01*
X159197211Y-85436632D01*
X159253967Y-85299613D01*
X159282900Y-85154154D01*
X159282900Y-85005846D01*
X159253967Y-84860387D01*
X159197211Y-84723368D01*
X159169660Y-84682135D01*
X159114817Y-84600055D01*
X159114811Y-84600048D01*
X159009951Y-84495188D01*
X159009944Y-84495182D01*
X158886633Y-84412789D01*
X158749613Y-84356033D01*
X158749605Y-84356031D01*
X158604158Y-84327100D01*
X158604154Y-84327100D01*
X158455846Y-84327100D01*
X158455841Y-84327100D01*
X158310394Y-84356031D01*
X158310382Y-84356034D01*
X158222868Y-84392284D01*
X158153399Y-84399753D01*
X158101105Y-84376990D01*
X158094678Y-84372179D01*
X158012134Y-84310386D01*
X157979830Y-84286203D01*
X157979828Y-84286202D01*
X157844986Y-84235910D01*
X157844985Y-84235909D01*
X157844983Y-84235909D01*
X157785373Y-84229500D01*
X157785363Y-84229500D01*
X157089629Y-84229500D01*
X157089623Y-84229501D01*
X157030017Y-84235908D01*
X156980116Y-84254520D01*
X156910425Y-84259503D01*
X156893453Y-84254519D01*
X156844883Y-84236403D01*
X156844872Y-84236401D01*
X156785344Y-84230000D01*
X156687500Y-84230000D01*
X156687500Y-84481930D01*
X156679682Y-84525263D01*
X156650258Y-84604155D01*
X156643409Y-84622517D01*
X156637000Y-84682127D01*
X156637000Y-85079955D01*
X156637001Y-85080000D01*
X156637001Y-85477876D01*
X156643408Y-85537481D01*
X156643409Y-85537483D01*
X156679682Y-85634737D01*
X156687500Y-85678068D01*
X156687500Y-85958638D01*
X156678855Y-85988075D01*
X156672332Y-86018066D01*
X156668577Y-86023081D01*
X156667815Y-86025677D01*
X156651180Y-86046320D01*
X156604218Y-86093281D01*
X156542895Y-86126765D01*
X156473203Y-86121780D01*
X156428857Y-86093280D01*
X156385259Y-86049682D01*
X156374564Y-86037487D01*
X156363510Y-86023081D01*
X156344367Y-85998133D01*
X156236013Y-85914990D01*
X156194811Y-85858565D01*
X156187500Y-85816616D01*
X156187500Y-84230000D01*
X156089655Y-84230000D01*
X156049356Y-84234334D01*
X155980597Y-84221930D01*
X155929459Y-84174320D01*
X155912100Y-84111045D01*
X155912100Y-80291625D01*
X155931785Y-80224586D01*
X155984589Y-80178831D01*
X155988607Y-80177081D01*
X156050316Y-80151521D01*
X156181819Y-80063653D01*
X156293653Y-79951819D01*
X156381521Y-79820316D01*
X156442045Y-79674197D01*
X156472900Y-79519079D01*
X156472900Y-79360921D01*
X156472900Y-79360918D01*
X156472899Y-79360916D01*
X156442047Y-79205812D01*
X156442046Y-79205809D01*
X156442045Y-79205803D01*
X156442042Y-79205796D01*
X156441071Y-79202595D01*
X156441054Y-79200823D01*
X156440857Y-79199828D01*
X156441045Y-79199790D01*
X156440440Y-79132729D01*
X156477683Y-79073612D01*
X156540974Y-79044014D01*
X156610219Y-79053333D01*
G37*
%TD.AperFunction*%
%TD*%
M02*
