%TF.GenerationSoftware,KiCad,Pcbnew,9.0.3*%
%TF.CreationDate,2025-09-02T10:47:08-04:00*%
%TF.ProjectId,simon,73696d6f-6e2e-46b6-9963-61645f706362,rev?*%
%TF.SameCoordinates,Original*%
%TF.FileFunction,Legend,Top*%
%TF.FilePolarity,Positive*%
%FSLAX46Y46*%
G04 Gerber Fmt 4.6, Leading zero omitted, Abs format (unit mm)*
G04 Created by KiCad (PCBNEW 9.0.3) date 2025-09-02 10:47:08*
%MOMM*%
%LPD*%
G01*
G04 APERTURE LIST*
G04 Aperture macros list*
%AMRoundRect*
0 Rectangle with rounded corners*
0 $1 Rounding radius*
0 $2 $3 $4 $5 $6 $7 $8 $9 X,Y pos of 4 corners*
0 Add a 4 corners polygon primitive as box body*
4,1,4,$2,$3,$4,$5,$6,$7,$8,$9,$2,$3,0*
0 Add four circle primitives for the rounded corners*
1,1,$1+$1,$2,$3*
1,1,$1+$1,$4,$5*
1,1,$1+$1,$6,$7*
1,1,$1+$1,$8,$9*
0 Add four rect primitives between the rounded corners*
20,1,$1+$1,$2,$3,$4,$5,0*
20,1,$1+$1,$4,$5,$6,$7,0*
20,1,$1+$1,$6,$7,$8,$9,0*
20,1,$1+$1,$8,$9,$2,$3,0*%
G04 Aperture macros list end*
%ADD10C,0.150000*%
%ADD11C,0.200000*%
%ADD12C,0.120000*%
%ADD13C,0.152400*%
%ADD14C,0.100000*%
%ADD15C,0.127000*%
%ADD16R,0.350000X0.250000*%
%ADD17RoundRect,0.087500X-0.187500X-0.087500X0.187500X-0.087500X0.187500X0.087500X-0.187500X0.087500X0*%
%ADD18RoundRect,0.087500X-0.087500X-0.187500X0.087500X-0.187500X0.087500X0.187500X-0.087500X0.187500X0*%
%ADD19R,0.250000X0.350000*%
%ADD20R,0.508000X1.117600*%
%ADD21R,0.750000X0.600000*%
%ADD22R,0.600000X0.700000*%
%ADD23R,1.000000X0.599999*%
%ADD24R,0.700000X0.600000*%
%ADD25C,2.600000*%
%ADD26C,3.500000*%
%ADD27R,1.475000X0.300000*%
%ADD28R,0.300000X1.475000*%
%ADD29R,0.711200X0.279400*%
%ADD30R,0.990600X1.701800*%
%ADD31RoundRect,0.150000X-0.150000X-0.200000X0.150000X-0.200000X0.150000X0.200000X-0.150000X0.200000X0*%
%ADD32RoundRect,0.100000X-0.225000X-0.100000X0.225000X-0.100000X0.225000X0.100000X-0.225000X0.100000X0*%
%ADD33RoundRect,0.102000X1.125000X0.850000X-1.125000X0.850000X-1.125000X-0.850000X1.125000X-0.850000X0*%
%ADD34R,1.400000X0.680000*%
%ADD35C,1.950000*%
%ADD36C,1.020000*%
%ADD37R,1.700000X1.700000*%
%ADD38C,1.700000*%
G04 APERTURE END LIST*
D10*
X149345001Y-98074821D02*
X149345001Y-98312916D01*
X149106906Y-98217678D02*
X149345001Y-98312916D01*
X149345001Y-98312916D02*
X149583096Y-98217678D01*
X149202144Y-98503392D02*
X149345001Y-98312916D01*
X149345001Y-98312916D02*
X149487858Y-98503392D01*
D11*
X147008571Y-79996695D02*
X147008571Y-80644314D01*
X147008571Y-80644314D02*
X147046666Y-80720504D01*
X147046666Y-80720504D02*
X147084761Y-80758600D01*
X147084761Y-80758600D02*
X147160952Y-80796695D01*
X147160952Y-80796695D02*
X147313333Y-80796695D01*
X147313333Y-80796695D02*
X147389523Y-80758600D01*
X147389523Y-80758600D02*
X147427618Y-80720504D01*
X147427618Y-80720504D02*
X147465714Y-80644314D01*
X147465714Y-80644314D02*
X147465714Y-79996695D01*
X148189523Y-80263361D02*
X148189523Y-80796695D01*
X147999047Y-79958600D02*
X147808570Y-80530028D01*
X147808570Y-80530028D02*
X148303809Y-80530028D01*
X148760952Y-79996695D02*
X148837142Y-79996695D01*
X148837142Y-79996695D02*
X148913333Y-80034790D01*
X148913333Y-80034790D02*
X148951428Y-80072885D01*
X148951428Y-80072885D02*
X148989523Y-80149076D01*
X148989523Y-80149076D02*
X149027618Y-80301457D01*
X149027618Y-80301457D02*
X149027618Y-80491933D01*
X149027618Y-80491933D02*
X148989523Y-80644314D01*
X148989523Y-80644314D02*
X148951428Y-80720504D01*
X148951428Y-80720504D02*
X148913333Y-80758600D01*
X148913333Y-80758600D02*
X148837142Y-80796695D01*
X148837142Y-80796695D02*
X148760952Y-80796695D01*
X148760952Y-80796695D02*
X148684761Y-80758600D01*
X148684761Y-80758600D02*
X148646666Y-80720504D01*
X148646666Y-80720504D02*
X148608571Y-80644314D01*
X148608571Y-80644314D02*
X148570475Y-80491933D01*
X148570475Y-80491933D02*
X148570475Y-80301457D01*
X148570475Y-80301457D02*
X148608571Y-80149076D01*
X148608571Y-80149076D02*
X148646666Y-80072885D01*
X148646666Y-80072885D02*
X148684761Y-80034790D01*
X148684761Y-80034790D02*
X148760952Y-79996695D01*
X149789523Y-80796695D02*
X149332380Y-80796695D01*
X149560952Y-80796695D02*
X149560952Y-79996695D01*
X149560952Y-79996695D02*
X149484761Y-80110980D01*
X149484761Y-80110980D02*
X149408571Y-80187171D01*
X149408571Y-80187171D02*
X149332380Y-80225266D01*
D12*
%TO.C,U301*%
X155352500Y-89115000D02*
X155352500Y-88940000D01*
X156027500Y-85895000D02*
X155652500Y-85895000D01*
X156027500Y-89115000D02*
X155352500Y-89115000D01*
X157897500Y-85895000D02*
X158572500Y-85895000D01*
X157897500Y-89115000D02*
X158572500Y-89115000D01*
X158572500Y-85895000D02*
X158572500Y-86070000D01*
X158572500Y-89115000D02*
X158572500Y-88940000D01*
X155352500Y-85895000D02*
X155212500Y-85705000D01*
X155492500Y-85705000D01*
X155352500Y-85895000D01*
G36*
X155352500Y-85895000D02*
G01*
X155212500Y-85705000D01*
X155492500Y-85705000D01*
X155352500Y-85895000D01*
G37*
D13*
%TO.C,Q301*%
X155525200Y-94606300D02*
X155525200Y-96155700D01*
X155525200Y-96155700D02*
X156513260Y-96155700D01*
X157463261Y-94606300D02*
X156736739Y-94606300D01*
X157686740Y-96155700D02*
X158674800Y-96155700D01*
X158674800Y-96155700D02*
X158674800Y-94606300D01*
X158900000Y-94181000D02*
G75*
G02*
X158747600Y-94181000I-76200J0D01*
G01*
X158747600Y-94181000D02*
G75*
G02*
X158900000Y-94181000I76200J0D01*
G01*
D14*
%TO.C,Y402*%
X138330000Y-77825000D02*
X140430000Y-77825000D01*
X138330000Y-79525000D02*
X138330000Y-77825000D01*
X140430000Y-77825000D02*
X140430000Y-79525000D01*
X140430000Y-79525000D02*
X138330000Y-79525000D01*
%TO.C,C202*%
X140345000Y-97970000D02*
X141095000Y-97970000D01*
X140345000Y-98270000D02*
X140345000Y-97970000D01*
X140345000Y-98970000D02*
X140345000Y-98670000D01*
X141095000Y-98970000D02*
X140345000Y-98970000D01*
X141495000Y-97970000D02*
X142245000Y-97970000D01*
X142245000Y-97970000D02*
X142245000Y-98270000D01*
X142245000Y-98720000D02*
X142245000Y-98970000D01*
X142245000Y-98970000D02*
X141495000Y-98970000D01*
D11*
%TO.C,U202*%
X150595001Y-98570003D02*
X151095001Y-98570003D01*
X150595001Y-101670001D02*
X150595001Y-98570003D01*
X150595001Y-101670001D02*
X151095001Y-101670001D01*
X151095001Y-101670001D02*
X151095001Y-98570003D01*
D14*
%TO.C,C201*%
X137645000Y-97970000D02*
X138395000Y-97970000D01*
X137645000Y-98220000D02*
X137645000Y-97970000D01*
X137645000Y-98970000D02*
X137645000Y-98670000D01*
X138395000Y-98970000D02*
X137645000Y-98970000D01*
X138795000Y-97970000D02*
X139545000Y-97970000D01*
X139545000Y-97970000D02*
X139545000Y-98270000D01*
X139545000Y-98670000D02*
X139545000Y-98970000D01*
X139545000Y-98970000D02*
X138795000Y-98970000D01*
%TO.C,C203*%
X147520000Y-98820000D02*
X147820000Y-98820000D01*
X147520000Y-99570000D02*
X147520000Y-98820000D01*
X147520000Y-100720000D02*
X147520000Y-99970000D01*
X147770000Y-100720000D02*
X147520000Y-100720000D01*
X148220000Y-98820000D02*
X148520000Y-98820000D01*
X148520000Y-98820000D02*
X148520000Y-99570000D01*
X148520000Y-99970000D02*
X148520000Y-100720000D01*
X148520000Y-100720000D02*
X148220000Y-100720000D01*
%TO.C,C204*%
X153220000Y-98920000D02*
X153520000Y-98920000D01*
X153220000Y-99670000D02*
X153220000Y-98920000D01*
X153220000Y-100820000D02*
X153220000Y-100070000D01*
X153520000Y-100820000D02*
X153220000Y-100820000D01*
X153970000Y-98920000D02*
X154220000Y-98920000D01*
X154220000Y-98920000D02*
X154220000Y-99670000D01*
X154220000Y-100070000D02*
X154220000Y-100820000D01*
X154220000Y-100820000D02*
X153920000Y-100820000D01*
D11*
%TO.C,U401*%
X143730000Y-75787000D02*
X153030000Y-75787000D01*
X143730000Y-85087000D02*
X143730000Y-75787000D01*
X153030000Y-75787000D02*
X153030000Y-85087000D01*
X153030000Y-85087000D02*
X143730000Y-85087000D01*
X143730000Y-75787000D02*
X144316000Y-75787000D01*
X144316000Y-76373000D01*
X143730000Y-76373000D01*
X143730000Y-75787000D01*
G36*
X143730000Y-75787000D02*
G01*
X144316000Y-75787000D01*
X144316000Y-76373000D01*
X143730000Y-76373000D01*
X143730000Y-75787000D01*
G37*
D13*
%TO.C,U201*%
X138286774Y-99719811D02*
G75*
G02*
X138083574Y-99719811I-101600J0D01*
G01*
X138083574Y-99719811D02*
G75*
G02*
X138286774Y-99719811I101600J0D01*
G01*
D12*
%TO.C,D301*%
X158267500Y-96500000D02*
X160227500Y-96500000D01*
X158267500Y-97700000D02*
X160227500Y-97700000D01*
X160227500Y-97700000D02*
X160227500Y-96500000D01*
%TO.C,U203*%
X143860000Y-99235000D02*
X145270000Y-99235000D01*
X143870000Y-101555000D02*
X145270000Y-101555000D01*
X143490000Y-99285000D02*
X143250000Y-98955000D01*
X143730000Y-98955000D01*
X143490000Y-99285000D01*
G36*
X143490000Y-99285000D02*
G01*
X143250000Y-98955000D01*
X143730000Y-98955000D01*
X143490000Y-99285000D01*
G37*
D14*
%TO.C,C301*%
X155987500Y-84580000D02*
X156737500Y-84580000D01*
X155987500Y-84880000D02*
X155987500Y-84580000D01*
X155987500Y-85580000D02*
X155987500Y-85280000D01*
X156737500Y-85580000D02*
X155987500Y-85580000D01*
X157137500Y-84580000D02*
X157887500Y-84580000D01*
X157887500Y-84580000D02*
X157887500Y-84880000D01*
X157887500Y-85330000D02*
X157887500Y-85580000D01*
X157887500Y-85580000D02*
X157137500Y-85580000D01*
D15*
%TO.C,LS301*%
X156395000Y-102570000D02*
X156395000Y-100290000D01*
X157195000Y-103370000D02*
X156395000Y-102570000D01*
X159575000Y-98370000D02*
X158215000Y-98370000D01*
X159575000Y-103370000D02*
X157195000Y-103370000D01*
X161395000Y-101450000D02*
X161395000Y-100290000D01*
D14*
%TO.C,Y401*%
X139605000Y-74885000D02*
X139605000Y-77385000D01*
X139605000Y-74885000D02*
X141255000Y-74885000D01*
X139605000Y-77385000D02*
X141255000Y-77385000D01*
X141255000Y-77385000D02*
X141255000Y-74885000D01*
%TD*%
%LPC*%
D16*
%TO.C,R204*%
X146920000Y-99920000D03*
X146920000Y-100470000D03*
%TD*%
D17*
%TO.C,U301*%
X155737500Y-86505000D03*
X155737500Y-87005000D03*
X155737500Y-87505000D03*
X155737500Y-88005000D03*
X155737500Y-88505000D03*
D18*
X156462500Y-88730000D03*
X156962500Y-88730000D03*
X157462500Y-88730000D03*
D17*
X158187500Y-88505000D03*
X158187500Y-88005000D03*
X158187500Y-87505000D03*
X158187500Y-87005000D03*
X158187500Y-86505000D03*
D18*
X157462500Y-86280000D03*
X156962500Y-86280000D03*
X156462500Y-86280000D03*
%TD*%
D19*
%TO.C,C404*%
X137295000Y-78090000D03*
X137845000Y-78090000D03*
%TD*%
D16*
%TO.C,C410*%
X141130000Y-82200000D03*
X141130000Y-82750000D03*
%TD*%
D20*
%TO.C,Q301*%
X158050001Y-94492000D03*
X156149999Y-94492000D03*
X157100000Y-96270000D03*
%TD*%
D21*
%TO.C,Y402*%
X138855000Y-79075000D03*
X139905000Y-79075000D03*
X139905000Y-78275000D03*
X138855000Y-78275000D03*
%TD*%
D19*
%TO.C,C401*%
X138490000Y-76990000D03*
X139040000Y-76990000D03*
%TD*%
%TO.C,C409*%
X145205000Y-73200000D03*
X144655000Y-73200000D03*
%TD*%
%TO.C,C403*%
X137340000Y-79170000D03*
X137890000Y-79170000D03*
%TD*%
D22*
%TO.C,C202*%
X140795000Y-98470000D03*
X141795000Y-98470000D03*
%TD*%
D23*
%TO.C,U202*%
X149470000Y-99170001D03*
X149470000Y-100120002D03*
X149470000Y-101070000D03*
X152220000Y-101070000D03*
X152220000Y-99170001D03*
%TD*%
D19*
%TO.C,R301*%
X154295000Y-88840000D03*
X154845000Y-88840000D03*
%TD*%
D22*
%TO.C,C201*%
X139095000Y-98470000D03*
X138095000Y-98470000D03*
%TD*%
D24*
%TO.C,C203*%
X148020000Y-99270000D03*
X148020000Y-100270000D03*
%TD*%
%TO.C,C204*%
X153720000Y-100370000D03*
X153720000Y-99370000D03*
%TD*%
D25*
%TO.C,N301*%
X135080000Y-75000000D03*
D26*
X135080000Y-75000000D03*
D25*
X135080000Y-106800000D03*
D26*
X135080000Y-106800000D03*
D25*
X159380000Y-75000000D03*
D26*
X159380000Y-75000000D03*
D25*
X159380000Y-106800000D03*
D26*
X159380000Y-106800000D03*
%TD*%
D19*
%TO.C,C407*%
X151555000Y-87675000D03*
X152105000Y-87675000D03*
%TD*%
%TO.C,R401*%
X139705000Y-81725000D03*
X140255000Y-81725000D03*
%TD*%
D16*
%TO.C,R304*%
X158080000Y-93315000D03*
X158080000Y-92765000D03*
%TD*%
%TO.C,R203*%
X142295000Y-100270000D03*
X142295000Y-100820000D03*
%TD*%
%TO.C,C405*%
X141130000Y-80725000D03*
X141130000Y-80175000D03*
%TD*%
D27*
%TO.C,U401*%
X142642000Y-76687000D03*
X142642000Y-77187000D03*
X142642000Y-77687000D03*
X142642000Y-78187000D03*
X142642000Y-78687000D03*
X142642000Y-79187000D03*
X142642000Y-79687000D03*
X142642000Y-80187000D03*
X142642000Y-80687000D03*
X142642000Y-81187000D03*
X142642000Y-81687000D03*
X142642000Y-82187000D03*
X142642000Y-82687000D03*
X142642000Y-83187000D03*
X142642000Y-83687000D03*
X142642000Y-84187000D03*
D28*
X144630000Y-86175000D03*
X145130000Y-86175000D03*
X145630000Y-86175000D03*
X146130000Y-86175000D03*
X146630000Y-86175000D03*
X147130000Y-86175000D03*
X147630000Y-86175000D03*
X148130000Y-86175000D03*
X148630000Y-86175000D03*
X149130000Y-86175000D03*
X149630000Y-86175000D03*
X150130000Y-86175000D03*
X150630000Y-86175000D03*
X151130000Y-86175000D03*
X151630000Y-86175000D03*
X152130000Y-86175000D03*
D27*
X154118000Y-84187000D03*
X154118000Y-83687000D03*
X154118000Y-83187000D03*
X154118000Y-82687000D03*
X154118000Y-82187000D03*
X154118000Y-81687000D03*
X154118000Y-81187000D03*
X154118000Y-80687000D03*
X154118000Y-80187000D03*
X154118000Y-79687000D03*
X154118000Y-79187000D03*
X154118000Y-78687000D03*
X154118000Y-78187000D03*
X154118000Y-77687000D03*
X154118000Y-77187000D03*
X154118000Y-76687000D03*
D28*
X152130000Y-74699000D03*
X151630000Y-74699000D03*
X151130000Y-74699000D03*
X150630000Y-74699000D03*
X150130000Y-74699000D03*
X149630000Y-74699000D03*
X149130000Y-74699000D03*
X148630000Y-74699000D03*
X148130000Y-74699000D03*
X147630000Y-74699000D03*
X147130000Y-74699000D03*
X146630000Y-74699000D03*
X146130000Y-74699000D03*
X145630000Y-74699000D03*
X145130000Y-74699000D03*
X144630000Y-74699000D03*
%TD*%
D19*
%TO.C,C402*%
X138475000Y-75120000D03*
X139025000Y-75120000D03*
%TD*%
D29*
%TO.C,U201*%
X139091700Y-99719811D03*
X139091700Y-100219937D03*
X139091700Y-100720063D03*
X139091700Y-101220189D03*
X141098300Y-101220189D03*
X141098300Y-100720063D03*
X141098300Y-100219937D03*
X141098300Y-99719811D03*
D30*
X140095000Y-100470000D03*
%TD*%
D31*
%TO.C,D301*%
X159667500Y-97100000D03*
X158267500Y-97100000D03*
%TD*%
D16*
%TO.C,C408*%
X155730000Y-77150000D03*
X155730000Y-76600000D03*
%TD*%
%TO.C,R202*%
X137895000Y-100770000D03*
X137895000Y-101320000D03*
%TD*%
%TO.C,R201*%
X136995000Y-100770000D03*
X136995000Y-101320000D03*
%TD*%
%TO.C,R303*%
X157260000Y-93310000D03*
X157260000Y-92760000D03*
%TD*%
D32*
%TO.C,U203*%
X143620000Y-99745000D03*
X143620000Y-100395000D03*
X143620000Y-101045000D03*
X145520000Y-101045000D03*
X145520000Y-100395000D03*
X145520000Y-99745000D03*
%TD*%
D16*
%TO.C,R403*%
X150630000Y-87625000D03*
X150630000Y-88175000D03*
%TD*%
D22*
%TO.C,C301*%
X156437500Y-85080000D03*
X157437500Y-85080000D03*
%TD*%
D33*
%TO.C,LS301*%
X161020000Y-99120000D03*
X156770000Y-99120000D03*
X161020000Y-102620000D03*
%TD*%
D16*
%TO.C,R402*%
X138950000Y-80550000D03*
X138950000Y-80000000D03*
%TD*%
D19*
%TO.C,R302*%
X154255000Y-86510000D03*
X154805000Y-86510000D03*
%TD*%
D16*
%TO.C,R404*%
X140330000Y-80725000D03*
X140330000Y-80175000D03*
%TD*%
D34*
%TO.C,Y401*%
X140430000Y-76925000D03*
X140430000Y-75345000D03*
%TD*%
D19*
%TO.C,C406*%
X145155000Y-87675000D03*
X145705000Y-87675000D03*
%TD*%
D35*
%TO.C,J201*%
X151265000Y-108295000D03*
X151265000Y-105295000D03*
D36*
X149620000Y-105395000D03*
X143120000Y-105395000D03*
D35*
X141475000Y-108295000D03*
X141475000Y-105295000D03*
%TD*%
D37*
%TO.C,J301*%
X133390000Y-82420000D03*
D38*
X133390000Y-84960000D03*
X133390000Y-87500000D03*
X133390000Y-90040000D03*
X133390000Y-92580000D03*
X133390000Y-95120000D03*
X133390000Y-97660000D03*
X133390000Y-100200000D03*
%TD*%
D37*
%TO.C,J401*%
X160960000Y-80000000D03*
D38*
X160960000Y-82540000D03*
X160960000Y-85080000D03*
X160960000Y-87620000D03*
X160960000Y-90160000D03*
%TD*%
%LPD*%
M02*
