M48
INCH
T1C0.0079
T2C0.0118
T3C0.0157
T4C0.0394
T5C0.0512
T6C0.0866
%
G90
G05
T1
X5.4764Y-4.0087
X5.5044Y-3.1906
X5.526Y-3.2508
X5.5567Y-3.1996
X5.6689Y-3.0
X5.6701Y-3.2138
X5.6799Y-3.2815
X5.6902Y-3.3287
X5.6949Y-3.9295
X5.7344Y-2.9986
X5.7367Y-3.4834
X5.7543Y-3.328
X5.9476Y-3.3358
X5.9665Y-3.4769
X6.0031Y-3.3339
X6.0094Y-3.0386
X6.0472Y-3.4051
X6.0476Y-3.498
X6.0878Y-3.9181
X6.137Y-2.9874
X6.1576Y-3.4685
X6.1622Y-3.4252
X6.1807Y-3.0378
X6.189Y-3.4646
X6.2004Y-3.5283
X6.2413Y-3.3496
T2
X5.3543Y-3.6579
X5.4028Y-3.6788
X5.4063Y-3.2886
X5.4346Y-3.2154
X5.4634Y-3.6382
X5.5461Y-3.2969
X6.048Y-2.9378
X6.0724Y-3.4528
X6.1055Y-3.6154
X6.1287Y-3.1276
X6.173Y-3.6065
X6.2874Y-3.765
X6.3583Y-3.8378
T3
X5.3913Y-3.9201
X5.6547Y-3.8461
T4
X5.2516Y-3.2449
X5.2516Y-3.3449
X5.2516Y-3.4449
X5.2516Y-3.5449
X5.2516Y-3.6449
X5.2516Y-3.7449
X5.2516Y-3.8449
X5.2516Y-3.9449
X6.337Y-3.1496
X6.337Y-3.2496
X6.337Y-3.3496
X6.337Y-3.4496
X6.337Y-3.5496
T5
X5.5699Y-4.1455
X5.5699Y-4.2636
X5.9553Y-4.1455
X5.9553Y-4.2636
T6
X5.3181Y-2.9528
X5.3181Y-4.2047
X6.2748Y-2.9528
X6.2748Y-4.2047
M30
